<svg xmlns="http://www.w3.org/2000/svg" width="1094.589" height="1186.447" viewBox="0 0 1094.589 1186.447">
    <defs>
        <style>
            .cls-1{opacity:.6}.cls-2{opacity:.124}.cls-3{fill:#7dbebb}.cls-4{fill:#bdbdbd}.cls-16,.cls-5,.cls-8{fill:#ba94e0}.cls-5{opacity:.105}.cls-6{fill:#e8e8e8}.cls-10,.cls-7,.cls-9{fill:#74acd1}.cls-7{opacity:.442}.cls-8{opacity:.5}.cls-10{opacity:.513}.cls-11,.cls-12{fill:#3fbec5}.cls-11{opacity:.121}.cls-12{opacity:.313}.cls-13{fill:#ade2f2}.cls-14{fill:#d66ed6}.cls-15{fill:#003ca7}.cls-16{opacity:.193}.cls-17{fill:#c1daea}.cls-18,.cls-19,.cls-22{fill:#fff}.cls-18,.cls-22{stroke:#fff;stroke-width:.5px}.cls-18{stroke-linejoin:round}.cls-20{fill:#82a8d4}.cls-21{fill:url(#linear-gradient)}.cls-23{fill:#98dcdf}
        </style>
        <linearGradient id="linear-gradient" x1=".5" x2=".5" y2="1" gradientUnits="objectBoundingBox">
            <stop offset="0" stop-color="#99aff7"/>
            <stop offset="1" stop-color="#7c98f5"/>
        </linearGradient>
    </defs>
    <g id="bg-maps" class="cls-1" transform="translate(-359.243)">
        <g id="Group_206" class="cls-2" data-name="Group 206" transform="rotate(180 726.907 593.861)">
            <g id="Group_207" data-name="Group 207" transform="translate(441.486 620.936)">
                <path id="Path_419" d="M325.454 755.985c-.649 0-.974-.325-1.3-.974-4.216-12.011-11.354-22.067-21.416-30.829l-.649-.649c-7.464-6.49-15.577-13.305-21.418-21.743-11.358-15.9-22.067-32.128-32.777-48.029-4.219-6.166-8.113-12.332-12.332-18.5-.325-.325-.325-.974-.649-1.3 0-.324 0-.324-.325-.649-4.219-8.762-3.245-12.981 5.192-18.822 11.358-7.789 24.339-8.762 36.671-9.736l3.57-.325c2.6-.325 5.192-.325 7.789-.649 12.007-.973 24.339-1.947 36.346-4.219 21.094-4.219 41.863-12.656 66.851-27.909 3.245-1.947 5.841-4.868 8.438-8.113 7.139-8.113 8.438-18.173 4.219-31.8-3.57-11.683-9.411-22.716-14.6-33.425a52.814 52.814 0 0 1-3.57-7.464 522.553 522.553 0 0 1-22.392-51.6c-3.245-8.762-8.762-12.981-17.524-13.954a3598.911 3598.911 0 0 0-49-4.868 146.591 146.591 0 0 1-51.923-13.954c-21.094-10.06-41.539-20.12-60.361-29.531l-5.841-2.921c-9.411-4.543-19.147-9.411-28.233-14.928-14.279-8.438-17.849-19.8-10.385-34.4 3.57-7.139 9.736-13.305 19.147-18.5 13.305-7.464 27.909-8.762 42.188-10.06l1.947-.325c9.087-.649 19.471-2.272 29.207-7.788 2.921-1.623 5.517-3.245 8.438-4.543 7.139-3.894 14.6-8.113 22.067-12.007 6.49-3.245 13.305-6.166 20.12-9.087 4.868-1.947 10.06-4.219 14.928-6.49a224.263 224.263 0 0 0 39.267-24.015c6.815-5.192 14.928-6.49 24.014-4.219 2.6.649 4.868 1.3 7.464 1.947 9.087 2.6 17.524 5.192 26.611 4.219a23.479 23.479 0 0 0 14.6-5.841c7.789-6.166 9.411-15.252 10.709-24.014.649-4.868 1.623-9.411 5.192-11.683 2.921-1.623 6.49-1.623 12.332.649a83.831 83.831 0 0 1 12.007 6.166c1.947.974 3.894 2.272 5.841 3.245 14.6 7.464 24.988 15.252 33.426 24.664 15.577 17.2 18.173 35.373 7.789 53.546-8.438 14.928-10.06 31.154-10.709 43.81a121.38 121.38 0 0 1-2.921 24.014c-2.6 11.034-6.49 21.743-9.736 32.452l-.649 1.947c-3.57 11.034-2.272 20.769 4.543 28.882 5.192 6.166 10.385 12.332 15.577 18.173 4.868 5.517 10.06 11.358 14.928 17.524 11.358 13.63 16.226 26.286 14.928 39.916-.974 12.007-5.192 24.014-12.981 36.671-1.947 2.921-3.894 6.166-5.517 9.087-3.894 6.49-8.113 13.305-12.007 19.8-6.49 11.683-4.543 25.637 5.192 33.75a107.892 107.892 0 0 0 19.147 13.305c13.63 7.139 29.207 16.226 41.863 31.154 15.253 17.849 25.962 33.425 33.75 49.327 1.947 3.57 3.57 7.464 5.192 11.034a213.959 213.959 0 0 0 10.708 21.096c5.841 9.411 12.007 18.822 18.173 27.909 2.6 3.894 5.517 7.789 8.113 12.007.325.649.325 1.3-.324 1.623s-1.3.325-1.623-.325c-2.6-3.894-5.517-7.788-8.113-12.007-6.166-9.087-12.656-18.5-18.5-27.909-4.219-6.815-7.464-14.279-11.034-21.418-1.623-3.57-3.57-7.464-5.192-11.034-7.789-15.577-18.5-31.154-33.426-49-12.332-14.6-27.584-23.69-41.214-30.5a120.223 120.223 0 0 1-19.8-13.63c-10.385-9.087-12.656-24.339-5.517-37 3.894-6.815 8.113-13.63 12.007-20.12 1.947-2.921 3.894-6.166 5.517-9.086 7.464-12.332 11.683-24.015 12.656-35.7.974-12.656-3.57-24.988-14.279-37.969-4.868-5.841-10.06-11.683-14.928-17.2-5.192-5.841-10.709-12.007-15.577-18.173-7.464-8.762-9.087-19.471-5.192-31.154l.649-1.947c3.57-10.385 7.139-21.418 9.736-32.128a111.452 111.452 0 0 0 2.921-23.366c.649-12.981 2.272-29.531 11.034-44.784 9.736-17.2 7.139-34.075-7.464-50.625-8.113-9.087-18.5-16.551-32.777-24.015-1.947-.974-3.894-2.272-6.166-3.245-3.894-2.272-7.464-4.543-11.683-5.841-4.868-1.947-8.113-1.947-10.385-.974-1.947 1.3-3.245 4.219-3.894 9.736-1.3 9.411-3.245 18.822-11.683 25.637a25.672 25.672 0 0 1-16.226 6.166c-9.736.649-18.822-1.947-27.584-4.543-2.272-.649-4.868-1.3-7.139-1.947-8.438-2.272-15.9-.974-22.067 3.57a212.53 212.53 0 0 1-39.916 24.339c-4.868 2.272-10.06 4.543-14.928 6.49-6.49 2.921-13.305 5.841-19.8 9.087-7.464 3.57-14.6 7.788-21.743 11.683-2.921 1.623-5.517 3.245-8.438 4.543-10.06 5.517-20.769 7.139-30.18 7.789l-1.947.324c-13.954 1.3-28.558 2.6-41.214 9.736-8.762 4.868-14.928 10.709-18.173 17.2-6.815 13.63-3.894 23.365 9.411 31.154 9.087 5.517 18.822 10.06 28.233 14.928l5.841 2.921c18.822 9.411 39.267 19.471 60.361 29.531a148.009 148.009 0 0 0 50.95 13.63c17.849 1.623 33.75 3.245 49 4.868 9.736.974 15.9 5.841 19.471 15.577a550.705 550.705 0 0 0 22.392 51.274c1.3 2.6 2.6 4.868 3.57 7.139 5.517 10.709 11.358 22.067 14.928 33.75 4.543 14.6 2.921 25.313-4.868 34.075-2.921 3.245-5.841 6.49-9.087 8.438-25.313 15.253-46.406 24.015-67.825 28.233-12.332 2.272-24.664 3.245-36.671 4.219-2.6.325-5.192.325-7.788.649l-3.57.325c-12.332.974-24.988 1.947-35.7 9.411-7.464 5.192-8.113 7.789-4.219 15.577 0 .325.325.649.325.974s0 .649.324.649c4.219 6.166 8.438 12.332 12.332 18.5 10.385 15.9 21.418 32.452 32.777 48.029 5.841 7.789 13.305 14.6 21.094 21.094l.649.649c10.385 9.087 17.849 19.471 22.067 32.128a1.185 1.185 0 0 1-.649 1.623c1.314 1.941.989 1.941.989 1.941z" class="cls-3" data-name="Path 419" transform="translate(-136.029 -191.147)"/>
            </g>
            <g id="Group_208" data-name="Group 208" transform="translate(1.666 523.834)">
                <path id="Path_420" d="M149.455 477.551c-11.683 0-22.716-4.543-33.426-13.954A75.743 75.743 0 0 1 102.4 448.02c-4.543-7.139-5.517-15.252-5.517-21.743v-19.471c-.325-6.49-2.6-11.358-6.49-13.954-4.219-2.921-9.736-2.921-15.9-.649-12.007 4.543-18.822 14.279-22.392 30.829l-.649 3.57c-1.3 6.815-2.921 13.63-6.166 19.8-6.815 12.981-20.12 16.551-32.128 18.5l-7.788.974c-1.3 0-2.272.325-3.57.325-.649 0-1.3-.325-1.3-.974s.325-1.3.974-1.3c1.3 0 2.272-.325 3.57-.325a63.833 63.833 0 0 0 7.788-.974c11.358-1.947 24.015-5.192 30.18-17.2 2.921-5.841 4.543-12.656 5.841-19.147l.649-3.57c2.6-12.007 7.788-26.286 24.015-32.777 6.815-2.6 13.305-2.272 18.173.974s7.464 8.762 7.788 16.226V426.6c.325 9.087 1.947 15.577 5.192 20.445a95.271 95.271 0 0 0 13.306 15.255c15.9 14.279 33.426 17.2 51.923 8.762 19.471-8.762 40.565-17.849 62.957-23.69 20.769-5.517 41.214-10.709 62.308-12.007a58.227 58.227 0 0 0 18.5-4.219c11.683-4.219 15.577-11.683 12.981-23.365-4.219-17.524-14.928-31.8-34.724-46.406-16.226-12.007-36.022-19.147-61.983-22.067-12.007-1.3-23.69 0-35.048 1.3-3.245.325-6.815.649-10.06.974a115.88 115.88 0 0 1-25.637-.649c-15.9-1.623-23.69-13.305-29.531-24.339l-7.788-15.252c-7.139-13.954-14.6-28.233-21.743-42.188C91.69 242.6 80.657 230.591 66.7 223.127c-19.471-10.709-34.724-22.716-46.082-37-4.219-5.517-8.762-10.709-13.305-15.9-1.947-2.272-4.219-4.868-6.166-7.139a1.449 1.449 0 0 1 0-1.623 1.448 1.448 0 0 1 1.623 0c1.947 2.272 4.219 4.868 6.166 7.139 4.543 5.192 9.087 10.385 13.305 15.9 11.034 13.954 25.962 25.962 45.108 36.346 14.6 7.788 25.637 19.8 34.4 37 7.139 13.954 14.6 28.233 21.743 42.188l7.788 15.253c5.517 10.385 12.981 21.418 27.584 22.716 9.736.974 17.849 1.3 25.313.649 3.245-.325 6.815-.649 10.06-.974 11.683-1.3 23.69-2.6 35.7-1.3 26.286 2.921 46.406 10.06 63.282 22.392 12.656 9.411 29.856 24.339 35.373 47.7q4.868 19.471-14.6 26.286c-6.815 2.272-13.305 3.894-19.147 4.219-20.769 1.3-41.214 6.49-61.983 12.007-22.067 5.841-43.161 14.928-62.632 23.69a45.163 45.163 0 0 1-20.775 4.875z" class="cls-3" data-name="Path 420" transform="translate(-.5 -161.225)"/>
            </g>
            <g id="Group_209" data-name="Group 209" transform="translate(-.019 834.51)">
                <path id="Path_421" d="M2.639 582.262a2.754 2.754 0 0 1-2.6-2.272 2.14 2.14 0 0 1 2.272-2.6 43.971 43.971 0 0 1 6.49-.649c11.683-1.3 23.69-2.6 35.373-6.166 14.928-4.219 24.339-13.954 30.18-30.18 1.623-4.868 3.245-10.06 4.543-14.928 1.623-5.517 3.245-11.358 5.192-16.875.974-2.6 1.947-5.517 2.921-8.113 7.139-19.8 14.279-40.24 30.829-55.493 6.815-6.166 14.6-11.034 22.716-15.9a159.5 159.5 0 0 1 14.6-7.788c9.411-4.868 19.147-10.06 27.909-16.875 11.358-8.762 19.8-20.445 25.637-36.346 2.921-7.789 5.192-15.577 7.789-23.365l2.921-9.736c5.192-16.226 15.577-25.637 30.5-28.233 13.63-2.272 21.743-9.736 24.988-23.365a38.844 38.844 0 0 0 .649-13.954c-.325-2.272-2.272-3.894-6.49-5.192-5.841-1.947-11.683-1.947-18.5-1.3-13.63 1.3-27.909 4.868-43.81 10.709a43.341 43.341 0 0 0-5.841 2.272c-7.139 2.6-14.279 5.192-21.094 8.438-22.716 10.709-44.135 8.762-65.878-6.166l-2.6-1.622c-7.788-5.192-15.577-10.709-24.664-12.007-7.788-.974-15.577-1.947-22.716 0-14.6 3.894-29.207 8.762-43.161 13.63l-14.6 4.868c0 .325-.325.649-.649.974a2.873 2.873 0 0 1-3.57.649c-1.3-.649-1.3-2.272-.649-3.57a.318.318 0 0 1 .325-.325 3.881 3.881 0 0 1 2.272-2.272c5.192-1.623 10.385-3.245 15.252-5.192 14.279-4.868 28.882-9.736 43.486-13.63 7.788-1.947 16.226-1.3 24.664-.325 10.385 1.3 18.822 7.139 26.935 12.656l2.6 1.622c20.12 13.63 40.241 15.577 61.01 5.841q10.709-4.868 21.418-8.762a43.333 43.333 0 0 0 5.841-2.272c16.226-6.166 30.829-9.736 45.108-11.034 6.49-.649 13.305-.974 20.769 1.623 4.219 1.3 9.087 3.57 9.736 9.086s.649 11.034-.649 15.577c-3.894 15.253-13.63 24.339-28.882 26.935-12.981 1.947-21.743 10.385-26.611 24.664l-2.921 9.736c-2.272 7.788-4.868 15.9-7.788 23.365-6.166 16.875-14.928 29.207-27.26 38.618-9.087 6.815-18.822 12.007-28.558 17.2-4.868 2.6-9.736 5.192-14.279 7.789a120.845 120.845 0 0 0-22.067 15.252c-15.577 14.279-22.716 34.4-29.531 53.546-.974 2.6-1.947 5.517-2.921 8.113-1.947 5.517-3.57 11.034-5.192 16.551-1.3 5.192-2.921 10.385-4.543 15.253-6.166 17.524-17.2 28.558-33.426 33.1-12.007 3.57-24.339 4.868-36.022 6.166-2.921 1.948-5.192 1.948-7.464 2.272z" class="cls-3" data-name="Path 421" transform="translate(.019 -256.959)"/>
            </g>
            <g id="Group_210" data-name="Group 210" transform="translate(1.747 25.51)">
                <path id="Path_422" d="M1.742 323.855a1.192 1.192 0 0 1-.974-.325 1.474 1.474 0 0 1 0-1.623l2.921-2.921c2.272-2.272 4.219-4.543 6.49-6.49 11.683-10.709 19.147-24.664 23.041-44.459a148.471 148.471 0 0 0 2.272-28.237 142.278 142.278 0 0 0-1.3-16.226c-.325-3.57-.974-7.464-1.3-11.034l-.325-2.921a97.64 97.64 0 0 1-.325-19.471 18.233 18.233 0 0 1 7.788-12.332 22.472 22.472 0 0 1 17.2-2.921c26.611 7.139 53.546 6.49 74.315 5.517 11.358-.649 22.716-2.921 33.75-5.192 3.57-.649 7.464-1.623 11.034-2.272a188.117 188.117 0 0 0 20.445-5.192c9.736-3.245 16.875-9.736 20.445-19.471 4.868-12.981-.649-23.69-7.464-33.75-6.166-9.087-14.928-16.551-26.935-23.041-17.2-9.411-29.531-24.339-38.293-47.055a149.083 149.083 0 0 0-11.683-22.392C125.709 10.693 115 7.123 100.4 10.693 86.442 13.938 73.786 21.4 62.1 32.435c-8.435 8.113-15.574 17.525-22.714 26.611l-.325 1.623c-8.438 10.709-15.9 18.822-26.611 24.664A48.852 48.852 0 0 1 5.312 88.9l-2.921 1.625a1.185 1.185 0 0 1-1.623-.649 1.185 1.185 0 0 1 .649-1.623l2.921-1.623a68.67 68.67 0 0 1 6.815-3.57c10.06-5.517 17.524-13.305 25.637-24.015l.974-.974c7.139-9.087 14.6-18.5 23.041-26.611C72.812 20.1 86.117 12.64 100.072 9.07c15.252-3.894 27.26.325 35.048 12.656 4.868 7.788 9.087 15.252 12.007 22.716 8.762 22.068 20.773 36.347 37.32 45.758 12.332 6.815 21.418 14.6 27.584 23.69 7.139 10.385 13.305 22.067 7.788 36.022-3.894 10.06-11.683 17.2-22.067 20.769-6.815 2.272-13.63 3.894-20.769 5.517-3.57.649-7.464 1.3-11.034 2.272-11.034 2.272-22.716 4.543-34.075 5.192-20.445.649-47.7.974-74.64-6.166a19.5 19.5 0 0 0-15.252 2.6 15.552 15.552 0 0 0-6.814 10.704 91.258 91.258 0 0 0 .325 18.822l.325 2.921c.325 3.57.649 7.464 1.3 11.034.649 5.517 1.3 11.034 1.623 16.551a152.047 152.047 0 0 1-2.272 28.558c-3.894 20.12-11.683 34.724-23.69 45.757a61.275 61.275 0 0 0-6.49 6.49l-2.921 2.921a2.533 2.533 0 0 0-1.626.001z" class="cls-3" data-name="Path 422" transform="translate(-.525 -7.668)"/>
            </g>
            <g id="Group_211" data-name="Group 211" transform="translate(1.341 1.274)">
                <path id="Path_423" d="M1.7 409.745c-.649 0-.974-.324-1.3-.974 0-.649.325-1.3.974-1.3l1.947-.325c1.623-.325 2.921-.649 4.543-.974 10.385-1.947 20.12-3.894 25.962-13.63 3.245-5.192 6.166-10.385 9.411-15.577s6.49-10.385 9.411-15.9c9.411-15.9 12.656-33.426 14.6-48.678a93.641 93.641 0 0 1 1.3-9.411c1.3-10.385 2.6-21.094 4.868-31.478 4.219-19.471 14.279-30.18 31.154-32.777l3.245-.649a124.1 124.1 0 0 1 22.067-2.272 183.886 183.886 0 0 0 45.108-6.166l1.947-.649c12.332-3.245 24.988-6.49 36.346-12.007 15.577-7.464 27.909-21.418 36.022-41.214 5.192-12.007 7.139-22.067 6.166-31.478a77.454 77.454 0 0 0-9.087-30.18c-3.894-7.139-8.113-13.954-12.007-20.769-4.219-7.139-8.762-14.928-12.656-22.392-2.921-5.517-3.57-10.385-2.272-14.279s4.543-6.815 9.411-8.762l1.947-.974c4.219-1.623 8.438-3.57 12.981-4.543 6.49-1.623 13.305-2.921 19.8-3.894 5.517-.974 10.709-1.947 16.226-3.245 5.841-1.3 8.113-4.219 7.788-10.06-.325-5.517-.974-11.034-1.623-16.551a53.066 53.066 0 0 1-.649-7.139c0-.649.325-1.3.974-1.3s1.3.325 1.3.974a53.066 53.066 0 0 1 .649 7.139c.649 5.517 1.3 11.034 1.623 16.551.324 7.138-2.6 11.038-9.739 12.338-5.517 1.3-10.709 2.272-16.226 3.245-6.49 1.3-13.305 2.6-19.8 3.894a96.453 96.453 0 0 0-12.656 4.219l-1.947.974c-4.219 1.623-6.815 4.219-7.788 7.139-1.3 3.245-.325 7.788 1.947 12.332l12.659 22.387c3.894 6.815 8.113 13.954 12.007 21.094a72.365 72.365 0 0 1 9.411 31.154c.649 9.736-1.3 20.12-6.49 32.452-8.437 20.445-21.094 34.4-37.32 42.512-11.683 5.517-24.339 9.087-36.671 12.332l-1.947.649a174.255 174.255 0 0 1-45.757 6.166c-7.139 0-14.6 1.3-21.418 2.272l-3.245.649c-15.577 2.272-24.988 12.656-28.882 30.829-2.272 10.385-3.57 21.094-4.868 31.154a93.643 93.643 0 0 1-1.3 9.411c-1.947 15.252-5.517 33.426-14.928 49.652a408.9 408.9 0 0 0-9.411 15.9C42.263 382.81 39.342 388 36.1 393.194c-6.169 10.706-17.2 12.657-27.587 14.928-1.623.325-2.921.649-4.543.974l-2.272.649z" class="cls-3" data-name="Path 423" transform="translate(-.4 -.2)"/>
            </g>
            <g id="Group_212" data-name="Group 212" transform="translate(1.255 862.042)">
                <path id="Path_424" d="M1.758 541.8c-.649 0-.974-.324-1.3-.973s.325-1.3.974-1.623c3.245-.974 6.49-1.623 10.06-2.6 7.139-1.947 14.928-3.57 21.743-6.49 14.6-5.841 24.988-17.849 32.452-37 9.087-23.365 14.928-41.539 18.173-59.387 3.57-17.849 14.928-29.856 35.7-36.671 15.577-5.192 27.584-11.358 37.644-19.147 18.822-14.928 27.584-36.022 25.962-62.308-.649-8.438-5.192-13.954-12.981-15.577-7.464-1.623-17.524-3.57-27.26-5.841-10.385-2.272-19.8-7.139-28.882-11.683l-14.6-6.815-.325-.325c-7.788-3.245-15.577-6.49-23.365-7.139-15.577-1.623-36.671 6.815-43.161 23.041-2.921 6.815-3.57 14.279-2.272 22.392.974 6.49 2.6 12.981 3.894 19.147s2.921 12.332 3.894 18.822c.974 7.464 2.6 18.5-7.788 24.015-4.219 2.272-9.411 3.245-14.6 3.894-.974 0-1.947.324-2.921.324a59.983 59.983 0 0 1-7.464.325H2.082a1.3 1.3 0 1 1 0-2.6h3.246c2.6 0 4.868.325 7.139-.325a8.983 8.983 0 0 1 2.921-.325c4.868-.649 9.736-1.623 13.63-3.57 8.113-4.219 7.788-12.656 6.49-21.418a187.662 187.662 0 0 0-3.894-18.5q-2.434-9.736-3.894-19.471a44.082 44.082 0 0 1 2.6-23.69c7.139-17.2 29.207-26.286 45.757-24.664 8.438.649 16.226 4.219 24.015 7.464l.325.325c4.868 1.947 9.736 4.543 14.6 6.815 9.087 4.543 18.5 9.087 28.558 11.358 9.736 2.272 19.8 4.219 27.26 5.841 8.762 1.947 14.279 8.438 14.928 17.849 1.947 26.935-7.139 48.678-26.935 64.255-10.06 8.113-22.392 14.279-38.293 19.471-19.8 6.49-30.5 17.524-34.075 34.724-3.57 18.173-9.087 36.671-18.5 60.036-7.788 19.8-18.5 32.128-34.075 38.293a132.17 132.17 0 0 1-22.067 6.49c-3.245.974-6.49 1.623-10.06 2.6z" class="cls-3" data-name="Path 424" transform="translate(-.373 -265.443)"/>
            </g>
            <g id="Group_213" data-name="Group 213" transform="translate(1.747 2.438)">
                <path id="Path_425" d="M1.742 383.3a1.192 1.192 0 0 1-.974-.325 1.474 1.474 0 0 1 0-1.623l5.192-5.192 10.385-10.385c21.094-22.067 33.1-49.652 36.346-85.024 1.3-12.656 2.6-25.637 4.868-38.618 2.6-14.279 10.06-22.067 24.015-24.339a149.124 149.124 0 0 1 35.048-1.947 233.394 233.394 0 0 0 64.58-7.139c17.524-4.219 32.777-9.087 43.81-22.067 15.252-18.173 17.2-38.618 5.841-57.765-8.113-13.954-19.147-26.286-34.075-37.969-11.034-8.762-22.067-18.822-26.286-33.75-2.921-10.385-4.543-21.094 3.57-30.829 5.841-6.815 13.954-9.411 21.418-11.358l3.895-.97c12.332-3.245 25.313-6.815 36.671-13.305a1.427 1.427 0 0 1 1.623.325 1.427 1.427 0 0 1-.325 1.623c-11.683 6.49-24.664 10.06-37.32 13.63l-3.57.974c-6.815 1.947-14.6 4.543-20.12 10.709-7.464 8.762-5.841 18.822-3.245 28.558 3.894 14.279 14.6 24.015 25.313 32.452 14.928 11.683 26.286 24.339 34.724 38.618 12.007 20.12 9.736 41.539-6.166 60.685-11.358 13.63-26.935 18.5-45.108 22.716-22.067 5.517-44.135 8.113-65.553 7.139a191 191 0 0 0-34.724 1.947c-12.656 2.272-19.471 9.087-21.743 22.392-2.272 12.656-3.57 25.637-4.868 38.293-3.57 35.7-15.577 63.931-37 86.647a156.758 156.758 0 0 1-10.385 10.385l-5.192 5.192c.004.32-.321.32-.645.32z" class="cls-3" data-name="Path 425" transform="translate(-.525 -.559)"/>
            </g>
            <g id="Group_214" data-name="Group 214" transform="translate(580.826 1019.606)">
                <path id="Path_426" d="M247.225 480.813c-.649 0-.974-.325-1.3-.974-2.6-17.2-11.683-32.452-27.584-46.406-13.954-12.656-28.882-28.233-36.671-49.327q-8.275-22.879 8.762-32.128c7.139-3.894 15.252-6.49 23.365-9.086l22.392-6.815c10.06-2.921 20.12-5.841 30.18-9.411 21.418-7.139 39.916-12.332 59.712-12.656 12.981-.325 22.392 5.192 29.531 16.875l6.815 11.683c1.623 2.921 3.245 5.841 5.192 9.086 4.219 7.14 10.709 10.709 18.822 10.06 7.139-.649 14.6-1.3 21.743-2.272h.649a42.324 42.324 0 0 1 29.207 6.815c14.928 9.736 27.26 24.339 38.293 46.082 7.788 15.252 15.252 30.829 22.392 46.082 3.245 6.815 6.49 13.305 9.736 20.12a1.236 1.236 0 0 1-2.272.974c-3.245-6.815-6.49-13.305-9.736-20.12-7.139-15.253-14.6-30.829-22.392-46.082-10.709-21.094-22.716-35.373-37.32-45.108-8.437-5.517-17.524-7.464-27.584-6.49h-.649c-7.139.974-14.6 1.623-21.743 2.272-9.411.649-16.551-2.921-21.094-11.358-1.623-2.921-3.57-5.841-5.192-9.086l-6.815-11.683c-6.49-10.709-14.928-15.577-26.286-15.577h-.974c-19.471.325-37.644 5.192-58.738 12.332-10.06 3.245-20.12 6.49-30.18 9.411l-22.386 6.813c-8.113 2.6-15.9 5.192-22.716 8.762-10.385 5.517-12.656 14.928-7.464 28.882 7.464 20.445 22.392 35.7 36.022 48.029 16.226 14.6 25.313 30.18 28.233 48.029-.649 1.622-.973 2.271-1.947 2.271z" class="cls-3" data-name="Path 426" transform="translate(-178.966 -313.996)"/>
            </g>
            <g id="Group_215" data-name="Group 215" transform="translate(46.236 978.754)">
                <path id="Path_427" d="M266.924 509.077a1.4 1.4 0 0 1-1.3-1.3v-23.04c.649-20.769-3.245-40.565-7.464-59.387a234.407 234.407 0 0 1-4.219-25.637 70.279 70.279 0 0 0-1.3-8.113c-.325-2.921-.974-6.166-1.3-9.087-1.947-14.928-3.894-30.5-12.332-44.135-7.139-12.007-13.63-22.067-23.365-29.856-6.815-5.517-13.305-5.841-21.094-1.623-8.762 4.868-17.849 9.411-26.611 14.279-8.762 4.543-17.524 9.411-26.611 14.279-2.272 1.3-4.868 2.6-7.139 3.894-8.113 4.219-16.551 8.762-24.664 13.954C90.71 365.314 77.4 383.811 69.94 408.151a337.665 337.665 0 0 0-8.44 34.723c-.649 2.6-.974 5.192-1.623 7.789-2.921 13.954-6.815 28.233-17.849 38.943-5.192 5.192-11.683 9.411-17.849 13.63-2.6 1.947-5.517 3.57-8.113 5.517-.649.325-1.3.325-1.623-.325s-.325-1.3.325-1.623c2.6-1.947 5.517-3.894 8.113-5.841 6.166-4.219 12.332-8.438 17.524-13.305 10.385-10.06 14.279-24.014 17.2-37.644.649-2.6.974-5.192 1.623-7.789 2.6-11.683 5.192-23.69 8.438-35.048 7.464-24.988 21.094-43.81 40.565-56.142 8.113-5.192 16.551-9.736 24.664-13.954 2.272-1.3 4.868-2.6 7.139-3.894 8.762-4.868 17.524-9.411 26.611-14.279s17.849-9.411 26.611-14.279 16.551-4.219 24.015 1.947c10.06 8.113 16.551 18.173 24.015 30.5 8.438 13.954 10.385 29.856 12.656 45.108a87.475 87.475 0 0 0 1.3 9.087 70.275 70.275 0 0 0 1.3 8.113c1.3 8.438 2.272 17.2 4.219 25.637 4.219 18.822 8.438 39.267 7.788 60.036-.325 5.193 0 10.709 0 15.9v7.14a2.759 2.759 0 0 1-1.625.979z" class="cls-3" data-name="Path 427" transform="translate(-14.234 -301.407)"/>
            </g>
            <g id="Group_216" data-name="Group 216" transform="translate(100.644 1014.622)">
                <path id="Path_428" d="M191.313 484.261a1.4 1.4 0 0 1-1.3-1.3c.325-3.894.649-8.113 1.3-12.007.974-8.762 1.623-17.849 2.272-26.935.325-3.57.325-7.14.649-10.385.974-13.305 1.947-27.26 1.3-40.89-.649-18.5-2.921-33.426-7.464-46.406-6.166-18.5-15.9-28.558-30.5-30.829a74.7 74.7 0 0 0-23.69.974 137.887 137.887 0 0 0-75.62 43.487c-10.709 11.683-17.2 26.935-19.8 45.433-1.623 12.332-2.6 24.988-3.245 37.32l-.325 8.113-.974 22.392c0 3.245-.325 6.815-.325 10.06a1.3 1.3 0 0 1-2.6 0c0-3.245.325-6.815.325-10.06.325-7.464.325-14.928.974-22.392l.325-8.113c.649-12.332 1.623-25.313 3.245-37.644q3.894-28.233 20.445-46.731a139.285 139.285 0 0 1 76.911-44.135c9.087-1.947 17.524-2.272 24.664-.974 15.577 2.6 25.962 12.981 32.452 32.452 4.219 13.305 6.815 28.233 7.464 47.056.649 13.63-.324 27.584-1.3 41.214-.325 3.57-.649 7.14-.649 10.385-.649 9.087-1.623 18.173-2.272 26.935-.325 3.894-.649 8.113-1.3 12.007.336.649-.313.973-.962.973z" class="cls-3" data-name="Path 428" transform="translate(-31 -312.46)"/>
            </g>
            <g id="Group_218" data-name="Group 218" transform="translate(610.199 1045.155)">
                <path id="Path_430" d="M246.05 463.137c-.649 0-.974-.325-1.3-.974-.974-2.6-1.623-4.868-2.6-7.464a142.742 142.742 0 0 0-5.841-16.551c-6.166-14.279-15.9-25.637-25.637-35.7-7.139-7.464-14.6-15.577-19.147-25.637-6.49-14.6-4.219-23.69 8.762-33.426a63 63 0 0 1 16.875-8.438l4.868-1.623c16.875-6.166 34.075-12.332 52.9-11.358 11.034.325 19.471 3.894 26.286 10.385 16.226 15.9 21.743 36.022 16.226 60.361-3.245 14.6-5.841 27.584-5.192 41.214.325 6.49.649 13.305.974 19.8l.325 8.438a1.3 1.3 0 0 1-2.6 0l-.325-8.438c-.325-6.49-.649-13.305-.974-19.8-.649-13.954 1.947-26.935 5.192-41.863 5.192-23.366 0-42.837-15.577-58.089-6.166-6.166-14.279-9.411-24.664-9.736-18.173-.974-35.373 5.517-51.923 11.358l-4.868 1.623a62.879 62.879 0 0 0-16.226 8.113c-12.007 8.762-13.954 16.875-8.113 30.18 4.543 9.736 11.683 17.849 18.822 24.988 10.06 10.385 20.12 22.067 26.286 36.346a173.411 173.411 0 0 1 5.841 16.875 67.959 67.959 0 0 0 2.6 7.464 1.185 1.185 0 0 1-.649 1.623z" class="cls-3" data-name="Path 430" transform="translate(-188.018 -321.869)"/>
            </g>
            <g id="Group_219" data-name="Group 219" transform="translate(336.895 1089.584)">
                <path id="Path_431" d="M106.072 433.7a1.192 1.192 0 0 1-.974-.325 2.25 2.25 0 0 1-.974-3.245l.649-1.623a26.826 26.826 0 0 1 2.272-4.219c10.709-20.12 28.882-27.584 51.274-21.418 3.57.973 7.464 2.272 11.034 3.245a184.541 184.541 0 0 0 19.147 5.192c14.928 3.245 29.207 5.517 43.81 2.6 13.305-2.921 20.769-9.411 23.365-20.12 1.947-7.464 2.921-15.252 3.894-23.041v-.974c.325-2.272.325-4.543.649-7.14a43.255 43.255 0 0 1 .974-9.086c1.3-7.14 4.219-11.683 9.411-14.6 7.139-4.219 14.928-4.543 24.664-.649 15.252 5.841 24.014 18.5 32.777 31.479a409.208 409.208 0 0 0 23.69 34.075c4.543 5.841 9.411 11.683 14.6 17.2 2.272 2.6 4.543 4.868 6.49 7.464a2.535 2.535 0 1 1-3.894 3.245c-2.272-2.6-4.219-4.868-6.49-7.464-4.868-5.517-10.06-11.358-14.6-17.524-7.789-10.06-15.577-21.418-23.69-34.4-8.438-12.981-16.551-24.339-30.18-29.856-8.113-3.245-14.6-2.921-20.445.325-3.894 2.272-5.841 5.841-6.815 11.358a35.629 35.629 0 0 0-.649 8.438 57.944 57.944 0 0 1-.649 7.464v.974a196.328 196.328 0 0 1-4.219 23.366c-2.921 12.656-12.332 20.445-27.26 23.69-15.577 3.245-30.5.649-46.082-2.6-6.815-1.3-13.305-3.57-19.471-5.517-3.57-.974-7.139-2.272-10.709-3.245-19.8-5.517-36.022.974-45.757 18.822a26.821 26.821 0 0 1-2.272 4.219l-.974 1.622c-.974 1.616-1.623 2.268-2.596 2.268z" class="cls-3" data-name="Path 431" transform="translate(-103.8 -335.559)"/>
            </g>
            <g id="Group_220" data-name="Group 220" transform="translate(1.503 554.744)">
                <path id="Path_432" d="M1.91 388.341h-.649a1.185 1.185 0 0 1-.649-1.623 1.192 1.192 0 0 0 .325-.974 4.459 4.459 0 0 1 1.623-2.6l7.464-7.789c9.411-9.736 18.822-19.8 28.882-29.531a94.609 94.609 0 0 1 15.577-11.358c7.139-4.543 15.252-6.166 22.716-8.113 3.245-.649 6.166-1.3 9.411-2.272 11.683-3.245 16.875-8.438 17.2-17.2.325-6.166 0-11.358-1.3-15.577l-.649-2.6c-2.921-10.385-6.166-21.094-11.034-30.829-7.139-14.6-15.577-29.531-30.5-38.942a416.392 416.392 0 0 1-34.4-24.339c-6.166-4.543-11.683-10.06-17.524-14.928-2.6-2.272-4.868-4.543-7.464-6.815a.92.92 0 0 1 0-1.623.919.919 0 0 1 1.623 0c2.6 2.272 5.192 4.543 7.464 6.815 5.517 5.192 11.358 10.385 17.2 14.928A405.21 405.21 0 0 0 61.3 216.994c15.577 9.736 24.015 24.988 31.478 39.916 4.868 9.736 8.113 20.769 11.358 31.154l.649 2.6c1.3 4.543 1.623 9.736 1.3 16.226-.974 12.656-10.709 17.2-19.147 19.471-3.245.974-6.49 1.623-9.411 2.272-7.464 1.623-15.252 3.57-22.067 7.788-4.543 2.921-10.709 6.49-15.252 11.034a1214.854 1214.854 0 0 0-28.558 29.531l-7.464 7.788a10.8 10.8 0 0 0-.974 1.947c-.325.325-.325.974-.649 1.3.321-.004-.004.32-.653.32z" class="cls-3" data-name="Path 432" transform="translate(-.45 -170.75)"/>
            </g>
            <g id="Group_221" data-name="Group 221" transform="translate(795.767 1102.521)">
                <path id="Path_433" d="M246.5 423.448a1.656 1.656 0 0 1-1.3-1.623c.325-.974.325-1.947.649-2.921a43.251 43.251 0 0 1 1.623-6.166c3.57-9.411 5.192-18.5 4.543-27.26l-.325-4.543c-.325-6.166-.974-12.981-.649-19.147 0-9.411 4.219-16.226 12.007-20.12 7.464-3.57 15.252-2.6 22.392 2.6 14.279 10.385 16.875 25.962 17.524 38.618.649 9.411 1.947 19.147 8.762 27.584 1.623 2.272 3.57 4.543 4.868 6.815.649.974 1.3 1.947 2.272 3.245.325.649.325 1.3-.325 1.623s-1.3.325-1.623-.325a65.941 65.941 0 0 0-2.272-3.245l-4.868-6.815c-7.139-9.087-8.437-19.147-9.086-29.207-.649-12.981-3.245-27.26-16.551-37-6.49-4.868-13.305-5.517-20.12-2.272s-10.385 9.411-10.385 17.849c0 6.49.325 12.656.649 19.147l.325 4.543c.649 9.411-.974 18.5-4.868 28.233a39.242 39.242 0 0 0-1.623 5.841c-.325.973-.325 1.947-.649 2.921.002 1.301-.323 1.625-.97 1.625z" class="cls-3" data-name="Path 433" transform="translate(-245.2 -339.546)"/>
            </g>
            <g id="Group_222" data-name="Group 222" transform="translate(1.341 996.579)">
                <path id="Path_434" d="M2.023 432.814c-.325 0-.974-.325-.974-.649a1.185 1.185 0 0 1 .649-1.623l3.245-1.622c2.921-1.3 5.841-2.921 8.438-4.219 21.743-11.034 35.373-29.856 40.565-56.142 2.6-12.981-1.3-25.637-11.683-37.32s-23.69-18.822-40.89-22.067c-.649 0-.974-.649-.974-1.3s.649-.974 1.3-.974c17.524 3.245 31.478 10.709 42.188 22.716s14.928 25.637 12.332 39.592c-5.192 26.935-19.471 46.406-41.863 57.765-2.921 1.3-5.841 2.921-8.438 4.219l-3.245 1.623z" class="cls-3" data-name="Path 434" transform="translate(-.4 -306.9)"/>
            </g>
            <g id="Group_223" data-name="Group 223" transform="translate(1.452 580.979)">
                <path id="Path_435" d="M1.621 296.2c-.325 0-.649-.325-.974-.325-.325-.649-.325-1.3.325-1.623l5.841-4.868c4.219-3.57 8.762-7.464 13.63-10.06a216.955 216.955 0 0 1 30.18-12.656c5.841-1.947 15.252-6.815 13.305-18.173-.974-6.166-2.6-12.332-5.841-17.2-13.63-20.12-33.426-33.75-52.9-47.38l-4.215-2.92a1.13 1.13 0 0 1-.325-1.623 1.13 1.13 0 0 1 1.623-.325l4.219 2.921C25.96 195.6 46.08 209.552 60.035 230c3.565 5.189 4.865 11.68 6.165 18.17 1.623 9.411-3.57 17.2-14.928 21.094A234.544 234.544 0 0 0 21.417 281.6a75.337 75.337 0 0 0-12.981 9.736L2.595 296.2z" class="cls-3" data-name="Path 435" transform="translate(-.434 -178.834)"/>
            </g>
            <g id="Group_224" data-name="Group 224" transform="translate(1.747 1015.188)">
                <path id="Path_436" d="M1.742 401.117a1.192 1.192 0 0 1-.974-.325 1.449 1.449 0 0 1 0-1.623 34.384 34.384 0 0 1 3.894-3.245c6.815-5.841 12.981-11.358 17.2-19.471 10.385-20.12 5.841-41.863-12.007-55.168-1.947-1.623-4.219-2.921-6.166-4.543l-2.6-1.947a1.13 1.13 0 0 1-.325-1.623 1.13 1.13 0 0 1 1.623-.325l2.6 1.947c1.947 1.623 4.219 2.921 6.166 4.543 18.822 14.279 24.015 37 12.656 58.414-4.219 8.438-11.034 14.279-17.849 20.12-1.3.974-2.6 2.272-3.894 3.245.325-.323 0 .001-.324.001z" class="cls-3" data-name="Path 436" transform="translate(-.525 -312.634)"/>
            </g>
            <g id="Group_225" data-name="Group 225" transform="translate(1.214 430.812)">
                <path id="Path_437" d="M5.68 191.751H1.786a1.3 1.3 0 1 1 0-2.6h6.49c9.411-.325 13.63-3.245 15.9-10.385 2.272-7.464 1.3-14.928-.325-20.445-2.6-11.358-10.385-19.147-22.716-23.365a1.185 1.185 0 0 1-.649-1.623 1.185 1.185 0 0 1 1.623-.649Q22.069 139.5 26.45 158c1.3 5.841 2.6 13.954 0 22.067s-7.788 11.683-18.173 12.007a7.143 7.143 0 0 0-2.597-.323z" class="cls-3" data-name="Path 437" transform="translate(-.361 -132.561)"/>
            </g>
            <g id="Group_226" data-name="Group 226" transform="translate(1.503 2.445)">
                <path id="Path_438" d="M1.91 63.97a1.192 1.192 0 0 1-.974-.325.919.919 0 0 1 0-1.623C9.05 53.26 14.567 42.551 20.083 32.167l.325-.649c4.543-9.087 12.332-16.226 23.041-21.743A134.242 134.242 0 0 1 57.4 3.284c1.947-.974 4.219-1.623 6.166-2.6a1.185 1.185 0 0 1 1.623.649 1.185 1.185 0 0 1-.649 1.623 49.929 49.929 0 0 1-6.166 2.6c-4.54 1.944-9.408 3.894-13.951 6.166C34.038 16.914 26.9 23.729 22.355 32.491l-.325.649C16.514 43.849 11 54.558 2.559 63.645c0 .325-.324.325-.649.325z" class="cls-4" data-name="Path 438" transform="translate(-.45 -.561)"/>
            </g>
            <g id="Group_227" data-name="Group 227" transform="translate(1.666 220.847)">
                <path id="Path_439" d="M1.8 144.9a1.656 1.656 0 0 1-1.3-1.623v-.649a6.016 6.016 0 0 1 .649-2.272C11.858 128.024 14.13 113.1 8.938 94.274 7.315 88.433 5.368 82.916 3.421 77.4a73.028 73.028 0 0 1-2.6-7.788 1.185 1.185 0 0 1 .649-1.623 1.185 1.185 0 0 1 1.623.649c.974 2.6 1.623 5.192 2.6 7.788 1.947 5.517 3.894 11.358 5.517 17.2C16.4 113.1 13.805 129 3.421 141.979a3.269 3.269 0 0 0-.325.974v.974a1.449 1.449 0 0 1-1.296.973z" class="cls-3" data-name="Path 439" transform="translate(-.5 -67.861)"/>
            </g>
            <g id="Group_229" data-name="Group 229" transform="translate(1033.103 1171.316)">
                <path id="Path_441" d="M319.521 375.2c-.325 0-.649-.325-.974-.649-.325-.649-.325-1.3.325-1.623l1.623-.974c.974-.649 2.272-1.3 3.245-1.947 20.769-13.305 40.89-12.332 55.818 3.245a1.147 1.147 0 1 1-1.622 1.623c-14.279-14.6-33.1-15.577-52.9-2.921-.974.649-2.272 1.3-3.245 1.947l-1.623.974c.002.325-.323.325-.647.325z" class="cls-3" data-name="Path 441" transform="translate(-318.334 -360.745)"/>
            </g>
            <g id="Group_230" data-name="Group 230" transform="translate(47.261 67.452)">
                <path id="Path_442" d="M75.722 134.524h-3.894c-21.743-.649-39.592-10.709-52.9-29.207a23.272 23.272 0 0 1-3.894-18.5 41.957 41.957 0 0 1 9.411-19.471C35.482 54.367 46.84 41.711 58.2 30.028c2.6-2.6 6.166-4.543 9.411-6.49a48.039 48.039 0 0 0 4.219-2.6 1.192 1.192 0 0 1 .974-.325h.325c7.464-.325 13.305 2.6 16.875 8.438a208.718 208.718 0 0 1 12.007 20.769c7.139 14.928 18.173 25.637 33.1 33.1a65.924 65.924 0 0 1 16.226 11.358c3.894 3.894 5.517 8.113 4.868 12.007s-3.894 7.139-8.762 9.411c-7.788 3.245-15.9 6.166-23.69 8.762-2.6.974-5.192 1.623-7.788 2.6a114.094 114.094 0 0 1-40.243 7.466zm-2.6-111.311c-1.3.974-2.921 1.623-4.219 2.6-3.245 1.947-6.49 3.57-8.762 6.166-11.358 11.683-22.716 24.339-33.75 37.32-4.543 5.517-7.788 11.683-8.762 18.173-.974 6.166 0 12.007 3.57 16.875 12.981 18.173 29.531 27.26 50.95 28.233 13.954.649 27.909-1.947 43.486-7.139 2.6-.974 5.192-1.623 7.788-2.6 7.789-2.6 15.9-5.517 23.365-8.762 4.219-1.947 6.815-4.543 7.139-7.464.649-2.921-.974-6.49-4.219-9.736a67.452 67.452 0 0 0-15.577-11.034c-15.577-7.788-26.935-19.147-34.4-34.4A199.263 199.263 0 0 0 88.054 31c-3.245-5.841-8.113-8.113-14.928-7.788z" class="cls-3" data-name="Path 442" transform="translate(-14.55 -20.592)"/>
            </g>
            <g id="Group_231" data-name="Group 231" transform="translate(237.356 417.959)">
                <path id="Path_443" d="M93.159 179.225c-8.113 0-14.928-3.894-18.173-11.034-4.543-9.087 0-16.551 5.517-23.041 8.438-10.385 20.769-14.279 30.829-16.551h6.168a74.49 74.49 0 0 1 12.007.649c6.166 1.3 12.332 2.921 18.173 4.543l14.6 3.894a143.293 143.293 0 0 0 21.094 3.57 54.705 54.705 0 0 0 10.385-.325c2.272-.325 4.219-.325 6.49-.649 8.762-.325 15.577 3.894 18.822 12.007 2.6 6.815 2.921 12.656.649 16.875a11.682 11.682 0 0 1-8.438 5.841c-3.894.974-8.438 0-12.656-.974l-.974-.325c-3.57-.649-7.464-1.623-11.034-2.6a115.858 115.858 0 0 0-17.849-3.57c-9.736-.974-19.147 1.3-28.558 3.57-4.219.974-8.762 1.947-13.305 2.921-3.245.649-6.815 1.3-10.06 1.947-7.139 1.3-14.6 2.6-22.067 3.245zm18.822-48.354c-9.411 2.272-21.418 5.841-29.531 15.577-4.543 5.517-9.411 12.332-5.192 20.445 3.245 6.815 9.736 10.385 17.849 9.736 7.139-.649 14.6-1.947 21.743-3.245 3.245-.649 6.815-1.3 10.06-1.947a93.309 93.309 0 0 0 12.981-2.921c9.411-2.272 19.147-4.543 29.207-3.57 6.166.649 12.332 2.272 18.5 3.57 3.57.974 7.139 1.947 10.709 2.6l.974.325c3.894.649 8.113 1.623 11.358.974a9.621 9.621 0 0 0 6.815-4.543c1.947-3.57 1.623-8.762-.974-14.6-2.921-7.139-8.762-10.709-16.226-10.385a43.985 43.985 0 0 0-6.49.649 61.8 61.8 0 0 1-11.034.325 113.239 113.239 0 0 1-21.418-3.57l-14.6-3.894c-5.841-1.623-12.007-3.245-17.849-4.543a66.7 66.7 0 0 0-11.363-.654 29.682 29.682 0 0 0-5.517-.325z" class="cls-3" data-name="Path 443" transform="translate(-73.127 -128.6)"/>
            </g>
            <g id="Group_232" data-name="Group 232" transform="translate(472.669 708.675)">
                <path id="Path_444" d="M279.541 346.423c-10.709 0-21.743-2.6-33.426-7.788-12.332-5.517-24.339-11.683-36.346-17.849-4.219-2.272-8.113-4.219-12.332-6.49-15.252-7.788-30.829-15.577-44.135-26.935-5.841-4.868-8.438-10.709-7.464-16.226s5.192-9.736 12.007-12.007c5.841-2.272 12.332-2.921 18.5-3.894l2.921-.324c2.921-.325 6.166-.649 9.087-.974 3.57-.325 7.464-.325 11.034-.974 11.034-1.947 21.094-7.464 30.829-12.332 1.947-.974 3.57-1.947 5.517-2.921 14.279-7.464 30.5-9.411 48.678-6.49 13.954 2.272 28.882 3.57 44.459-.974 14.928-4.543 32.452-9.411 50.625-9.736a75.467 75.467 0 0 0 12.007-1.3c1.947-.325 3.894-.649 5.517-.974h6.815c12.007-.649 21.418 4.543 26.611 14.928 8.438 16.551 11.358 30.5 9.411 44.459-1.3 8.438-4.868 14.928-10.385 18.5-5.192 3.245-11.358 3.57-18.173 1.3a51.514 51.514 0 0 1-6.49-2.272c-6.166-1.947-12.656-4.219-18.822-6.166-20.445-5.841-35.373-2.272-46.406 11.034a244.082 244.082 0 0 0-18.18 25.311c-6.166 9.411-12.981 14.928-21.418 17.524a56.6 56.6 0 0 1-20.441 3.57zm-10.385-113.907a70.926 70.926 0 0 0-32.128 7.464c-1.947.974-3.57 1.947-5.517 2.921-9.736 5.192-20.12 10.385-31.478 12.656-3.57.649-7.464.974-11.358 1.3-2.921.325-5.841.325-9.087.649l-2.921.325c-6.166.974-12.332 1.623-18.173 3.894s-9.736 5.841-10.385 10.385c-.974 4.543 1.623 9.736 6.49 13.954 12.981 11.034 28.558 18.822 43.486 26.611 4.219 2.272 8.438 4.219 12.332 6.49 11.683 6.166 24.014 12.332 36.022 17.849 18.822 8.113 35.7 9.736 52.248 4.219 8.113-2.6 14.279-7.788 20.12-16.551 6.49-9.736 12.007-17.849 18.5-25.637 11.683-13.954 27.909-17.524 49-11.683 6.49 1.947 12.656 3.894 19.147 6.166 2.272.649 4.219 1.623 6.49 2.272 6.166 1.947 11.683 1.623 15.9-1.3 4.868-3.245 8.438-9.087 9.411-16.875 1.947-13.305-.974-26.935-9.087-42.837q-7.3-14.6-24.339-13.63h-6.815c-1.947.325-3.57.649-5.517.974a75.542 75.542 0 0 1-12.332 1.3c-17.849.325-35.048 5.192-49.976 9.736-15.9 4.868-32.127 3.245-45.433.974a57.579 57.579 0 0 0-14.6-1.626z" class="cls-3" data-name="Path 444" transform="translate(-145.638 -218.183)"/>
            </g>
            <g id="Group_233" data-name="Group 233" transform="translate(128.539 715.122)">
                <path id="Path_445" d="M67.194 318.273a29.016 29.016 0 0 1-17.849-6.166c-4.543-3.57-10.06-10.385-9.736-21.743 0-11.358 2.921-23.041 9.087-37.32a32.268 32.268 0 0 1 19.8-18.173 264.283 264.283 0 0 1 30.18-8.762c6.815-1.623 14.279-2.921 21.094-4.219 2.921-.649 6.166-.974 9.087-1.623h.974a88.757 88.757 0 0 1 40.565 7.464c11.683 5.192 25.637 12.981 32.777 28.882 3.57 8.113.974 17.849-5.841 22.067-5.517 3.245-10.385 5.841-14.928 7.139-21.743 6.815-43.81 13.63-60.361 18.5l-5.517 1.623c-13.954 4.219-28.233 8.438-42.512 12.007-2.602-.001-4.549.324-6.82.324zm61.983-96.058c-3.245.649-6.166 1.3-9.087 1.623-6.815 1.3-13.954 2.6-20.769 4.219q-15.09 3.894-30.18 8.762a30.139 30.139 0 0 0-18.173 16.875c-6.166 13.954-8.762 24.988-8.762 36.346 0 10.385 4.868 16.551 9.087 19.8 6.165 4.86 14.927 6.81 22.067 4.86 14.279-3.57 28.558-7.789 42.512-12.007l5.517-1.623c16.551-4.868 38.618-11.358 60.361-18.5a58.13 58.13 0 0 0 14.6-6.815c5.841-3.57 8.113-12.007 4.868-19.147-6.49-15.252-20.12-22.716-31.478-27.584a88.806 88.806 0 0 0-39.591-7.139 2.512 2.512 0 0 1-.972.33z" class="cls-3" data-name="Path 445" transform="translate(-39.596 -220.17)"/>
            </g>
            <g id="Group_234" data-name="Group 234" transform="translate(168.345 736.962)">
                <path id="Path_446" d="M69.51 269.412a30.325 30.325 0 0 1-7.464-.649 11.8 11.8 0 0 1-9.087-6.166c-1.3-2.272-1.947-6.49.974-12.007s7.467-9.09 13.305-12.332c10.385-6.166 21.743-9.087 31.154-11.358h3.894c6.49 0 12.981 0 19.471 2.272 6.49 2.6 10.709 6.815 11.683 11.683.974 5.841-3.57 10.385-8.762 12.332-2.272.974-4.868 1.947-7.139 2.921-6.815 2.921-13.954 6.166-21.418 8.113-8.438 2.92-17.521 5.191-26.611 5.191zM99.366 229.5c-9.411 1.947-20.445 4.868-30.5 11.034-5.841 3.245-9.736 6.49-12.656 11.358q-2.921 5.355-.974 9.736c1.3 2.6 3.894 4.219 7.139 4.868 11.358 1.623 22.392-1.3 33.1-3.894a164.5 164.5 0 0 0 21.094-7.788c2.272-.974 4.868-1.947 7.139-2.921 4.219-1.623 8.113-5.517 7.139-9.736-.974-5.517-6.815-8.438-10.06-9.736-5.841-2.272-12.007-2.272-18.5-2.272l-2.921-.649z" class="cls-3" data-name="Path 446" transform="translate(-51.862 -226.9)"/>
            </g>
            <g id="Group_235" data-name="Group 235" transform="translate(817.147 743.128)">
                <path id="Path_447" d="M343.666 363.151a39.586 39.586 0 0 1-19.147-5.192 141.093 141.093 0 0 0-19.147-8.113l-7.789-2.921L289.8 344c-5.192-1.947-10.709-3.894-15.9-6.815-15.253-8.438-22.717-20.12-22.067-35.373.325-9.411 3.894-18.5 10.06-27.26 6.49-9.087 15.252-13.63 26.611-13.63h.649c6.815 0 13.63 1.3 20.12 2.6a59.9 59.9 0 0 0 7.464 1.3c12.981 2.272 23.365 2.6 29.856-13.954l.974-2.272c1.3-3.57 2.921-7.139 3.894-10.709 1.3-4.868 3.894-7.788 8.762-9.087h1.3c14.928 0 27.909 6.49 37.644 12.007 7.788 4.543 12.981 12.007 13.954 20.445a150.045 150.045 0 0 1 1.3 29.207c-.974 14.279-4.868 25.962-12.332 35.048-11.358 14.279-25.637 24.015-38.293 31.8-7.149 3.893-13.315 5.844-20.13 5.844zM288.5 263.2q-15.577 0-24.339 12.656c-6.166 8.438-9.411 17.2-9.736 25.962-.649 13.954 6.166 24.988 20.769 33.1a131.237 131.237 0 0 0 15.577 6.49l7.789 2.921 7.789 2.921a207.319 207.319 0 0 1 19.471 8.438c12.981 6.815 24.339 6.49 36.346-.649 12.332-7.464 26.286-17.2 37.644-31.154 7.14-9.087 11.034-19.8 12.007-33.75a122 122 0 0 0-1.3-28.558c-.974-7.788-5.517-14.279-12.656-18.5-9.411-5.517-21.743-11.683-36.346-11.683h-.649c-3.894.974-5.841 3.245-6.815 7.464a63.515 63.515 0 0 1-3.894 11.034l-.974 2.272c-7.14 18.173-19.471 17.524-32.777 15.252-2.6-.325-4.868-.974-7.464-1.3-6.49-1.3-12.981-2.6-19.471-2.6-.649-.316-.649-.316-.971-.316z" class="cls-3" data-name="Path 447" transform="translate(-251.788 -228.8)"/>
            </g>
            <g id="Group_236" data-name="Group 236" transform="translate(548.028 754.487)">
                <path id="Path_448" d="M220.913 291.038a36.805 36.805 0 0 1-8.113-.974c-13.954-3.245-26.286-11.358-40.241-25.637-5.192-5.192-4.868-12.981.649-18.822 7.788-8.113 16.551-12.656 26.935-13.305h.649c15.577.649 26.286 9.736 34.075 17.524 5.517 5.841 8.438 12.656 7.788 19.147-.974 8.438-3.894 14.928-9.087 18.5-3.568 2.594-7.787 3.567-12.655 3.567zm-20.445-56.467c-9.736.649-18.173 5.192-25.313 12.656-4.543 4.868-4.868 11.034-.649 15.252 13.63 13.954 25.637 21.743 38.942 24.988 7.464 1.947 13.63.974 18.5-2.272 4.543-3.245 7.464-9.087 8.113-16.551.649-5.841-1.947-12.332-7.139-17.2-7.139-7.464-17.524-16.226-32.452-16.875z" class="cls-3" data-name="Path 448" transform="translate(-168.86 -232.3)"/>
            </g>
            <g id="Group_238" data-name="Group 238" transform="translate(686.252 816.713)">
                <path id="Path_450" d="M217.446 271.352a5.446 5.446 0 0 1-4.546-1.952c-1.623-1.947-1.947-4.868-.649-7.789 1.947-4.868 5.841-8.113 12.007-10.06h2.272c1.3 0 2.6-.325 3.57.325l.649.324c2.272 1.3 5.192 3.245 6.166 5.517s-1.3 6.49-3.245 7.788c-3.57 1.947-8.762 4.868-14.6 6.166a3.528 3.528 0 0 0-1.624-.319zm7.464-17.524c-5.517 1.623-8.762 4.543-10.385 8.762a5.485 5.485 0 0 0 .324 5.517c.649.974 1.947 1.3 3.57.974 5.192-.974 10.385-3.894 13.63-5.841 1.3-.649 2.6-3.894 2.272-4.543-.649-1.623-3.245-3.245-5.192-4.543l-.649-.325c-.325-.325-1.3 0-1.947 0z" class="cls-3" data-name="Path 450" transform="translate(-211.453 -251.475)"/>
            </g>
            <g id="Group_239" data-name="Group 239" transform="translate(447.646 819.066)">
                <path id="Path_451" d="M303.019 450.807c-7.788 0-15.252-.649-22.716-.974l-8.438-.649c-11.034-.649-22.067-1.3-33.1-3.245-23.041-3.894-45.108-12.656-66.2-21.094l-7.464-2.921c-8.762-3.57-11.034-9.411-7.789-18.822a210.066 210.066 0 0 1 8.438-20.12c5.517-12.332 8.113-22.067 8.113-31.479.325-16.875-4.868-33.75-16.226-53.221-2.272-3.894-4.868-7.788-7.464-11.683-3.245-5.192-6.815-10.385-9.736-15.577-2.6-4.868-3.245-9.411-1.623-12.656s4.543-5.192 9.411-6.166h1.3l6.815.974c4.868.649 10.06 1.3 14.6 2.921 17.849 6.815 35.7 14.279 50.3 20.769 11.358 4.868 24.014 10.06 37.644 12.332l3.57.649c12.332 1.947 24.988 4.219 37.32 6.49 20.769 3.894 35.373 11.683 45.757 24.664 6.49 8.438 14.279 18.5 20.769 29.856a205.52 205.52 0 0 1 14.928 32.128c6.49 18.822 2.921 34.075-11.358 45.757-16.87 13.954-36.67 21.418-58.737 22.716a38.541 38.541 0 0 0-8.114-.649zM148.548 254.472q-5.841.974-7.788 4.868c-1.623 3.245 0 7.464 1.623 10.385 2.921 5.192 6.166 10.385 9.411 15.577 2.6 3.894 5.192 7.789 7.464 11.683 11.683 19.8 16.875 37 16.551 54.519 0 12.656-4.543 24.015-8.113 32.452-2.272 5.517-5.517 12.656-8.113 20.12-2.921 8.113-.974 12.656 6.49 15.577l7.464 2.921c21.094 8.437 42.837 17.2 65.878 21.094 10.709 1.947 22.067 2.6 32.777 3.245l8.438.649c10.06.649 20.12 1.3 30.18.973 21.418-1.3 40.89-8.437 57.116-22.067 13.305-10.709 16.875-25.313 10.709-42.837a214.633 214.633 0 0 0-14.6-31.8 290.7 290.7 0 0 0-20.45-29.531c-9.736-12.656-24.014-20.12-44.135-24.014-12.332-2.272-24.988-4.543-37.32-6.49l-3.57-.649c-13.954-2.272-27.26-7.464-38.293-12.332-14.928-6.49-32.452-13.954-50.3-20.445-4.543-1.623-9.411-2.272-14.279-2.921-2.272-.324-4.543-.649-7.14-.974z" class="cls-3" data-name="Path 451" transform="translate(-137.927 -252.2)"/>
            </g>
            <g id="Group_240" data-name="Group 240" transform="translate(312.104 841.661)">
                <path id="Path_452" d="M157.3 389.416c-16.226 0-31.478-6.49-45.108-19.471-17.524-16.875-17.2-38.293-14.928-57.116 2.272-17.849 12.332-31.479 30.5-42.188a93.944 93.944 0 0 1 32.452-11.358h.974a74.031 74.031 0 0 1 33.75 6.166c16.226 6.815 32.452 15.577 42.512 32.452 12.656 21.094 10.709 37.969-5.517 51.6-11.034 9.086-25.962 21.094-42.188 31.8-7.788 5.192-17.2 7.139-24.015 7.788-2.917.003-5.837.327-8.432.327zm3.57-128.186a88.792 88.792 0 0 0-31.478 11.358c-17.524 10.385-26.935 23.041-29.207 40.241C97.911 331 97.587 351.772 114.137 368c15.252 14.6 32.128 20.769 50.95 18.5a57.827 57.827 0 0 0 23.041-7.464c12.656-8.113 25.637-18.173 41.863-31.8 15.252-12.656 16.875-28.558 5.192-48.678-9.736-16.226-25.637-24.664-41.539-31.479a71.849 71.849 0 0 0-32.452-5.841z" class="cls-3" data-name="Path 452" transform="translate(-96.161 -259.163)"/>
            </g>
            <g id="Group_241" data-name="Group 241" transform="translate(207.062 386.48)">
                <path id="Path_453" d="M254.96 254.55a42.651 42.651 0 0 1-21.743-6.166 139.521 139.521 0 0 1-19.147-13.63c-19.8-17.849-44.135-23.69-73.991-17.2h-.649c-12.007 2.6-24.339 5.192-37 3.894-8.762-.974-15.252-2.6-20.445-5.517-8.113-4.219-13.954-12.007-16.551-21.743-3.245-11.358-1.623-24.339 4.219-33.75 13.305-21.743 30.829-35.7 51.923-41.539h.974c2.6.325 4.868.649 7.464.974 5.517.649 11.358 1.3 16.875 2.272 3.894.649 8.113 1.623 12.007 2.6 6.815 1.623 13.63 3.245 20.445 3.57 7.788.325 15.577-.974 23.365-2.272 3.57-.649 7.139-.974 10.709-1.623 12.656-1.623 25.962-1.623 37.644 8.438 7.464 6.166 13.305 13.954 18.822 21.094l4.868 6.166c5.192 6.49 10.385 13.305 16.226 19.471 2.921 3.245 9.087 7.788 16.875 4.543a196.26 196.26 0 0 0 20.445-9.411c19.147-10.385 40.241-20.445 64.58-18.822 10.385.649 22.067 2.272 32.777 10.06a17.036 17.036 0 0 1 6.815 12.332 16.272 16.272 0 0 1-3.57 12.656 49.066 49.066 0 0 1-13.954 12.007c-11.034 6.815-24.014 11.683-39.267 15.577-9.087 2.272-18.5 3.245-26.611 4.219a82.034 82.034 0 0 1-17.849 0c-11.358-1.3-23.365-.974-32.777 9.087a127.968 127.968 0 0 1-9.411 9.411c-8.756 6.811-20.763 13.302-34.068 13.302zm-92.488-42.512c20.445 0 38.293 6.815 53.221 20.445a112.325 112.325 0 0 0 18.822 13.305c19.8 11.683 40.241 3.894 52.9-7.464a127.967 127.967 0 0 0 9.411-9.411c10.06-11.034 23.365-11.358 34.724-10.06a79.089 79.089 0 0 0 17.524 0c8.113-.974 17.524-1.947 26.286-4.219 15.252-3.57 27.909-8.762 38.618-15.252A56.474 56.474 0 0 0 427.28 187.7a15.39 15.39 0 0 0 2.921-10.709 18.411 18.411 0 0 0-5.841-10.709c-10.06-7.464-21.418-9.087-31.478-9.736-23.69-1.3-44.459 8.438-63.281 18.5-6.49 3.57-13.63 6.49-20.445 9.411-7.139 2.921-13.954 1.3-19.8-4.868s-11.034-13.305-16.226-19.8l-4.868-6.166c-5.841-7.464-11.358-14.6-18.5-20.769-10.385-8.762-21.743-9.411-36.022-7.788-3.57.325-7.139.974-10.709 1.623-7.788 1.3-15.9 2.6-24.014 2.272-7.139-.325-14.279-1.947-21.094-3.57-3.894-.974-7.788-1.947-11.683-2.6-5.517-.974-11.034-1.623-16.551-2.272-2.6-.325-4.868-.649-7.464-.974-21.094 5.841-37.644 18.822-50.625 40.241-5.517 8.762-6.815 21.094-3.894 32.128 2.6 9.087 7.788 16.226 15.252 20.445 4.868 2.6 11.358 4.219 19.471 5.192 12.007 1.3 24.339-1.3 36.346-3.894h.649c8.119-.646 15.583-1.62 23.047-1.62z" class="cls-3" data-name="Path 453" transform="translate(-63.792 -118.9)"/>
            </g>
            <g id="Group_243" data-name="Group 243" transform="translate(700.633 859.307)">
                <path id="Path_455" d="M271.752 387.918c-5.517 0-10.709-3.245-15.253-9.736a338.1 338.1 0 0 1-20.12-30.829c-6.49-11.683-13.305-24.014-17.849-37-5.841-16.551-1.947-29.856 11.034-36.671a131.242 131.242 0 0 1 15.577-6.49c2.272-.974 4.868-1.623 7.139-2.6h7.789c4.868 0 10.06 0 14.928 1.3 16.875 4.219 30.18 15.252 39.267 32.777 7.789 14.928 9.411 30.18 4.543 44.784-5.517 16.551-17.2 29.856-36.022 40.89-3.893 2.277-7.785 3.575-11.033 3.575zM252.93 266.872c-2.272.974-4.543 1.623-6.815 2.6-5.192 1.947-10.385 3.894-15.252 6.166-11.683 6.49-15.252 18.5-9.736 33.75 4.543 12.656 11.034 24.988 17.524 36.346a338.1 338.1 0 0 0 20.12 30.83c6.815 9.411 13.63 11.034 23.041 5.517 18.173-10.709 29.531-23.366 34.724-39.592 4.543-13.954 2.921-28.233-4.543-42.837-9.087-17.2-21.418-27.584-37.644-31.8a68.774 68.774 0 0 0-14.279-1.3c-2.6.649-4.868.325-7.139.325z" class="cls-3" data-name="Path 455" transform="translate(-215.885 -264.6)"/>
            </g>
            <g id="Group_244" data-name="Group 244" transform="translate(70.761 359.221)">
                <path id="Path_456" d="M342.121 295.477c-9.411 0-17.2-1.947-24.015-6.166a153.724 153.724 0 0 1-26.286-20.769c-15.577-15.252-34.4-20.445-59.387-16.226a395.382 395.382 0 0 1-45.757 5.192c-12.656.649-25.637.649-38.293.325H139.3c-4.868 0-9.736-.974-14.279-1.623-10.385-1.947-21.094-3.894-31.479-5.841-9.087-1.623-18.5-3.57-27.584-5.192-12.012-2.277-24.019-4.869-33.758-12.657a27.3 27.3 0 0 1-10.385-19.8c-.325-6.815 2.272-12.656 7.464-17.524 15.252-14.279 35.373-22.392 61.01-24.339l2.272-.325c7.139-.649 14.6-.974 21.094-4.543 16.226-9.087 32.452-19.147 48.029-28.558l.649-.325c4.543-2.921 9.087-5.841 13.305-8.762 2.6-1.947 5.192-3.57 7.788-5.192a81.485 81.485 0 0 1 33.1-12.656h.974c3.245.649 6.166 1.3 9.411 1.947 6.815 1.3 13.954 2.921 20.769 3.894 2.6.325 5.192.974 8.113 1.623 7.139 1.623 14.279 2.921 21.094 2.6 9.087-.325 18.5-2.272 27.584-3.894 3.894-.649 8.113-1.623 12.007-2.272 7.788-1.3 17.849-1.947 26.286 3.894 6.815 4.868 12.981 11.358 18.5 17.2 3.57 3.57 6.815 7.464 10.06 11.358 3.57 4.219 7.139 8.438 10.709 12.332 11.034 11.358 23.69 15.252 37 11.358 4.868-1.3 9.736-2.921 14.6-4.543s10.06-3.245 14.928-4.868c7.788-2.272 14.928-4.219 22.067-4.543 14.6-1.3 30.5.325 46.406 4.543 10.709 2.921 22.067 6.49 29.531 16.551 5.841 7.788 8.113 15.252 6.49 24.014-2.921 15.577-14.279 23.69-25.637 30.829-22.716 13.954-48.678 20.769-73.017 25.637-15.253 3.245-31.154 6.815-45.108 15.252-21.094 12.656-38.618 19.471-57.44 21.743-3.567.001-6.812.326-9.732.326zm-93.786-47.055c18.173 0 32.777 6.166 45.108 18.5a138.221 138.221 0 0 0 25.957 20.442c8.438 5.192 18.822 6.815 32.128 5.192 18.173-2.272 35.7-8.762 56.467-21.418 14.279-8.762 30.5-12.656 45.757-15.577 24.339-4.868 49.976-11.358 72.368-25.313 11.034-6.815 21.743-14.6 24.664-29.207 1.623-8.113-.324-14.928-5.841-22.067-7.139-9.411-17.849-12.656-28.233-15.577-15.9-4.219-31.154-5.841-45.757-4.543-7.139.649-13.954 2.6-21.743 4.543-4.868 1.3-10.06 3.245-14.928 4.868s-9.736 3.245-14.6 4.543c-14.6 4.219-27.909 0-39.592-12.332-3.894-3.894-7.464-8.113-11.034-12.332-3.245-3.894-6.49-7.789-10.06-11.358-5.517-5.517-11.358-12.007-18.173-16.875-7.788-5.517-17.2-4.868-24.339-3.57-3.894.649-7.789 1.3-12.007 2.272-9.087 1.623-18.5 3.57-27.909 3.894-7.139.325-14.6-1.3-21.743-2.921-2.6-.649-5.192-.974-8.113-1.623-6.815-1.3-13.954-2.6-20.769-3.894-3.245-.649-6.166-1.3-9.411-1.947-11.358 1.3-21.743 5.517-32.128 12.332-2.6 1.623-5.192 3.57-7.788 5.192a140.33 140.33 0 0 1-13.63 8.762l-.649.325c-15.577 9.411-31.8 19.471-48.029 28.558-6.815 3.894-14.6 4.543-22.067 4.868l-1.947.325c-25.313 1.947-44.784 9.736-59.712 23.69a19.5 19.5 0 0 0-6.49 15.577A25.064 25.064 0 0 0 33.5 229.6c9.411 7.464 20.769 10.06 32.452 12.332 9.087 1.623 18.5 3.57 27.584 5.192 10.385 1.947 21.094 3.894 31.478 5.841a68.2 68.2 0 0 0 13.954 1.623h9.087c12.656.325 25.637.325 38.293-.325a398.2 398.2 0 0 0 45.433-5.192c5.844-.001 11.361-.65 16.553-.65z" class="cls-3" data-name="Path 456" transform="translate(-21.792 -110.5)"/>
            </g>
            <g id="Group_245" data-name="Group 245" transform="translate(502.385 863.85)">
                <path id="Path_457" d="M272.612 401.65a85.519 85.519 0 0 1-9.087-.649c-7.464-.974-14.928-1.3-22.392-1.947-2.921-.324-5.517-.324-8.438-.649a86.616 86.616 0 0 1-37.969-11.358c-19.8-11.683-31.154-26.286-34.724-44.784-1.623-8.113-2.272-16.551-2.921-24.988-.974-10.385-1.947-23.69-2.272-37.32-.325-7.464 4.219-12.332 12.332-12.981a16.286 16.286 0 0 0 3.894-.649c.649 0 1.3-.325 1.947-.325h.974c2.6.325 5.192.649 8.113.974 5.841.974 12.007 1.623 18.173 2.272 6.49.649 12.981 1.3 19.147 1.947 8.762.974 17.849 1.623 26.935 2.921 16.226 1.947 29.207 7.14 39.591 16.226 14.279 11.683 25.637 27.584 36.346 49.652 5.192 10.709 6.49 21.418 3.57 30.829-3.894 13.305-14.279 22.392-31.478 27.26a62.385 62.385 0 0 1-21.741 3.569zM173.633 268.6c-.649 0-1.3.325-1.947.325a16.444 16.444 0 0 1-4.219.649c-6.49.649-10.385 4.543-10.06 10.709.325 13.63 1.623 26.935 2.272 37.32a204.768 204.768 0 0 0 2.921 24.664c3.57 17.849 13.954 31.479 33.75 42.837a82.161 82.161 0 0 0 36.671 11.034c2.921.325 5.517.325 8.438.649 7.464.649 14.928.973 22.392 1.947a69.111 69.111 0 0 0 29.531-2.6c16.226-4.868 25.962-13.305 29.856-25.637 3.245-11.358 0-22.067-3.245-29.207-10.385-21.743-21.743-37.32-35.7-48.678-10.385-8.438-22.716-13.63-38.293-15.577-8.762-.974-17.849-1.947-26.935-2.921l-19.471-1.947c-6.166-.649-12.332-1.623-18.173-2.272a64.953 64.953 0 0 0-7.788-1.3z" class="cls-3" data-name="Path 457" transform="translate(-154.795 -266)"/>
            </g>
            <g id="Group_247" data-name="Group 247" transform="translate(129.898 295.939)">
                <path id="Path_459" d="M57.817 126.7a35.759 35.759 0 0 1-5.841-.649 17.1 17.1 0 0 1-10.709-9.411 15.91 15.91 0 0 1 .974-14.279c3.57-6.49 9.411-9.087 16.875-11.358h9.734c6.166.649 11.034 3.57 13.954 8.113a11.818 11.818 0 0 1 .974 11.358c-3.245 8.435-14.603 16.226-25.961 16.226zm1.947-33.426c-6.815 1.947-12.007 4.219-15.252 10.06a13.863 13.863 0 0 0-.974 12.332 14.088 14.088 0 0 0 9.087 8.113c11.358 2.921 25.637-5.192 28.882-13.954a9.06 9.06 0 0 0-.974-9.087c-2.272-3.894-6.815-6.166-12.007-6.815a35.109 35.109 0 0 0-5.841 0 4.823 4.823 0 0 0-2.921-.649z" class="cls-3" data-name="Path 459" transform="translate(-40.014 -91)"/>
            </g>
            <g id="Group_248" data-name="Group 248" transform="translate(353.115 883.97)">
                <path id="Path_460" d="M133.468 330.614c-6.815 0-13.63-2.6-17.849-7.464a29.5 29.5 0 0 1-6.49-23.365 28.836 28.836 0 0 1 11.358-20.12c4.543-3.245 9.736-4.868 14.928-6.166 1.623-.325 2.921-.974 4.543-1.3h5.517c5.841 0 12.007 0 18.173 2.272 7.139 2.6 11.683 6.49 13.305 11.683s0 11.683-4.543 18.173a17.01 17.01 0 0 1-3.245 3.57l-.974 1.3c-6.49 7.139-15.252 15.9-27.584 20.445a23.743 23.743 0 0 1-7.139.972zm7.139-55.818a23.9 23.9 0 0 1-4.543 1.3c-4.868 1.623-9.736 2.921-13.954 5.841-5.841 3.894-9.411 10.709-10.385 18.173-.974 7.789 1.3 15.9 6.166 21.418s14.928 8.113 22.392 5.517c11.683-4.219 20.445-12.656 26.611-19.8l.974-1.3c.974-1.3 1.947-2.272 2.921-3.57 4.219-5.841 5.517-11.358 4.219-15.9-1.3-4.219-5.517-7.788-11.683-10.06-5.841-1.947-11.358-1.947-17.524-1.947a26.23 26.23 0 0 1-5.192.325z" class="cls-3" data-name="Path 460" transform="translate(-108.798 -272.2)"/>
            </g>
            <g id="Group_249" data-name="Group 249" transform="translate(728.11 886.566)">
                <path id="Path_461" d="M258.259 332.387a24.46 24.46 0 0 1-13.63-4.543c-7.464-5.192-13.305-12.656-17.2-23.041-6.49-16.226-2.921-24.988 12.656-31.8h4.868a39.871 39.871 0 0 1 8.762.649c20.445 6.815 26.611 25.313 23.69 40.89-1.623 8.113-5.841 13.954-12.332 16.551a21.215 21.215 0 0 1-6.814 1.294zm-17.2-57.116c-14.279 6.166-16.875 13.63-11.034 28.558 3.894 9.736 9.087 16.875 16.226 21.743 5.841 4.219 12.656 5.192 18.173 2.921s9.411-7.464 10.709-14.6c2.921-14.279-2.921-31.8-22.067-37.969a31.641 31.641 0 0 0-8.113-.649z" class="cls-3" data-name="Path 461" transform="translate(-224.352 -273)"/>
            </g>
            <g id="Group_250" data-name="Group 250" transform="translate(58.183 888.838)">
                <path id="Path_462" d="M67.516 354.181a43.94 43.94 0 0 1-31.154-12.656c-9.736-9.411-15.577-21.743-17.849-36.346-2.6-16.875 3.245-27.26 17.849-31.478h5.192a44.392 44.392 0 0 1 9.411.649c16.875 4.219 32.128 12.656 44.784 20.445 9.736 5.841 14.279 13.305 13.954 22.716q-.487 17.524-15.577 28.233a47.022 47.022 0 0 1-26.61 8.437zm-30.5-78.21c-13.305 3.894-18.173 12.981-15.9 28.882 1.947 13.954 7.788 25.962 17.2 35.048 14.6 14.279 37.644 15.9 54.519 3.894 9.411-6.49 13.954-15.252 14.279-26.286.325-8.762-3.894-15.252-12.656-20.769-12.332-7.789-27.26-15.9-43.81-20.12a41.356 41.356 0 0 0-9.087-.649z" class="cls-3" data-name="Path 462" transform="translate(-17.916 -273.7)"/>
            </g>
            <g id="Group_251" data-name="Group 251" transform="translate(548.726 899.547)">
                <path id="Path_463" d="M214.264 335.089h-5.192c-13.305 0-30.5-6.49-38.293-24.988a23.379 23.379 0 0 1 0-17.524 17.1 17.1 0 0 1 10.06-10.06l10.709-3.894c1.623-.649 3.245-.974 4.868-1.623h6.166c21.094.649 36.022 11.358 41.863 30.5 3.245 10.709.649 18.173-8.762 23.366-6.815 3.574-14.283 4.223-21.419 4.223zm-5.192-2.6h2.921c8.113 0 15.577 0 22.392-3.894 8.438-4.868 10.709-11.034 7.789-20.445-5.841-17.849-19.8-28.233-39.592-28.558h-5.517c-1.623.649-3.245.974-4.543 1.623-3.57 1.3-7.139 2.272-10.709 3.894a15.512 15.512 0 0 0-8.762 8.762 21.5 21.5 0 0 0 0 15.577c7.464 16.875 23.366 23.041 36.022 23.041z" class="cls-3" data-name="Path 463" transform="translate(-169.075 -277)"/>
            </g>
            <g id="Group_252" data-name="Group 252" transform="translate(131.169 484.161)">
                <path id="Path_464" d="M314.606 389.145a34.728 34.728 0 0 1-21.418-7.139c-14.928-11.034-32.452-20.769-53.546-29.531-18.173-7.788-38.293-12.007-62.957-13.954a305.968 305.968 0 0 1-33.1-4.219c-6.49-1.3-13.305-2.6-19.471-4.219-9.087-1.947-18.5-4.219-27.584-5.517-18.173-2.272-31.8-10.709-41.539-24.988a82.1 82.1 0 0 1-14.279-54.195c.649-7.464 2.921-15.252 13.954-15.9h1.947c8.762-.325 17.849-.974 26.611.325 23.041 2.921 41.214.325 56.791-7.789 13.305-7.139 25.313-11.683 37-14.279 9.736-2.272 21.418-4.219 33.1-1.623 10.385 2.272 18.822 8.762 25.962 14.6 23.041 19.471 48.354 25.313 77.56 18.173l9.736-2.6c12.656-3.245 25.313-6.49 38.293-9.411 17.2-3.57 29.531-8.438 40.241-14.928 17.2-10.385 36.022-16.551 52.248-22.067a285.336 285.336 0 0 0 47.7-19.8 138.906 138.906 0 0 1 22.716-10.06c8.113-2.921 16.551-5.192 24.664-7.788 3.57-.974 7.139-1.947 10.709-3.245h1.3c7.464 1.3 10.06 4.219 10.385 11.358a34.66 34.66 0 0 1-.974 8.113l-.325.974c-4.868 25.637-12.656 47.055-24.015 65.878-13.954 23.365-31.8 43.81-49.327 62.308-11.359 12.016-23.688 23.378-35.374 34.083-3.245 2.921-6.166 5.841-9.411 8.762q-19.958 18.5-41.863 24.339a101.135 101.135 0 0 1-14.279 2.921c-4.543.974-9.411 1.947-14.279 3.245-15.252 4.219-30.5 9.087-45.108 13.63l-7.464 2.272a48.606 48.606 0 0 1-14.604 2.271zM70.567 231.428c-4.868 0-9.411.325-14.279.325h-1.947c-8.762.325-11.034 5.841-11.683 13.63a77.932 77.932 0 0 0 13.954 52.572c9.411 13.954 22.716 21.743 39.916 24.014 9.411 1.3 18.822 3.57 27.909 5.517 6.49 1.623 12.981 2.921 19.471 4.219a316.861 316.861 0 0 0 33.1 4.219c24.988 1.947 45.433 6.49 63.606 14.279 21.094 9.087 38.942 18.822 53.87 29.856 9.736 7.139 20.445 8.762 33.75 4.543l7.464-2.272c14.928-4.543 30.18-9.411 45.108-13.63 4.868-1.3 9.736-2.272 14.279-3.245s9.411-1.623 13.954-2.921c14.279-3.894 27.909-11.683 40.89-24.014 3.245-2.921 6.166-5.841 9.411-8.762 12.007-11.034 24.339-22.067 35.373-34.075 17.2-18.5 35.048-38.618 49-61.983 11.034-18.5 18.822-39.916 23.69-65.229l.325-.974a31.457 31.457 0 0 0 .974-7.464c-.325-5.841-1.947-7.789-8.437-8.762-3.57.974-7.139 1.947-10.709 3.245-8.113 2.272-16.551 4.868-24.664 7.464a135.927 135.927 0 0 0-22.392 10.06c-13.954 7.788-29.856 14.279-48.029 20.12-16.226 5.192-35.048 11.683-51.923 21.743-11.034 6.815-23.69 11.358-41.214 15.252-12.656 2.921-25.637 6.166-38.293 9.411l-9.736 2.6c-29.531 7.464-56.467 1.3-79.832-18.5-6.815-5.517-14.928-11.683-24.988-13.954-11.358-2.6-22.392-.649-32.128 1.623-11.683 2.6-23.041 7.139-36.346 13.954-15.9 8.438-34.4 11.034-58.089 8.113-3.242-.974-7.461-.974-11.355-.974z" class="cls-3" data-name="Path 464" transform="translate(-40.406 -149)"/>
            </g>
            <g id="Group_253" data-name="Group 253" transform="translate(470.598 275.17)">
                <path id="Path_465" d="M148.57 93.362h-2.27a1.4 1.4 0 0 1-1.3-1.3v-5.839c0-.974.974-1.3 1.947-1.623h1.623a1.192 1.192 0 0 1 .974.325l.325.325a5.432 5.432 0 0 1 2.6 3.57c.324 1.3-.325 2.921-1.623 4.543a5.3 5.3 0 0 0-2.276-.001zm-1.3-2.6h1.623a3.506 3.506 0 0 0 .974-2.272c0-.649-.649-.974-1.3-1.623a.318.318 0 0 1-.325-.324h-.325a8.907 8.907 0 0 0-.649 4.219z" class="cls-3" data-name="Path 465" transform="translate(-145 -84.6)"/>
            </g>
            <g id="Group_254" data-name="Group 254" transform="translate(292.568 976.134)">
                <path id="Path_466" d="M173.086 438.2a22.406 22.406 0 0 1-8.113-1.3c-3.894-1.3-7.789-2.6-11.358-3.57-4.543-1.3-9.087-2.6-13.305-4.219-19.147-6.815-31.154-20.769-35.7-41.214-4.219-19.147-9.087-41.539-13.63-63.931-2.6-12.981.649-19.147 12.007-23.365h.974c11.358 0 21.743 4.219 30.5 8.113 23.041 10.06 48.029 12.332 79.183 6.815 1.3-.325 2.6-.325 3.894-.649 7.464-1.3 15.252-2.921 23.365-1.3q9.736 1.947 9.736 10.709a64.85 64.85 0 0 1-1.3 14.279c-2.921 18.173-6.49 32.777-13.954 46.406-11.034 20.445-29.207 35.048-45.433 47.056a26.462 26.462 0 0 1-16.866 6.17zm-69.772-135c-10.06 3.57-12.656 8.762-10.385 20.445 4.543 22.392 9.411 44.784 13.63 63.931 4.219 19.471 15.9 32.776 34.075 39.267 4.219 1.623 8.762 2.921 13.305 4.219 3.894.974 7.789 2.272 11.683 3.57 7.464 2.6 15.9.974 23.041-4.219 15.9-12.007 33.75-26.286 44.459-46.082 7.139-13.305 10.709-27.909 13.63-45.757.649-4.219.974-9.087 1.3-13.954 0-4.543-2.6-7.14-7.788-8.438-7.464-1.623-14.928 0-22.392 1.3-1.3.325-2.6.325-3.894.649-31.8 5.517-57.44 3.245-80.806-7.14-8.762-3.57-18.822-7.789-29.856-7.789z" class="cls-3" data-name="Path 466" transform="translate(-90.141 -300.6)"/>
            </g>
            <g id="Group_255" data-name="Group 255" transform="translate(435.271 238.147)">
                <path id="Path_467" d="M175.607 163.435a26.7 26.7 0 0 1-14.6-4.543c-12.332-8.762-20.769-21.418-25.637-39.916a34.392 34.392 0 0 1 .974-21.418c4.863-12.658 14.274-20.77 28.556-24.339h10.06a29.877 29.877 0 0 1 20.769 7.464 74.594 74.594 0 0 1 20.445 27.26c5.841 13.63 5.192 24.988-2.272 34.4-7.789 10.06-17.524 16.875-29.207 20.12a45.644 45.644 0 0 1-9.088.972zM165.546 75.49c-13.63 3.57-22.392 11.034-26.935 23.041-2.6 6.166-2.6 12.981-.974 19.8 4.868 18.173 12.656 30.18 24.664 38.618 6.166 4.219 13.63 5.192 21.418 2.921a53.774 53.774 0 0 0 27.909-19.471c6.815-8.762 7.464-18.822 1.947-31.8A72.352 72.352 0 0 0 194.1 82.305c-5.841-4.868-12.332-7.139-19.147-6.815h-9.411z" class="cls-3" data-name="Path 467" transform="translate(-134.114 -73.192)"/>
            </g>
            <g id="Group_256" data-name="Group 256" transform="translate(408.827 217.729)">
                <path id="Path_468" d="M192.929 205.47h-1.623a34.778 34.778 0 0 1-24.988-14.6c-13.305-18.173-29.856-42.837-37.969-72.044-4.543-16.551-3.894-26.611 13.63-36.671 8.113-4.543 17.2-7.464 26.286-10.06l4.219-1.3c4.543-1.3 9.087-1.947 13.63-2.921 1.947-.325 3.894-.649 6.166-.974h.974c1.623.325 2.921.325 4.543.649 3.245.325 6.49.649 9.736 1.3 12.981 2.272 22.392 10.385 29.207 16.875 15.252 14.928 30.18 24.339 46.731 30.18 18.5 6.166 31.8 16.551 40.241 31.154 4.219 7.464 5.841 13.954 4.219 19.8-3.894 14.928-14.279 27.909-26.611 33.75-11.034 5.192-23.366 4.543-35.7-1.3-12.981-6.166-25.962-7.139-38.618-2.921-2.921.974-5.517 1.947-8.438 2.921-4.219 1.3-8.762 2.921-12.981 4.219l-.974.325c-4.541.32-8.109 1.618-11.68 1.618zm-.974-135.97c-1.947.324-4.219.649-6.166.974a87.734 87.734 0 0 0-13.305 2.6l-4.219 1.3c-8.762 2.6-17.849 5.517-25.637 10.06-16.226 9.411-16.875 17.849-12.332 33.75 8.113 28.558 24.339 53.221 37.644 71.07 5.841 7.788 13.954 12.656 23.365 13.63 3.57.325 7.789-.649 11.683-1.947l.974-.324c4.219-1.3 8.762-2.6 12.981-4.219 2.921-.974 5.517-1.947 8.438-2.921a53.7 53.7 0 0 1 40.565 3.245c11.683 5.517 23.365 5.841 33.75 1.3 11.683-5.517 21.418-17.849 25.313-32.128 1.3-5.192 0-11.034-3.894-17.849-8.113-13.954-21.094-24.015-38.942-29.856-17.2-5.841-32.128-15.577-47.7-30.829-6.49-6.49-15.577-13.954-27.909-16.226-3.245-.649-6.49-.974-9.736-1.3-1.623 0-3.245-.325-4.868-.325z" class="cls-3" data-name="Path 468" transform="translate(-125.965 -66.9)"/>
            </g>
            <g id="Group_257" data-name="Group 257" transform="translate(270.217 148.931)">
                <path id="Path_469" d="M113.91 194.33a50.355 50.355 0 0 1-11.358-1.623c-7.464-2.272-15.252-5.517-17.849-13.63a38 38 0 0 1-.649-18.173c.974-5.517 2.921-11.034 4.543-16.226.974-2.921 1.947-6.166 2.921-9.411a289.636 289.636 0 0 1 33.75-76.587c4.868-7.788 10.709-11.68 18.173-12.98h1.3a20.534 20.534 0 0 1 13.954 5.841c15.252 13.63 29.531 27.584 37.969 46.406 3.57 8.113 6.815 18.822.649 30.18-3.57 6.49-8.762 9.736-13.63 12.332-19.8 10.385-37 20.445-47.055 39.592-4.545 9.412-12.333 14.279-22.718 14.279zm30.18-146.683c-6.815.974-12.007 4.868-16.551 12.007a289.3 289.3 0 0 0-33.426 75.938c-.974 3.245-1.947 6.49-2.921 9.411-1.623 5.192-3.57 10.709-4.543 15.9-.974 5.841-.974 12.007.649 17.2 1.947 7.139 9.411 10.06 16.226 12.007 14.928 4.219 25.313.325 31.478-11.683 10.385-19.8 27.909-30.18 48.029-40.565 4.543-2.272 9.411-5.517 12.656-11.358 5.517-10.385 2.6-20.445-.974-27.909-8.113-18.5-22.392-32.128-37.644-45.757a19.3 19.3 0 0 0-12.981-5.192c.327.326.327.001.002.001z" class="cls-3" data-name="Path 469" transform="translate(-83.253 -45.7)"/>
            </g>
            <g id="Group_258" data-name="Group 258" transform="translate(228.505 529.269)">
                <path id="Path_470" d="M282.636 327.432a58.111 58.111 0 0 1-18.5-2.921c-5.517-1.623-10.709-3.894-16.226-5.841a154.6 154.6 0 0 0-17.2-6.166c-31.154-9.411-58.414-20.769-83.077-34.4a36.362 36.362 0 0 0-22.716-4.219c-9.411.974-19.147 1.947-29.207 2.272-7.464.325-14.6-2.6-20.445-8.762a15.452 15.452 0 0 1-4.865-10.709 13.147 13.147 0 0 1 4.543-9.736c4.219-4.219 8.762-8.438 12.656-12.656 5.192-5.517 10.709-11.034 16.551-16.226 13.305-12.007 27.584-14.928 42.512-8.438 3.894 1.623 7.464 3.57 11.034 5.192l3.894 1.947c14.279 7.139 31.154 11.034 50.95 12.332 11.683.649 24.015-.974 39.916-5.841 23.365-7.139 42.188-10.06 60.036-9.411h18.822c9.411 0 17.524-3.57 24.339-11.034 13.63-14.279 30.5-24.339 51.6-30.5 8.113-2.272 16.226-4.543 24.015-6.49l10.709-2.921h1.3c11.683 3.57 12.981 5.192 12.656 17.2a13.671 13.671 0 0 1-1.3 5.841l-3.894 7.788a186.643 186.643 0 0 1-11.039 21.09c-8.437 12.981-19.471 25.313-33.426 38.618-10.709 10.06-20.12 22.067-29.207 33.75l-.974 1.3c-14.928 19.147-30.829 29.856-50.625 33.426-4.868.974-9.736 1.623-14.6 2.272s-10.06 1.3-14.928 2.272a85.448 85.448 0 0 1-13.304.971zm-152.524-56.467a39.067 39.067 0 0 1 19.147 4.868c24.664 13.63 51.6 24.664 82.753 34.075 5.841 1.947 11.683 4.219 17.2 6.166 5.192 1.947 10.709 4.219 15.9 5.841a63.688 63.688 0 0 0 31.478 1.3c4.868-.974 10.06-1.623 15.252-2.272 4.868-.649 9.736-1.3 14.279-1.947 19.147-3.57 34.724-13.954 49-32.452l.974-1.3c9.087-11.683 18.5-24.015 29.207-34.075a201.913 201.913 0 0 0 33.1-37.969 158.588 158.588 0 0 0 11.034-20.769c1.3-2.6 2.6-5.192 3.894-8.113a10.838 10.838 0 0 0 .974-4.868c.325-10.709-.325-11.683-10.709-14.6l-10.709 2.921c-7.788 2.272-16.226 4.219-24.014 6.49-20.769 5.841-37.32 15.577-50.3 29.856-7.464 7.788-15.9 11.683-25.962 11.683h-19.144c-17.849-.649-36.346 2.272-59.387 9.411-16.226 4.868-28.558 6.815-40.565 5.841-20.12-1.3-37.32-5.192-51.923-12.332l-3.891-1.95c-3.57-1.623-7.139-3.57-11.034-5.192-13.954-6.166-27.584-3.245-39.916 8.113-5.517 5.192-11.034 10.709-16.226 15.9-4.219 4.219-8.438 8.762-12.656 12.656a10.771 10.771 0 0 0-3.894 8.113c0 3.245 1.3 6.166 3.894 9.087q8.275 8.275 18.5 7.788c9.736-.325 19.471-1.3 28.882-2.272 1.292.327 2.915.002 4.862.002z" class="cls-3" data-name="Path 470" transform="translate(-70.4 -162.9)"/>
            </g>
            <g id="Group_259" data-name="Group 259" transform="translate(118.18 1038.766)">
                <path id="Path_471" d="M85.394 456.2c-3.57 0-7.139 0-10.709-.325-16.551-.649-28.558-9.736-34.075-25.962-4.219-12.007-5.192-24.664-3.245-37.969 2.6-17.849 8.438-31.154 18.173-41.539 14.279-14.928 31.478-24.988 53.221-30.5h4.541c5.841 0 11.683.324 17.849 2.921 15.577 6.815 21.743 20.12 27.26 35.7 4.219 12.007 5.841 25.313 4.868 41.863-.974 15.9-5.192 27.909-12.656 37.969-5.517 7.14-11.358 11.358-18.5 12.981a204.67 204.67 0 0 1-46.727 4.861zm23.69-133.7c-21.094 5.517-38.293 15.253-51.923 29.856-9.411 10.06-15.252 22.716-17.524 40.241a77.612 77.612 0 0 0 3.245 36.671c5.192 15.252 16.551 24.014 31.8 24.339 22.392.649 40.241-.649 56.467-4.543 6.49-1.623 12.007-5.192 16.875-12.007 7.139-9.411 11.034-21.094 12.007-36.671.974-16.226-.325-29.207-4.543-40.89-5.517-14.928-11.034-27.909-25.962-34.4-5.517-2.272-11.034-2.6-16.875-2.6-.974.324-1.947 0-3.57 0z" class="cls-3" data-name="Path 471" transform="translate(-36.404 -319.9)"/>
            </g>
            <g id="Group_260" data-name="Group 260" transform="translate(136.321 1067.383)">
                <path id="Path_472" d="M77.387 404.922c-3.894 0-7.788-.325-11.358-.649-12.332-1.3-20.769-9.087-23.041-21.418-2.272-12.007-.649-22.392 4.868-30.829 8.113-12.656 19.471-20.445 33.75-23.041h.649c13.954-1.623 24.664 4.219 30.829 16.875 3.57 7.14 5.841 15.253 7.788 22.717 2.6 9.736-4.543 25.637-13.305 30.18a73.9 73.9 0 0 1-30.18 6.165zm4.868-73.666a47.126 47.126 0 0 0-32.128 22.067c-5.192 8.113-6.815 17.849-4.543 29.207 1.947 11.358 9.736 18.5 20.769 19.471 11.358.974 26.286 1.3 40.241-5.841 7.788-3.894 14.279-18.822 12.007-27.26-1.947-7.464-4.219-15.252-7.788-22.067-5.513-11.683-14.929-16.876-28.234-15.253 0-.325 0-.325-.324-.325z" class="cls-3" data-name="Path 472" transform="translate(-41.994 -328.718)"/>
            </g>
            <g id="Group_261" data-name="Group 261" transform="translate(640.535 1068.586)">
                <path id="Path_473" d="M252 424.534c-2.6 0-5.517-1.622-8.762-5.192-4.543-5.192-8.762-10.709-12.981-16.226-1.623-2.272-3.245-4.219-4.868-6.49-2.272-2.921-4.543-5.841-7.139-8.762-5.517-6.815-11.358-13.63-15.9-21.094-4.219-6.815-5.841-12.981-4.543-18.173 1.3-5.517 5.517-10.06 12.981-13.954 3.245-1.947 7.139-2.921 10.709-3.894a28.553 28.553 0 0 0 4.868-1.623h6.815c4.219 0 8.762-.325 12.981.974 14.279 3.57 24.339 17.849 24.015 33.426-.325 11.358-.974 21.094-2.6 30.18a101.683 101.683 0 0 1-6.49 21.418c-1.947 5.517-4.543 8.438-7.789 9.087a2.452 2.452 0 0 1-1.297.323zM227.009 331.4c-1.623.649-3.245.974-4.868 1.623-3.57.974-7.139 1.947-10.06 3.894q-10.222 5.355-11.683 12.656c-1.3 4.543.324 10.06 4.219 16.226 4.543 7.464 10.385 14.279 15.577 20.769 2.272 2.921 4.868 5.841 7.139 8.762 1.623 2.272 3.245 4.219 4.868 6.49 4.219 5.517 8.438 11.034 12.981 15.9 2.921 3.245 5.517 4.868 7.789 4.543s4.219-2.921 5.841-7.464c2.6-7.14 5.192-13.954 6.49-21.094a262.589 262.589 0 0 0 2.6-29.856c.325-14.279-9.411-27.584-22.067-31.154a38.415 38.415 0 0 0-12.332-.649c-2.272-.324-4.219-.324-6.49-.649z" class="cls-3" data-name="Path 473" transform="translate(-197.366 -329.089)"/>
            </g>
            <g id="Group_262" data-name="Group 262" transform="translate(103.996 113.813)">
                <path id="Path_474" d="M398.31 302.029c-6.49 0-12.981-1.623-18.822-6.815a83.231 83.231 0 0 1-15.577-17.849c-3.894-6.166-7.464-12.981-11.034-19.471l-5.841-10.709c-6.166-10.709-13.63-22.716-24.988-32.128-5.192-4.219-10.385-6.166-16.226-5.517a28.285 28.285 0 0 0-19.471 9.736c-2.272 2.272-4.543 4.543-6.49 6.815l-5.841 5.841c-15.577 16.551-35.7 16.551-51.274 14.6-4.219-.649-8.438-1.3-12.332-1.947-5.192-.974-10.385-1.623-15.577-2.272-15.252-1.3-30.829 1.947-47.38 9.736-4.543 2.272-9.411 4.868-13.954 7.139a239.146 239.146 0 0 1-22.392 11.034 111.242 111.242 0 0 1-47.7 9.736c-13.63-.325-23.041-6.49-27.909-18.5s-3.57-24.339-2.272-33.75c2.272-14.6 11.683-24.988 27.909-30.5 17.2-5.841 35.048-7.464 50.625-8.438a73.347 73.347 0 0 1 8.438-.325 124.245 124.245 0 0 0 15.252-.974c14.6-2.272 27.26-10.06 37.644-23.69 10.709-13.954 18.5-29.856 24.988-43.486 7.139-15.252 15.252-32.777 21.743-50.95 3.57-10.385 7.464-21.094 17.849-27.26A58.514 58.514 0 0 1 250 36.9c1.947-.649 3.57-1.3 5.517-1.947h.974c10.385-.649 19.471 3.245 27.584 11.034 3.245 3.245 6.166 6.49 9.411 9.736 2.921 3.245 6.166 6.49 9.087 9.736 4.868 4.868 9.736 9.411 14.6 13.954s9.736 9.087 14.6 13.954c3.245 3.245 6.49 6.815 9.736 10.06 2.6 2.921 5.517 5.841 8.113 8.762a31.839 31.839 0 0 0 15.9 9.087c13.954 3.245 28.233 1.623 41.863 0l3.894-.324c18.5-1.947 34.075 1.947 48.354 12.332l1.947 1.623c9.087 6.815 18.822 13.63 29.207 18.173 27.584 12.332 48.678 28.558 64.9 49.652 13.954 18.5 18.822 36.671 14.928 56.142-3.894 19.147-13.63 31.154-29.207 36.346a109.509 109.509 0 0 1-60.361 3.245c-8.438-1.947-17.524-3.894-26.611-5.192-12.981-1.623-25.313 2.272-37.32 5.841-6.15 1.292-12.64 2.915-18.806 2.915zm-91.19-95.085a24.2 24.2 0 0 1 16.226 6.166c11.683 9.411 19.471 22.067 25.637 32.777l5.841 10.709c3.245 6.49 6.815 12.981 10.709 19.147a79.018 79.018 0 0 0 15.252 17.524c10.709 9.087 23.69 6.49 34.724 2.921 12.332-3.894 24.988-7.788 38.293-5.841 9.087 1.3 18.173 3.245 26.611 5.192a107.835 107.835 0 0 0 59.063-2.921c14.928-5.192 23.69-16.226 27.584-34.4 3.894-18.5-.974-36.346-14.6-53.87-15.9-20.769-36.671-37-63.931-49-10.385-4.868-20.12-11.683-29.531-18.5l-1.947-1.623c-13.954-10.06-28.558-13.954-46.731-12.007l-3.894.325c-13.954 1.623-28.233 3.245-42.512 0-6.49-1.3-12.007-4.868-17.2-9.736-2.921-2.921-5.517-5.841-8.113-8.762-3.245-3.245-6.166-6.815-9.736-10.06-4.868-4.543-9.736-9.411-14.279-13.954-4.868-4.543-9.736-9.411-14.6-13.954-3.245-3.245-6.166-6.49-9.087-9.736s-6.166-6.49-9.087-9.736c-7.464-7.464-15.9-11.034-25.637-10.385h-.325c-1.947.649-3.57 1.3-5.517 1.947a63.977 63.977 0 0 0-12.007 5.192C228.91 49.876 225.34 60.261 221.771 70c-6.49 18.5-14.6 36.022-21.743 51.274-6.49 13.63-14.6 29.531-25.313 43.81-10.709 13.954-23.69 22.392-39.267 24.664a125.467 125.467 0 0 1-15.577.974 67.831 67.831 0 0 0-8.113.325c-15.252.974-33.1 2.272-49.976 8.113-15.252 5.192-24.339 14.928-26.286 28.558-1.3 9.087-2.272 21.094 2.272 32.452 4.218 11.03 12.98 16.546 25.632 16.871a111.491 111.491 0 0 0 46.731-9.411c7.464-3.245 14.928-7.139 22.067-11.034 4.543-2.272 9.087-4.868 13.954-7.139 16.875-8.437 32.777-11.683 48.678-10.06 5.192.649 10.385 1.3 15.577 2.272 3.894.649 8.113 1.3 12.332 1.947 15.252 1.947 34.4 1.947 49.327-13.63l5.841-5.841c2.272-2.272 4.543-4.219 6.49-6.49a30.673 30.673 0 0 1 21.103-10.386 3.528 3.528 0 0 1 1.62-.325z" class="cls-3" data-name="Path 474" transform="translate(-32.033 -34.879)"/>
            </g>
            <g id="Group_263" data-name="Group 263" transform="translate(394.66 604.389)">
                <path id="Path_475" d="M193.319 252.744a73.844 73.844 0 0 1-8.438-.649 91.384 91.384 0 0 1-32.452-12.007l-1.947-1.3c-7.788-4.868-15.9-10.06-23.69-15.577-3.245-2.272-5.192-5.517-5.192-8.762a10.646 10.646 0 0 1 4.543-8.438 61.082 61.082 0 0 1 7.464-5.192c.974-.649 2.272-1.3 3.245-1.947 10.709-7.139 22.392-10.385 32.452-12.656h.974c17.849-.974 36.346 2.272 56.142 9.411 6.815 2.6 11.034 6.166 13.305 11.034 2.272 5.192 1.947 12.007-1.3 19.8-7.462 18.17-27.257 26.283-45.106 26.283zm-23.365-63.931c-9.736 2.272-21.418 5.517-31.478 12.332a19.7 19.7 0 0 0-3.245 2.272c-2.6 1.623-4.868 3.245-7.139 4.868-2.272 1.947-3.57 4.219-3.57 6.49s1.623 4.868 4.219 6.815c7.464 5.517 15.577 10.709 23.365 15.577l1.947 1.3a80.647 80.647 0 0 0 31.478 11.683c18.822 2.921 42.837-4.543 50.95-24.015 2.921-7.139 3.245-12.981 1.3-17.849-1.947-4.219-5.841-7.464-12.007-9.736-19.471-7.139-37.644-10.06-55.168-9.411a1 1 0 0 0-.652-.326z" class="cls-3" data-name="Path 475" transform="translate(-121.6 -186.048)"/>
            </g>
            <g id="Group_264" data-name="Group 264" transform="translate(524.338 883.321)">
                <path id="Path_476" d="M241.847 367.734c-4.868 0-10.06 0-15.577-.325-13.63-.649-24.664-3.894-33.75-9.411-17.524-11.034-28.233-26.935-30.5-45.757-2.6-22.716 5.841-34.724 27.26-37.969 4.543-.649 8.762-1.3 13.305-1.623l5.841-.649h.649c1.3 0 2.272.324 3.57.324a63.356 63.356 0 0 0 7.464.649c10.709.325 19.8 2.6 27.909 6.815 22.067 12.007 36.022 30.829 41.539 56.467 2.6 11.683-2.6 22.392-13.305 27.26a52.207 52.207 0 0 1-19.147 4.219zm-32.777-93.787l-5.841.649c-4.543.649-8.762.974-12.981 1.623-20.12 2.921-27.909 13.954-25.313 35.373 2.272 18.5 12.007 33.426 29.207 44.135 8.762 5.517 19.471 8.438 32.452 9.087a238.839 238.839 0 0 0 30.5 0c7.464-.649 13.63-1.947 18.5-4.219 9.411-4.543 13.954-13.954 11.683-24.339-5.192-24.664-18.822-43.161-40.241-54.844-7.464-4.219-16.226-6.166-26.611-6.49a63.012 63.012 0 0 1-7.788-.649c-.974 0-2.272-.325-3.57-.325z" class="cls-3" data-name="Path 476" transform="translate(-161.56 -272)"/>
            </g>
        </g>
        <ellipse id="Ellipse_24" cx="5" cy="2.5" class="cls-5" data-name="Ellipse 24" rx="5" ry="2.5" transform="translate(1186 806)"/>
        <ellipse id="Ellipse_12" cx="5" cy="2.5" class="cls-6" data-name="Ellipse 12" rx="5" ry="2.5" transform="translate(1102 253)"/>
        <ellipse id="Ellipse_14" cx="5" cy="2.5" class="cls-6" data-name="Ellipse 14" rx="5" ry="2.5" transform="translate(1381 368)"/>
        <ellipse id="Ellipse_15" cx="5" cy="2.5" class="cls-7" data-name="Ellipse 15" rx="5" ry="2.5" transform="translate(832 719)"/>
        <ellipse id="Ellipse_16" cx="5" cy="2.5" class="cls-8" data-name="Ellipse 16" rx="5" ry="2.5" transform="translate(720 649)"/>
        <ellipse id="Ellipse_17" cx="5" cy="2.5" class="cls-9" data-name="Ellipse 17" rx="5" ry="2.5" transform="translate(1041 786)"/>
        <ellipse id="Ellipse_19" cx="5" cy="2.5" class="cls-10" data-name="Ellipse 19" rx="5" ry="2.5" transform="translate(1412 141)"/>
        <ellipse id="Ellipse_20" cx="5" cy="2.5" class="cls-11" data-name="Ellipse 20" rx="5" ry="2.5" transform="translate(1289 157)"/>
        <ellipse id="Ellipse_22" cx="5" cy="2.5" class="cls-12" data-name="Ellipse 22" rx="5" ry="2.5" transform="translate(1361 441)"/>
        <g id="Group_203" data-name="Group 203" transform="translate(708 801.1)">
            <path id="Path_400" d="M2.8 0h.8v.1a3.128 3.128 0 0 1-.5 1c-.1.2-.2.2-.2.3a2.092 2.092 0 0 0-.4.6.764.764 0 0 0-.2.5c0 .2 0 .3.1.4a.367.367 0 0 0 .3.1 1.7 1.7 0 0 0 .7.1h.2a1.268 1.268 0 0 1 .6.1 1.441 1.441 0 0 1 1.1.9 7.756 7.756 0 0 1 .5 1.8 2.845 2.845 0 0 1 0 1.3 1.854 1.854 0 0 0-.2.7 2.768 2.768 0 0 0 .3 1.3.864.864 0 0 0 .6.3c.2 0 .3-.1.5-.2l.4-.4a3.394 3.394 0 0 0 .6-.6 2.994 2.994 0 0 1 .8-.4H9a2.092 2.092 0 0 0 .6-.4.975.975 0 0 0 .4-.9 4.4 4.4 0 0 0-.2-1c-.3-.4-.5-.7-.9-.8a2.544 2.544 0 0 1-.7-.2 5.223 5.223 0 0 1-1.9-1.4A8.909 8.909 0 0 1 5 .8L4.7.2V.1h.6v.1a5.638 5.638 0 0 0 .4 1.2 6.07 6.07 0 0 1 .7 1l.1.2a2.178 2.178 0 0 0 .7.9 2.16 2.16 0 0 0 1.4.6h.1a1.084 1.084 0 0 0 1.1-.8c.1-.3.1-.7.2-1.1a10.261 10.261 0 0 1 .4-1.4c.1-.2.2-.5.3-.7h1.9l-.2.2-.1.1-.3.3a1.421 1.421 0 0 0-.2.6 2.544 2.544 0 0 0 .2.7c.1.2.1.3.2.5a1.421 1.421 0 0 1 .2.6 3.6 3.6 0 0 1 .2 1.1 1.206 1.206 0 0 1-.8 1.1h-.6c-.3 0-.5.1-.5.5v.7a1.854 1.854 0 0 1-.2.7 1.549 1.549 0 0 1-.8.8.774.774 0 0 0-.3.1 5.9 5.9 0 0 0-.8.4c-.3.1-.5.4-.7.6-.1.2-.2.3-.3.5s-.2.3-.3.5c-.2.2-.3.3-.5.3a.367.367 0 0 1-.3-.1 1.555 1.555 0 0 1-.8-.6 2.635 2.635 0 0 1-.5-2c0-.2.1-.4.1-.6 0-.1 0-.1.1-.2V6a4.248 4.248 0 0 0-.5-1.7 1.242 1.242 0 0 0-.8-.6 1.268 1.268 0 0 0-.6-.1h-.3a4.424 4.424 0 0 0-1.5.5 4.707 4.707 0 0 1-1.6.4V1.8h.8a.749.749 0 0 0 .5-.1 1.555 1.555 0 0 0 .8-.6A1.975 1.975 0 0 0 2.8 0m0 0a2.869 2.869 0 0 1-.6 1.1 1.555 1.555 0 0 1-.8.6 1.087 1.087 0 0 1-.5.1H.5c-.1 0-.3-.1-.4-.1H0v2.8h.1a3.533 3.533 0 0 0 1.7-.4 6.606 6.606 0 0 1 1.5-.5h.3a1.952 1.952 0 0 1 .7.1 1.7 1.7 0 0 1 .6.6 4.284 4.284 0 0 1 .5 1.6 2.769 2.769 0 0 1-.1.9c-.1.3-.1.6-.2.9a2.281 2.281 0 0 0 .5 2 1.555 1.555 0 0 0 .8.6c.1 0 .2.1.3.1a.55.55 0 0 0 .5-.3l.6-.9a2.336 2.336 0 0 1 .7-.7A11.215 11.215 0 0 1 9.8 8c.4-.2.7-.4.8-.8.1-.2.1-.5.2-.7v-.8c.1-.4.2-.4.5-.5h.5a1.2 1.2 0 0 0 .9-1.2 4.253 4.253 0 0 0-.2-1.1c-.1-.4-.3-.7-.4-1.1a6.373 6.373 0 0 1-.2-.7 1.421 1.421 0 0 1 .2-.6c.1-.2.3-.3.4-.4s.2-.1.2-.2h-2a.1.1 0 0 0-.1.1c-.1.3-.2.5-.3.8a5.732 5.732 0 0 0-.4 1.4 3.6 3.6 0 0 1-.2 1.1 1.206 1.206 0 0 1-1.1.8h-.1a1.76 1.76 0 0 1-1.3-.6 3.592 3.592 0 0 1-.7-1c-.2-.4-.5-.8-.7-1.2A4.234 4.234 0 0 1 5.4.1c0-.1 0-.1-.1-.1h-.6v.2c.1.2.1.4.2.6a9.456 9.456 0 0 0 1.4 2.4 3.807 3.807 0 0 0 1.9 1.4 1.854 1.854 0 0 0 .7.2 1.12 1.12 0 0 1 .7.8 2.958 2.958 0 0 1 .2 1 .909.909 0 0 1-.4.8 3.112 3.112 0 0 1-.6.4 3.508 3.508 0 0 0-.8.5l-.6.6c-.1.1-.2.3-.4.4a.758.758 0 0 1-.4.2.822.822 0 0 1-.6-.4 1.247 1.247 0 0 1-.3-1.2c0-.2.1-.5.1-.7a2.854 2.854 0 0 0 0-1.3 12.09 12.09 0 0 0-.5-1.8 1.441 1.441 0 0 0-1.1-.9 1.7 1.7 0 0 0-.7-.1 1.949 1.949 0 0 1-.8-.1c-.1 0-.2-.1-.3-.1a.6.6 0 0 1-.1-.4c0-.2.1-.3.2-.5.2-.3.4-.5.6-.8a3.128 3.128 0 0 0 .5-1V0z" class="cls-13" data-name="Path 400"/>
            <g id="Group_198" data-name="Group 198">
                <path id="Path_401" d="M14.6 0h.8l.1.1a2.092 2.092 0 0 0 .4.6.349.349 0 0 0 .1.2h.1c.1 0 .1-.1.1-.2V.1h1c0 .2.1.3.2.5a3.017 3.017 0 0 0 .8.8 4.179 4.179 0 0 0 1 .4h.9c.2 0 .3 0 .4.1.2.1.4.2.4.5v.5a1.05 1.05 0 0 1-.5.9l-.3.3c0-.1-.1-.1-.2 0a1.945 1.945 0 0 0-.9 1.4v1.1a2.016 2.016 0 0 1-.3 1.1 1.2 1.2 0 0 1-.9.8h-.1A.752.752 0 0 1 17 8a2.485 2.485 0 0 1-.1-.8V7a2.485 2.485 0 0 0-.1-.8 9.908 9.908 0 0 1-.2-1.8 1.425 1.425 0 0 0-.6-1.2c-.1-.2-.2-.2-.2-.3l-.3-.3a2.186 2.186 0 0 1-.3-.5c-.1-.1-.1-.4-.2-.6a5.638 5.638 0 0 0-.4-1.2V0m-.1 0a8.8 8.8 0 0 1 .5 1.5 1.854 1.854 0 0 0 .2.7c.1.2.2.3.3.5s.3.3.4.4a1.656 1.656 0 0 1 .5 1.2c.1.6.1 1.2.2 1.8a2.769 2.769 0 0 1 .1.9 2.2 2.2 0 0 0 .1.8.871.871 0 0 0 .8.6h.1a1.22 1.22 0 0 0 .9-.8 1.433 1.433 0 0 0 .4-1 4.1 4.1 0 0 1 .1-1.1 2.159 2.159 0 0 1 .9-1.4 2.181 2.181 0 0 0 .5-.4 1.05 1.05 0 0 0 .5-.9v-.5c0-.3-.2-.4-.4-.5a4.331 4.331 0 0 0-.5-.1h-.7a1.777 1.777 0 0 1-1-.4 2.7 2.7 0 0 1-.8-.7c-.1-.2-.2-.3-.3-.5h-1v.6c0 .1 0 .2-.1.2s-.1 0-.2-.1a1.275 1.275 0 0 1-.4-.6c0-.1 0-.1-.1-.2z" class="cls-13" data-name="Path 401"/>
            </g>
            <path id="Path_402" d="M24.9 0c.1 0 .1.1 0 0v4.6c-.1 0-.1 0-.2-.1a.349.349 0 0 1-.2-.1 1.7 1.7 0 0 0-.7-.1 4.253 4.253 0 0 0-1.1.2 1.081 1.081 0 0 0-.7 1.1 1.547 1.547 0 0 0 1.7 1.5h.3c.2 0 .4-.1.6-.1h.2v1.9l-.1-.1-.1-.1a4.233 4.233 0 0 0-.7-.5c-.2-.1-.3-.2-.5-.3a2.506 2.506 0 0 1-.7-.4 2.361 2.361 0 0 1-.9-.8 2.67 2.67 0 0 1-.3-1.8.969.969 0 0 1 .7-.8c.2-.1.4-.1.6-.2h.2a6.6 6.6 0 0 0 1.1-.4.781.781 0 0 0 .4-.4 2.059 2.059 0 0 0 .3-1.5 1.037 1.037 0 0 0-.6-.8c-.2-.1-.3-.1-.4-.2h-.2a1.421 1.421 0 0 1-.6-.2.781.781 0 0 1-.4-.4h2.3m0 0h-2.4a1 1 0 0 0 .4.5 1.884 1.884 0 0 0 .8.2.758.758 0 0 1 .4.2 1.037 1.037 0 0 1 .6.8 2.059 2.059 0 0 1-.3 1.5c-.1.2-.3.3-.4.4a3.582 3.582 0 0 1-1.1.4c-.3.1-.5.1-.8.2a1.107 1.107 0 0 0-.7.9 2.67 2.67 0 0 0 .3 1.8 2 2 0 0 0 1 .8l1.2.6c.2.1.5.3.7.4.2.2.3.3.4.3V7h-.2c-.3.1-.5.1-.8.2h-.3a1.922 1.922 0 0 1-1.2-.4 1.433 1.433 0 0 1-.5-1.1 1.081 1.081 0 0 1 .7-1.1 3.6 3.6 0 0 1 1.1-.2 1.952 1.952 0 0 1 .7.1c.1 0 .3.1.4.1h.2c-.1-1.5-.1-3-.2-4.6z" class="cls-13" data-name="Path 402"/>
            <path id="Path_403" d="M14.4 3.9h.1a1.242 1.242 0 0 1 .8.6 2.01 2.01 0 0 1 .4.8l.1.1a4.477 4.477 0 0 1 .4 2 2.769 2.769 0 0 0 .1.9.85.85 0 0 0 .7.7h.4a.9.9 0 0 0 .5-.1 2.226 2.226 0 0 0 1.3-1.1 3.809 3.809 0 0 0 .4-1.7 2.388 2.388 0 0 1 .2-.9 1.024 1.024 0 0 1 .6-.5h.1a.265.265 0 0 1 .3.3c.1.2.1.4.2.6v.2a3.287 3.287 0 0 0 .7 1.6 6.47 6.47 0 0 0 .8.9l.1.1a5.716 5.716 0 0 1 .7.8l.2.2c.2.2.3.4.5.6a9.428 9.428 0 0 0 1 1v1.6l-.1.1a.52.52 0 0 0-.2.4 3.126 3.126 0 0 1-1.1.9c-.1 0-.2.1-.4.1-.1 0-.2.1-.3.1a.969.969 0 0 0-.7.8v.1h-.8a.1.1 0 0 1-.1-.1c-.1-.2-.2-.3-.4-.3a1.7 1.7 0 0 0-.7-.1.749.749 0 0 0-.5.1.918.918 0 0 0-.6.4l-.1.1h-.8a.349.349 0 0 1 .1-.2 1.419 1.419 0 0 1 .9-.8 1.7 1.7 0 0 1 .7-.1h.4a1.268 1.268 0 0 0 .6-.1.85.85 0 0 0 .7-.7 1.949 1.949 0 0 0 .1-.8 1.421 1.421 0 0 0-.2-.6 1.306 1.306 0 0 0-1.2-.7 2.92 2.92 0 0 0-.9.2c-.1.1-.2.1-.3.2-.2.1-.3.2-.5.3a.9.9 0 0 1-.5.1 1.421 1.421 0 0 1-.6-.2 1.7 1.7 0 0 1-.6-.6c-.2-.3-.3-.6-.5-.9l-.1-.3c-.1-.1-.1-.2-.2-.3-.2-.2-.3-.4-.6-.4h-.3a1.884 1.884 0 0 0-.8.2 3.039 3.039 0 0 0-.7.5l-.1.1c-.3.2-.5.5-.8.7l-.1.1a6.034 6.034 0 0 0-.8.8l-.3.6c-.1.1-.1.2-.2.4a1.589 1.589 0 0 1-1 .8h-.2a.713.713 0 0 1-.6-.3 2.181 2.181 0 0 0-.4-.5 6.07 6.07 0 0 0-.7-1c-.1-.1-.2-.3-.3-.4a1.163 1.163 0 0 1-.2-1 1.6 1.6 0 0 1 .5-1 2.509 2.509 0 0 1 .8-.5c.2-.1.4-.1.5-.2.1 0 .3-.1.4-.1a1.337 1.337 0 0 0 .8-.7l.3-.6c0-.1.1-.1.1-.2a2.092 2.092 0 0 1 .4-.6 1.756 1.756 0 0 1 .5-.4l.3-.3a1.853 1.853 0 0 0 .8-.7 4.233 4.233 0 0 0 .5-.7.349.349 0 0 0 .1-.2.52.52 0 0 1 .4-.2m0 0a.758.758 0 0 0-.4.2l-.6.9c-.2.2-.4.5-.6.7-.3.3-.6.5-.8.7a2.092 2.092 0 0 0-.4.6 2.994 2.994 0 0 1-.4.8 1.779 1.779 0 0 1-.8.7 3.6 3.6 0 0 0-1.1.2 3.508 3.508 0 0 0-.8.5 2.22 2.22 0 0 0-.5 1.1 1.163 1.163 0 0 0 .2 1c.1.1.2.3.3.4a3.592 3.592 0 0 1 .7 1 1 1 0 0 0 .4.5 1.012 1.012 0 0 0 .7.4h.3a1.589 1.589 0 0 0 1-.8c.2-.3.3-.7.5-1a3.043 3.043 0 0 1 .8-.8c.3-.3.6-.5.9-.8.2-.2.5-.4.7-.6a1.2 1.2 0 0 1 .8-.2h.3a.664.664 0 0 1 .5.4c.1.1.1.2.2.3.2.4.3.7.5 1.1.2.2.3.5.6.6a1.421 1.421 0 0 0 .6.2.749.749 0 0 0 .5-.1c.3-.2.5-.3.8-.5a1.2 1.2 0 0 1 .8-.2 1.306 1.306 0 0 1 1.2.7c.1.2.1.4.2.6a1.7 1.7 0 0 1-.1.7.85.85 0 0 1-.7.7 1.949 1.949 0 0 1-.8.1 3.4 3.4 0 0 0-1 .1 1.419 1.419 0 0 0-.9.8.367.367 0 0 0-.1.3h.8a.1.1 0 0 0 .1-.1.918.918 0 0 1 .6-.4c.2 0 .3-.1.5-.1a1.7 1.7 0 0 1 .7.1q.3.15.3.3l.1.1h.8l.1-.1a.877.877 0 0 1 .6-.7c.2-.1.5-.1.7-.2a2.73 2.73 0 0 0 1.2-.9c.1-.2.2-.3.3-.5 0-.1.1-.1.1-.2v-1.4a4.741 4.741 0 0 1-1-1c-.2-.3-.4-.5-.6-.8s-.5-.5-.7-.8a9.428 9.428 0 0 1-1-1 4.418 4.418 0 0 1-.6-1.6 1.387 1.387 0 0 0 0-.9c-.1-.2-.2-.3-.4-.3h-.1c-.3.1-.5.2-.6.5a2.92 2.92 0 0 0-.2.9 3.287 3.287 0 0 1-.4 1.7A2.129 2.129 0 0 1 18 8.9a1.486 1.486 0 0 1-.6.1H17a.877.877 0 0 1-.6-.7c0-.3-.1-.6-.1-.9a4.477 4.477 0 0 0-.4-2c-.2-.3-.3-.6-.5-.9a1.555 1.555 0 0 0-.8-.6z" class="cls-14" data-name="Path 403"/>
            <path id="Path_404" d="M13.6.9c.1 0 .2 0 .2.1.1.1.2.2.2.3a1.949 1.949 0 0 1 .1.8 4.331 4.331 0 0 1-.1.5c0 .1-.1.1-.2.1h-.1a1.205 1.205 0 0 1-.5-.5.735.735 0 0 1-.2-.6v-.2c.1-.2.3-.5.6-.5m0 0a.648.648 0 0 0-.6.5v.2a1.421 1.421 0 0 0 .2.6 1.205 1.205 0 0 0 .5.5h.1c.1 0 .1 0 .2-.1.1-.2.1-.4.2-.5a2.2 2.2 0 0 0-.1-.8c0-.1-.1-.2-.2-.3a.367.367 0 0 0-.3-.1z" data-name="Path 404"/>
            <path id="Path_405" d="M14.4 5.4a1.033 1.033 0 0 1 .8.4 1.734 1.734 0 0 1 .5 1.8c-.1.3-.2.6-.5.7-.1.1-.2.1-.3.2a8.65 8.65 0 0 0-1 .7l-.5.5a11.408 11.408 0 0 1-1.1 1.1 5.7 5.7 0 0 0-1.1 1.1c-.1.1-.2.3-.3.4a.758.758 0 0 1-.4.2h-.2a1.38 1.38 0 0 1-.4-.3 8.7 8.7 0 0 1-.8-1.4 1.952 1.952 0 0 1-.1-.7 1.014 1.014 0 0 1 .6-.7c.1-.1.3-.1.5-.2.1 0 .2-.1.3-.1a2.044 2.044 0 0 0 .9-.5 1.934 1.934 0 0 0 .5-.9 3.805 3.805 0 0 1 .9-1.3l.1-.1c.3-.2.5-.5.8-.7a2.353 2.353 0 0 1 .8-.2m0 0a1.33 1.33 0 0 0-.8.3c-.3.2-.6.5-1 .8a3.045 3.045 0 0 0-.9 1.3 4.053 4.053 0 0 1-.5.9 5.938 5.938 0 0 1-.8.4c-.3.1-.5.2-.8.3a.877.877 0 0 0-.6.7 1.952 1.952 0 0 0 .1.7 6.376 6.376 0 0 0 .8 1.4c.1.2.3.3.4.4h.2a.52.52 0 0 0 .4-.2c.1-.1.2-.3.3-.4a5.731 5.731 0 0 1 1.1-1.1 5.731 5.731 0 0 0 1.1-1.1l.5-.5a3.592 3.592 0 0 1 1-.7c.1-.1.2-.1.3-.2a1.157 1.157 0 0 0 .5-.7 1.96 1.96 0 0 0-.5-1.8.824.824 0 0 0-.8-.5z" data-name="Path 405"/>
            <g id="Group_199" data-name="Group 199">
                <path id="Path_406" d="M20.4 7h.1l.3.3v.1c.2.3.5.6.7.9.1.1.2.2.2.3a10.627 10.627 0 0 1 .9 1.1 2.651 2.651 0 0 0 .5.6l.6.9a1.6 1.6 0 0 1 .3.8 1.39 1.39 0 0 1-1 1.2h-.2a.6.6 0 0 1-.6-.5c0-.2-.1-.3-.1-.5 0-.1 0-.2-.1-.2a1.442 1.442 0 0 0-.9-1.2 1.978 1.978 0 0 0-1.1-.2h-.5a3.178 3.178 0 0 0-.9.3 1.421 1.421 0 0 1-.6.2.993.993 0 0 1-.8-.6c0-.2 0-.4.2-.5.1-.1.2-.1.4-.2a3.051 3.051 0 0 0 1.3-1 8.794 8.794 0 0 0 .6-1v-.1c.1-.2.2-.3.3-.5.3-.2.3-.2.4-.2m0 0c-.1 0-.1 0-.2.1-.2.2-.2.4-.4.6-.2.3-.4.7-.6 1a2.209 2.209 0 0 1-1.3 1 .758.758 0 0 0-.4.2c-.2.1-.2.3-.2.5a.947.947 0 0 0 .8.7 1.421 1.421 0 0 0 .6-.2l.9-.3h.5a3.6 3.6 0 0 1 1.1.2 1.673 1.673 0 0 1 .9 1.1c.1.2.1.5.2.7a.64.64 0 0 0 .7.5h.2a1.286 1.286 0 0 0 1-1.2 1.613 1.613 0 0 0-.3-.9 14.309 14.309 0 0 0-1.1-1.5 7.41 7.41 0 0 0-1.2-1.3 5.5 5.5 0 0 1-.7-.9c-.1-.1-.2-.3-.4-.4a.1.1 0 0 1-.1.1z" class="cls-15" data-name="Path 406"/>
            </g>
            <g id="Group_200" data-name="Group 200">
                <path id="Path_407" d="M17.2 1.9a1.613 1.613 0 0 1 .9.3c.4.1.8.3 1.3.4.1 0 .2 0 .2.1.2.1.2.2.1.4 0 .1-.1.1-.1.2a1.756 1.756 0 0 1-.4.5 7.459 7.459 0 0 0-.7 1.2 1.986 1.986 0 0 0-.1 1.1v.5a1.952 1.952 0 0 1-.1.7c-.1.1-.1.2-.2.3-.1 0-.1.1-.2.1a.536.536 0 0 1-.4-.3 1.268 1.268 0 0 1-.1-.6V4.4a1.7 1.7 0 0 0-.1-.7c0-.2-.1-.4-.1-.6 0-.1-.1-.2-.1-.3v-.1c0-.2-.1-.3-.1-.5 0-.1 0-.3.2-.3m0 0a.265.265 0 0 0-.3.3c0 .2.1.4.1.6a2.92 2.92 0 0 1 .2.9c0 .2.1.5.1.7v2.3a1.268 1.268 0 0 0 .1.6c.1.2.2.3.4.3.1 0 .2 0 .2-.1l.3-.3a6.373 6.373 0 0 0 .2-.7V6a4.484 4.484 0 0 1 .1-1.1 2.925 2.925 0 0 1 .7-1.2c.1-.2.3-.3.4-.5 0-.1.1-.1.1-.2.1-.2.1-.3-.1-.4a.349.349 0 0 1-.2-.1 9.288 9.288 0 0 1-1.3-.4 4.4 4.4 0 0 0-1-.2z" class="cls-13" data-name="Path 407"/>
            </g>
            <path id="Path_408" d="M23.5 5.2a1.389 1.389 0 0 1 1 .5.446.446 0 0 1 0 .5 1.136 1.136 0 0 1-.8.3.845.845 0 0 1-.6-.2c-.2-.2-.3-.3-.2-.5a.51.51 0 0 1 .4-.5c-.1-.1.1-.1.2-.1m0-.1c-.2 0-.3 0-.4.1a.664.664 0 0 0-.4.5.864.864 0 0 0 .3.6.844.844 0 0 0 .7.2 1.613 1.613 0 0 0 .9-.3.375.375 0 0 0 0-.6 1.606 1.606 0 0 0-1.1-.5z" class="cls-14" data-name="Path 408"/>
            <g id="Group_201" data-name="Group 201">
                <path id="Path_409" d="M14.2 6.3h.1c.2 0 .3.1.4.3a1.087 1.087 0 0 1 .1.5.758.758 0 0 1-.2.4l-.3.3c-.1.2-.2.2-.2.3A14.25 14.25 0 0 0 13 9.3a6.034 6.034 0 0 1-.8.8 1.421 1.421 0 0 1-.6.2c-.1 0-.2 0-.2-.1-.1-.1 0-.2 0-.3.1-.1.1-.2.2-.3a5.483 5.483 0 0 0 .8-1.5 1.456 1.456 0 0 1 .6-.9 2.407 2.407 0 0 1 .8-.6.536.536 0 0 1 .4-.3m0 0a4.331 4.331 0 0 0-.5.1 5.547 5.547 0 0 0-.8.6 4.7 4.7 0 0 0-.6.9 10.93 10.93 0 0 1-.8 1.5c-.1.1-.1.2-.2.3 0 .1-.1.2 0 .3a.367.367 0 0 0 .3.1 1.421 1.421 0 0 0 .6-.2 3.043 3.043 0 0 0 .8-.8 11.985 11.985 0 0 1 1.1-1.2c.2-.2.4-.3.5-.5a.758.758 0 0 0 .2-.4.715.715 0 0 0-.5-.9c0 .2 0 .2-.1.2z" class="cls-15" data-name="Path 409"/>
            </g>
            <g id="Group_202" data-name="Group 202">
                <path id="Path_410" d="M20.5 8.4c.1 0 .2.1.4.2a3.043 3.043 0 0 1 .8.8c.1.2.2.3.2.5v.2l-.1.1h-.2c-.3 0-.6-.1-.9-.1a1.854 1.854 0 0 1-.7-.2.4.4 0 0 1-.2-.4l.3-.6c.1-.4.2-.5.4-.5m0 0c-.2 0-.3.1-.5.3l-.3.6a.365.365 0 0 0 .2.5 1.445 1.445 0 0 0 .7.2 2.769 2.769 0 0 0 .9.1h.2c.1 0 .2-.1.2-.3s-.1-.3-.2-.5a3.044 3.044 0 0 0-.8-.8.756.756 0 0 0-.4-.1z" class="cls-13" data-name="Path 410"/>
            </g>
        </g>
        <ellipse id="Ellipse_23" cx="5" cy="2.5" class="cls-16" data-name="Ellipse 23" rx="5" ry="2.5" transform="translate(760 731)"/>
        <ellipse id="Ellipse_25" cx="5" cy="2.5" class="cls-9" data-name="Ellipse 25" rx="5" ry="2.5" transform="translate(945 674)"/>
        <path id="Rectangle_1135" d="M14.579 0h.156a14.579 14.579 0 0 1 14.579 14.579 14.579 14.579 0 0 1-14.579 14.579H0V14.579A14.579 14.579 0 0 1 14.579 0z" class="cls-17" data-name="Rectangle 1135" transform="rotate(-45 1246.771 -637.482)"/>
        <g id="Group_301" data-name="Group 301" transform="translate(-11.69 39.325)">
            <ellipse id="Ellipse_18" cx="5.958" cy="2.979" class="cls-9" data-name="Ellipse 18" rx="5.958" ry="2.979" transform="translate(1339.765 376.392)"/>
            <path id="Rectangle_1129" d="M16.181 0h.186a16.181 16.181 0 0 1 16.18 16.181 16.181 16.181 0 0 1-16.18 16.18H0v-16.18A16.181 16.181 0 0 1 16.181 0z" class="cls-9" data-name="Rectangle 1129" transform="rotate(-45 1080.407 -1422.871)"/>
            <g id="house" transform="translate(1336.69 341.066)">
                <path id="Path_546" d="M246.187 57.5l-3.161 3.83h6.322z" class="cls-18" data-name="Path 546" transform="translate(-234.565 -57.5)"/>
                <path id="Path_547" d="M15.215 159.985v-5.919H8.03v5.919h-4.4v-3.021a2.263 2.263 0 1 0-1.044 0v3.021H0v1.044h15.841v-1.044zm-4.115-2.959h1.044v2.959H11.1z" class="cls-18" data-name="Path 547" transform="translate(0 -149.192)"/>
            </g>
        </g>
        <g id="restaurant" transform="translate(829.552 688.207)">
            <g id="Group_282" data-name="Group 282" transform="translate(.937)">
                <g id="Group_281" data-name="Group 281">
                    <path id="Path_489" d="M41.568 11.977l-5.524-5.524L29.591 0h-.5l-.1.262a4.627 4.627 0 0 0-.343 2.038 2.885 2.885 0 0 0 .809 1.843l5.038 5.038.664-.664 4.657 5.208a1.239 1.239 0 0 0 1.752-1.752z" class="cls-19" data-name="Path 489" transform="translate(-28.636)"/>
                </g>
            </g>
            <g id="Group_284" data-name="Group 284" transform="translate(.153 8.018)">
                <g id="Group_283" data-name="Group 283">
                    <path id="Path_490" d="M4.461 291.442l-3.946 3.946a1.239 1.239 0 0 0 1.752 1.752l3.946-3.946z" class="cls-19" data-name="Path 490" transform="translate(-.153 -291.442)"/>
                </g>
            </g>
            <g id="Group_286" data-name="Group 286" transform="translate(7.697 .01)">
                <g id="Group_285" data-name="Group 285">
                    <path id="Path_491" d="M280.294 2.7l-2.238 2.238-.584-.584 2.238-2.238-.584-.584-2.238 2.238-.584-.584 2.238-2.241-.584-.584-2.919 2.919a2.061 2.061 0 0 0-.6 1.335 1.189 1.189 0 0 1-.085.373l1.9 1.9a1.188 1.188 0 0 1 .373-.085 2.06 2.06 0 0 0 1.335-.6l2.919-2.919z" class="cls-19" data-name="Path 491" transform="translate(-274.354 -.361)"/>
                </g>
            </g>
        </g>
        <g id="Group_398" data-name="Group 398" transform="translate(-51 -45.108)">
            <ellipse id="Ellipse_13" cx="5.844" cy="2.922" class="cls-20" data-name="Ellipse 13" rx="5.844" ry="2.922" transform="translate(1067.353 236.264)"/>
            <path id="Rectangle_1130" d="M20.546 0h.183a20.546 20.546 0 0 1 20.545 20.546 20.546 20.546 0 0 1-20.546 20.545H0V20.546A20.546 20.546 0 0 1 20.546 0z" class="cls-21" data-name="Rectangle 1130" transform="rotate(-45 765.048 -1159.731)"/>
            <g id="Group_412" data-name="Group 412" transform="translate(1062.58 194.837)">
                <path id="Path_548" d="M-696.338-367.588h2.261v-2.77h17.582v2.77h1.867v-8.686s.656-3.946-3.978-3.975-7.626 0-7.626 0v6.963h-7.844v-8.74h-2.261z" class="cls-22" data-name="Path 548" transform="translate(696.338 382.026)"/>
                <ellipse id="Ellipse_39" cx="3.085" cy="3.085" class="cls-19" data-name="Ellipse 39" rx="3.085" ry="3.085" transform="translate(2.885 1.266)"/>
            </g>
        </g>
        <g id="Group_358" data-name="Group 358">
            <ellipse id="Ellipse_21" cx="6.907" cy="3.454" class="cls-12" data-name="Ellipse 21" rx="6.907" ry="3.454" transform="translate(1403.127 249.106)"/>
            <path id="Rectangle_1128" d="M20.141 0h.216A20.141 20.141 0 0 1 40.5 20.141a20.141 20.141 0 0 1-20.143 20.14H0v-20.14A20.141 20.141 0 0 1 20.141 0z" class="cls-23" data-name="Rectangle 1128" transform="rotate(-45 950.956 -1559.044)"/>
            <g id="scissors_1_" data-name="scissors (1)" transform="translate(1399.694 206.149)">
                <g id="Group_428" data-name="Group 428">
                    <path id="Path_565" d="M20.454 31.666a3.012 3.012 0 0 0-4.174-.76l-6.942 4.86L6.814 34a3.65 3.65 0 1 0-1.536 1.444l3.092 2.164-3.092 2.164a3.654 3.654 0 1 0 1.536 1.444l2.524-1.768 6.941 4.86a3.012 3.012 0 0 0 4.174-.76l-8.486-5.941zM3.66 34.074a1.893 1.893 0 1 1 1.893-1.893 1.893 1.893 0 0 1-1.893 1.893zm0 10.855a1.893 1.893 0 1 1 1.893-1.893 1.893 1.893 0 0 1-1.893 1.893z" class="cls-19" data-name="Path 565" transform="translate(0 -28.52)"/>
                </g>
            </g>
        </g>
    </g>
</svg>
