<svg xmlns="http://www.w3.org/2000/svg" viewBox="0 0 150 24.735">
    <defs>
        <style>
            .cls-1{fill:#8d8d8d}.cls-2{fill:#d1d1d1}
        </style>
    </defs>
    <g id="booking" transform="translate(-22 -984.22)">
        <g id="logo-booking" transform="translate(22 984.22)">
            <g id="_083b87ff" data-name="#083b87ff">
                <path id="Path_2870" d="M281.861 250.28a2.256 2.256 0 0 1 1.284 4.32 2.256 2.256 0 1 1-1.284-4.32z" class="cls-1" data-name="Path 2870" transform="translate(-222.403 -250.22)"/>
                <path id="Path_2871" d="M1.356 253.233a19.218 19.218 0 0 1 2.556-.062c1.767.056 3.616-.231 5.3.474a4.486 4.486 0 0 1 2.915 3.576A4.875 4.875 0 0 1 10.2 261.9a4.862 4.862 0 0 1 1.987 1.711 5.274 5.274 0 0 1-.833 6.423 6.756 6.756 0 0 1-4.533 1.626c-2.274.012-4.545 0-6.817 0v-17.042a2.1 2.1 0 0 1 1.356-1.385m2.24 3.989c-.058 1.14-.027 2.282-.008 3.422 1.134-.07 2.28.078 3.4-.089a2.291 2.291 0 0 0 .416-4.127 8.167 8.167 0 0 0-2.663-.183 1.035 1.035 0 0 0-1.148.977m-.012 7.421c-.041 1.286 0 2.573-.016 3.861 1.311-.047 2.636.093 3.939-.08 1.9-.451 2.261-3.288.785-4.409-1.022-.752-2.373-.447-3.554-.5a1.078 1.078 0 0 0-1.152 1.127z" class="cls-1" data-name="Path 2871" transform="translate(0 -252.553)"/>
                <path id="Path_2872" d="M216.14 253.185a23.8 23.8 0 0 1 2.845.074 1.633 1.633 0 0 1 1.082 1.741v7.816c.532-.054 1.262.124 1.562-.451.909-1.344 1.734-2.746 2.678-4.065 1.455.062 2.911.016 4.366.025-1.433 2.041-2.7 4.205-4.271 6.147a12.165 12.165 0 0 1 1.455 2.422c.845 1.688 1.931 3.234 2.855 4.877-1.175-.021-2.35.035-3.521-.025a1.907 1.907 0 0 1-1.6-.948c-.827-1.393-1.5-2.871-2.319-4.269-.216-.458-.8-.289-1.2-.367 0 1.868 0 3.737.006 5.6q-1.966.006-3.933 0 .007-9.285-.005-18.577z" class="cls-1" data-name="Path 2872" transform="translate(-171.587 -252.569)"/>
                <path id="Path_2873" d="M72.81 277a7.093 7.093 0 0 1 8.8 8.843 6.759 6.759 0 0 1-3.572 4.544 7.7 7.7 0 0 1-5.774.329 6.672 6.672 0 0 1-4.2-4.331 7.622 7.622 0 0 1 1.719-7.7A6.678 6.678 0 0 1 72.81 277m.814 3.349c-2.688 1.052-2.865 5.54-.427 6.981a3.138 3.138 0 0 0 4.285-1.162 4.6 4.6 0 0 0-.373-4.96 3.15 3.15 0 0 0-3.484-.857z" class="cls-1" data-name="Path 2873" transform="translate(-53.733 -271.289)"/>
                <path id="Path_2874" d="M146.279 276.955a7.424 7.424 0 0 1 6.39 1.39 7.623 7.623 0 0 1 1.142 9.956 7.165 7.165 0 0 1-7.264 2.671 6.684 6.684 0 0 1-4.941-3.965 7.715 7.715 0 0 1 1.447-8.286 6.687 6.687 0 0 1 3.226-1.766m.765 3.349c-2.781.956-3.014 5.527-.561 7a3.14 3.14 0 0 0 4.189-.946 4.64 4.64 0 0 0 .072-4.713 3.131 3.131 0 0 0-3.701-1.345z" class="cls-1" data-name="Path 2874" transform="translate(-111.937 -271.283)"/>
                <path id="Path_2875" d="M318.441 276.722a5.409 5.409 0 0 1 4.582.92 5.238 5.238 0 0 1 1.507 3.92c0 3.08.006 6.161 0 9.239a10.546 10.546 0 0 1-2.906-.225 1.856 1.856 0 0 1-.971-1.775c-.025-2.209.019-4.417-.017-6.624a1.794 1.794 0 0 0-.882-1.741 3.053 3.053 0 0 0-3.5 1.458 4.947 4.947 0 0 0-.6 2.411c0 2.164.016 4.326-.006 6.49-1.294-.032-2.589-.008-3.881-.015.014-4.624-.019-9.247.016-13.871a23.725 23.725 0 0 1 2.49.068 1.725 1.725 0 0 1 1.3 1.437 5.7 5.7 0 0 1 2.868-1.692z" class="cls-1" data-name="Path 2875" transform="translate(-247.503 -271.143)"/>
                <path id="Path_2876" d="M383.925 276.827a5.923 5.923 0 0 1 5.906.893c.691-1.309 2.315-.969 3.529-1.006q-.006 6.209 0 12.417a6.151 6.151 0 0 1-1.381 4.005 6.778 6.778 0 0 1-5.679 2.164 8.79 8.79 0 0 1-5.069-1.169 11.547 11.547 0 0 1 1.185-2.519c.684-.474 1.527.043 2.243.183a4.857 4.857 0 0 0 3.97-.536 2.9 2.9 0 0 0 .876-2.348 5.909 5.909 0 0 1-7.885-1.126 8.021 8.021 0 0 1-1.3-6.51 5.9 5.9 0 0 1 3.609-4.454m1.855 3.17a2.654 2.654 0 0 0-1.628 2.2 4.473 4.473 0 0 0 .7 3.411 2.666 2.666 0 0 0 4 .109 4.607 4.607 0 0 0 .664-3.2 2.664 2.664 0 0 0-1.428-2.424 3.342 3.342 0 0 0-2.311-.087z" class="cls-1" data-name="Path 2876" transform="translate(-301.776 -270.595)"/>
                <path id="Path_2877" d="M282.29 278.145a16.147 16.147 0 0 1 2.742.1 1.918 1.918 0 0 1 1.169 2.006c0 3.921-.006 7.844 0 11.764-1.286.011-2.575-.006-3.861.013q-.008-6.943-.05-13.883z" class="cls-1" data-name="Path 2877" transform="translate(-224.101 -272.381)"/>
            </g>
            <g id="_01aceeff" data-name="#01aceeff" transform="translate(95.665 5.694)">
                <path id="Path_2879" d="M478.215 278.865a7.866 7.866 0 0 1 7.887-1.655 3.49 3.49 0 0 1 2.331 1.993 14.87 14.87 0 0 1 .08 2.517 19.4 19.4 0 0 1-2.5-.064c-.75-.19-.709-1.214-1.408-1.451a3.463 3.463 0 0 0-3.881 1.181 4.283 4.283 0 0 0-.522 3.787 3.636 3.636 0 0 0 3.609 2.323 5.857 5.857 0 0 0 3.886-1.878c.519.876 1.024 1.76 1.593 2.605a7.8 7.8 0 0 1-11.061.563 7.162 7.162 0 0 1-.014-9.921z" class="cls-2" data-name="Path 2879" transform="translate(-471.111 -276.784)"/>
                <path id="Path_2880" d="M546.326 276.9a7.5 7.5 0 0 1 6.559 1.686 7.249 7.249 0 0 1 .235 10.02 7.532 7.532 0 0 1-7.581 1.713 6.578 6.578 0 0 1-4.065-3.607 7.491 7.491 0 0 1 .2-6.425 6.683 6.683 0 0 1 4.65-3.387m.42 3.339c-2.548 1.049-2.789 5.032-.631 6.6a3.2 3.2 0 0 0 4.426-.8 4.336 4.336 0 0 0-.3-5.025 3.272 3.272 0 0 0-3.493-.772z" class="cls-2" data-name="Path 2880" transform="translate(-522.409 -276.74)"/>
                <path id="Path_2881" d="M619.755 278.662a5.043 5.043 0 0 1 5.195-1.76 3.821 3.821 0 0 1 2.531 2.119 5.489 5.489 0 0 1 7.109-1.573c1.426.911 1.7 2.709 1.88 4.252v8.769a8.979 8.979 0 0 1-2.935-.208 1.75 1.75 0 0 1-.882-1.715c-.01-2.063.006-4.129 0-6.194a2.722 2.722 0 0 0-.521-1.851 2.123 2.123 0 0 0-2.474.179 4.625 4.625 0 0 0-1.567 3.741c0 2.018.006 4.036 0 6.054-1.251 0-2.5 0-3.75-.006.019-2.57 0-5.141.012-7.711a3.042 3.042 0 0 0-.674-2.255 2.018 2.018 0 0 0-2.554.309 5.617 5.617 0 0 0-1.4 4.015q-.028 2.817.006 5.634c-1.22.021-2.441.014-3.661 0 .018-4.471.006-8.942.006-13.413a7.2 7.2 0 0 1 2.772.243c.552.248.703.866.907 1.371z" class="cls-2" data-name="Path 2881" transform="translate(-582.135 -276.731)"/>
                <path id="Path_2882" d="M453.069 322.271a2.256 2.256 0 1 1-1.614 1.74 2.246 2.246 0 0 1 1.614-1.74z" class="cls-2" data-name="Path 2882" transform="translate(-451.404 -312.81)"/>
            </g>
        </g>
    </g>
</svg>
