<svg xmlns="http://www.w3.org/2000/svg" width="18.397" height="18.396" viewBox="0 0 18.397 18.396">
    <defs>
        <style>
            .cls-1{fill:#fff;fill-rule:evenodd}
        </style>
    </defs>
    <path id="Path_40" d="M9.2 1.635a28.2 28.2 0 0 1 3.679.1 4.74 4.74 0 0 1 1.737.307 3.589 3.589 0 0 1 1.737 1.737 4.74 4.74 0 0 1 .307 1.737c0 .92.1 1.226.1 3.679a28.2 28.2 0 0 1-.1 3.679 4.74 4.74 0 0 1-.307 1.737 3.589 3.589 0 0 1-1.737 1.737 4.74 4.74 0 0 1-1.737.307c-.92 0-1.226.1-3.679.1a28.2 28.2 0 0 1-3.679-.1 4.74 4.74 0 0 1-1.737-.307 3.589 3.589 0 0 1-1.737-1.737 4.74 4.74 0 0 1-.307-1.737c0-.92-.1-1.226-.1-3.679a28.2 28.2 0 0 1 .1-3.679 4.74 4.74 0 0 1 .307-1.737 3.671 3.671 0 0 1 .715-1.022 1.728 1.728 0 0 1 1.022-.715 4.74 4.74 0 0 1 1.737-.307 28.2 28.2 0 0 1 3.679-.1M9.2 0a30.2 30.2 0 0 0-3.783.1 6.31 6.31 0 0 0-2.249.411 4 4 0 0 0-1.635 1.022A4 4 0 0 0 .511 3.168 4.657 4.657 0 0 0 .1 5.417 30.2 30.2 0 0 0 0 9.2a30.2 30.2 0 0 0 .1 3.78 6.31 6.31 0 0 0 .409 2.248 4 4 0 0 0 1.022 1.635 4 4 0 0 0 1.635 1.022 6.31 6.31 0 0 0 2.248.409 30.2 30.2 0 0 0 3.782.1 30.2 30.2 0 0 0 3.782-.1 6.31 6.31 0 0 0 2.248-.409 4.288 4.288 0 0 0 2.657-2.657 6.31 6.31 0 0 0 .409-2.248c0-1.022.1-1.329.1-3.782a30.2 30.2 0 0 0-.1-3.782 6.31 6.31 0 0 0-.409-2.248 4 4 0 0 0-1.022-1.635A4 4 0 0 0 15.228.511 6.31 6.31 0 0 0 12.98.1 30.2 30.2 0 0 0 9.2 0m0 4.5a4.626 4.626 0 0 0-4.7 4.7 4.7 4.7 0 1 0 4.7-4.7m0 7.767A3.011 3.011 0 0 1 6.132 9.2 3.011 3.011 0 0 1 9.2 6.132 3.011 3.011 0 0 1 12.264 9.2 3.011 3.011 0 0 1 9.2 12.264m4.906-9.1a1.124 1.124 0 1 0 1.124 1.124 1.134 1.134 0 0 0-1.13-1.12" class="cls-1" data-name="Path 40"/>
</svg>
