<svg xmlns="http://www.w3.org/2000/svg" viewBox="0 0 88.841 37.027">
    <defs>
        <style>
            .cls-1{fill:#bababa}
        </style>
    </defs>
    <g id="malmaison" transform="translate(-.784 -.6)">
        <path id="Path_335" d="M111.764 18.295v.1c-.148 0-.247-.2-.3-.3a1.033 1.033 0 0 1 .3.2m-.3 4.343c0-.839-.247-1.727.3-2.369v-.1c.247 0 .444.247.592.345a3.7 3.7 0 0 0 .79.247v-.1c.345 0-.543-1.382-.691-1.579 0-.148.2-.148.3-.2h-.1c0-.3-.74-.888-.987-.987V18a1.108 1.108 0 0 0-.691.3c-.049 1.579-2.073 3.5.494 4.343" class="cls-1" data-name="Path 335" transform="translate(-55.402 -8.762)"/>
        <path id="Path_336" d="M175.195 56.5h-.1l-.2.1c0 .148.049.1-.1.1v.1c.2 0 .3-.148.395-.2v-.1z" class="cls-1" data-name="Path 336" transform="translate(-88.136 -28.312)"/>
        <path id="Path_337" d="M180.5 55.991c0-.148-.148-.1-.3-.1l.1.2c.1 0 .1-.049.2-.1" class="cls-1" data-name="Path 337" transform="translate(-90.871 -28)"/>
        <path id="Path_338" d="M179 55.3v.049l.2-.049z" class="cls-1" data-name="Path 338" transform="translate(-90.263 -27.705)"/>
        <path id="Path_339" d="M125.061 34.8l-.049.1c-.2 0 0 .1.049.2 0-.1.1-.1 0-.3" class="cls-1" data-name="Path 339" transform="translate(-62.876 -17.322)"/>
        <path id="Path_340" d="M177.192 55.7h-.1c-.148.049-.247.148-.395.2v.1h-.1v.1a1.24 1.24 0 0 0 .691-.3c-.148 0-.1.049-.1-.1" class="cls-1" data-name="Path 340" transform="translate(-89.048 -27.907)"/>
        <path id="Path_341" d="M178.942 55.5" class="cls-1" data-name="Path 341" transform="translate(-90.205 -27.806)"/>
        <path id="Path_342" d="M122.557 33.868h.395c0 .148-.2.3-.3.395v.1c-.148 0-.1-.345-.1-.494m3.163 12.531c-1.332-.74-3.159-1.184-3.9-2.714a1.1 1.1 0 0 1-.148-.79 1.52 1.52 0 0 0-.247-.592 7.216 7.216 0 0 1-.247-.987c.148 0 .3.148.395.2 0-.148-.049-.3-.049-.494.049-.395.247-.888.049-1.234v-.1c.3 0 .3-.3.395-.494.642-1.283 1.777-4.244 3.257-4.738.247-.049.444-.049.642-.1a9.747 9.747 0 0 1-.395 1.283c-.1.395-.148.79-.247 1.184-.148 0-.1.049-.1.2h.2c0 .1.049.049.1 0 1.036 0 1.184-2.171 1.332-2.862.1-.592.642-1.184.345-1.826a2.27 2.27 0 0 0-1.875-.938c-.1.148-.2.345-.3.494 0 .345-.543.494-.79.592 0 .247-.2-.148-.2-.2h-.049c0 .148-.1.345 0 .494v.1c-.148-.049-.247-.049-.395-.1h-.1v.1c-.2 0-.395.543-.592.691 0-.1-.444.247-.543.395-.1.247-.2.444-.3.691-.2 0-.049.1 0 .2a.406.406 0 0 0 .2.3v.1c-.2 0-.345-.247-.395-.395a.609.609 0 0 0-.395.2c-.148 0-.1-.049-.1.1.2 0 .148.1.2.2 0 .148.247 0 .395 0s.1-.049.1.1c.148 0 .1-.049.1.1a1.924 1.924 0 0 0-.79.1h-.1a.256.256 0 0 0-.1-.2 1.474 1.474 0 0 1-.3.691c-.2 0-.049.1 0 .2 0 .148-.148.2-.3.3v.3h.1c0 .2.148-.049.2-.1v-.1h.1c0 .345-.494.444-.691.592 0 .247.247.395.395.494v.1c-.2-.049-.395-.049-.592-.1 0 .494-.3 1.382.1 1.678 0 .148.049.1-.1.1 0 .839-.247 1.234.3 1.974.148 0 .1-.049.1.1a.609.609 0 0 0-.395.2c-.1 0-.1 0-.049.1a14.632 14.632 0 0 0 .987 2.418 13.143 13.143 0 0 0 2.665 2.566c.148 0 .1-.049.1.1-.247 0-.395.444-.543.543-.247.2-.444.345-.691.543a7.808 7.808 0 0 0-1.624 2.341 10.749 10.749 0 0 0-.3 1.086c-.148.148 0 .247.1.3a.7.7 0 0 1-.1.3c-.049.3-.049.592-.1.888 0 .1.2.247.2.1a1.658 1.658 0 0 1 .247-.691 3.574 3.574 0 0 1 .543-.938c.444-.543 1.036-.839 1.431-1.431.642 0 .888-.444 1.431-.592.74-.3 1.431-.543 2.171-.79 0-.592.543-1.036.148-1.678-.148-.345-.543-.444-.888-.642" class="cls-1" data-name="Path 342" transform="translate(-60.322 -15.6)"/>
        <path id="Path_343" d="M52.809 28.78c0 1.036 0 2.023.049 3.06a1.991 1.991 0 0 1-1.579 1.332c-1.974-.049-1.974-3.849-2.023-5.379a18.068 18.068 0 0 1-.049-3.652c.2-1.036.987-3.7 1.974-4.195V19.8c2.369.543 1.481 6.761 1.629 8.982m-21.369-7.4c0-.049-.049-.642-.049-.74a12.508 12.508 0 0 1 .395-3.257c.148-.444.3-.888.444-1.283.395-2.073.938-4.047 1.382-6.07a13.159 13.159 0 0 1 1.036-3.06c.2.987-.395 2.418-.543 3.405l-1.332 6.662c-.395 1.481-.74 2.961-1.135 4.442-.049.1-.1.1-.2-.1m-5.922 8.139a5.088 5.088 0 0 1-2.764 1.826l-.2.049-.2.049c-.148.049-.2.1-.345.049s-.247-.444-.345-.642a3.787 3.787 0 0 1-.345-1.678 11.976 11.976 0 0 1 3.6-9.031c.2-.2.395-.543.494.1 0 .592.1 1.332.1 1.974a35.2 35.2 0 0 0-.148 3.948c.049.543.049 1.135.1 1.678a3.874 3.874 0 0 1 .049 1.678m-4.388-2.02v.1c-.2 0-.049-.2 0-.3zm33.263 3.9a45.379 45.379 0 0 1 0-5.182 83.104 83.104 0 0 0-.2-3.652 18.471 18.471 0 0 0 0-2.862.943.943 0 0 0-.345-.691l-.2-.1c-.2-.049-.1.2-.2.3a2.835 2.835 0 0 0-1.579-1.283c-.148.049-.1.148-.1.2-1.332 0-1.579.543-2.32 1.481-.247.3-.494.543-.74.839-1.234 1.925-1.234 4.392-1.382 6.811a10.836 10.836 0 0 1-.2 2.566l-.1.1c0-1.283-1.579-7.008-3.109-6.613-.691.2-.938 1.135-1.332 1.629l-.1.1c0-.049-.049-.543-.049-.691-.1-.839-1.086-3.455-1.875-3.849C39.385 19.946 38.1 23.7 38 24.536c-.049.049-.049.1-.1 0-.049-.247-.1-.543-.148-.79-.1-1.036-.642-5.083-2.369-3.8-1.234.938-1.431 4.688-1.826 6.218a19.411 19.411 0 0 1-1.135 3.5c-.1.2-.148.2-.2.1-.1-.247-.2-.543-.3-.79a3.6 3.6 0 0 1-.2-1.481 9.1 9.1 0 0 1 .494-2.073c.1-.395.148-.79.247-1.234.494-1.579 1.036-3.109 1.431-4.738.79-3.159.888-6.514 1.53-9.722.247-1.382.345-2.764.642-4.146a3.777 3.777 0 0 0 .3-1.481.963.963 0 0 0-.592-.642c-.543-.2-.938.345-1.234.642-1.579 1.629-1.826 4.1-2.32 6.317a38.811 38.811 0 0 0-.839 4.886c-.049.74-.148 1.481-.2 2.171a2.733 2.733 0 0 1-.1 1.283c0 .148.049.148.1.3 0 .2.049.987.049 1.135a6.832 6.832 0 0 1-.23 2.222c-.1.3-.2.543-.3.839-.049.543-.148 1.135-.2 1.678a18.64 18.64 0 0 1-1.382 4.047c-.2.395-.395 1.086-.987.888-1.283-.444-1.086-6.465-1.086-8.044a10.836 10.836 0 0 0-.1-3.109c-.148-.444-.494-.888-.888-.938a.736.736 0 0 0-.395.148 4.922 4.922 0 0 1-.938.592 7.331 7.331 0 0 0-1.777 1.53 17.158 17.158 0 0 0-2.862 4.294c-.987 2.32-2.122 7.551 1.678 7.9.2 0 .395.3.1.3a7.251 7.251 0 0 0-2.221.691c0 .642.444 1.234.3 1.875-.1.444-.592.444-.888.247-2.122-1.431-2.665-6.12-2.813-8.686-.049-1.431.1-2.961.148-4.392a23.707 23.707 0 0 1 .3-2.764 23.215 23.215 0 0 1 .3-2.517 45.984 45.984 0 0 0 1.135-8.834 30.38 30.38 0 0 0-.543-5.281 3.959 3.959 0 0 0-.543-1.678A2.242 2.242 0 0 0 15.449.6c-.395.494-.839 1.036-1.234 1.53a18.73 18.73 0 0 0-2.221 4.836l-1.036 3.257c-.148.543-.3 1.036-.444 1.579-.049.395-.1.3-.1.2a2.933 2.933 0 0 0-.543-1.332c-1.283-1.53-2.764 1.184-3.356 1.925 0-.049.049-.543.049-.691.148-1.777-.494-6.613-2.961-6.169-.642.1-.987 1.283-1.135 1.777a48.711 48.711 0 0 0-1.135 6.169l-.3 2.073a8.648 8.648 0 0 0-.247 1.974 4.719 4.719 0 0 0 .79 2.665v.1c.3 0 .444-.642.494-.888.2-.987.1-2.073.247-3.06a52.46 52.46 0 0 1 .938-4.985 10.571 10.571 0 0 1 .691-2.862v-.1h.1c.049.148.1.345.148.494.1.444.148.839.247 1.283.148 1.086.148 2.221.247 3.356a20.088 20.088 0 0 1 .151 2.469c-.148 1.283-.3 2.566-.444 3.9-.148 1.875-.2 3.9-.247 5.873 0 .74-.1 1.53-.049 2.27a16.931 16.931 0 0 0 .3 1.678h.1c0-.247.444-.444.543-.642a2.989 2.989 0 0 0 .543-1.431c.049-1.086.049-2.171.1-3.307.148-1.382.3-2.764.543-4.1.049-.395.049-.79.1-1.184.444-2.221.888-4.688 2.418-6.317l.1-.049c.049.2.1.3.148.494 0 .494.049.987.049 1.481-.148 2.961-.79 5.774-.938 8.637C8 25.226 7.9 27 7.9 28.78c0 .79.148 4.985.839 4.886 1.925-.345 1.234-6.12 1.481-7.748.395-2.912.888-5.774 1.332-8.637.148-1.184.3-2.369.395-3.553l.3-1.036c.2-.938.247-1.777.494-2.665.148-.691.444-1.234.642-1.925a11.668 11.668 0 0 1 2.418-5.034c.148-.148.395-.049.395.1 0 .444.247.888.247 1.382-.049 1.925-.148 3.8-.247 5.725-.049 1.629-.395 3.208-.592 4.787-.691 6.021-1.135 13.522.938 18.852.345.888 1.875 3.7 3.06 3.7 1.382 0 2.616-2.221 1.481-3.257 0-1.727 2.813-1.135 3.7-1.777a5.942 5.942 0 0 0 1.431-1.925c.049-.1.1-.3.2-.345a3.174 3.174 0 0 0 .494 1.184c1.086 1.53 2.517.592 3.356-.592.1 0 .345 1.382.987 1.382a2.958 2.958 0 0 0 2.014-1.084 6.206 6.206 0 0 0 1.382-2.221c.1-.642.2-1.234.3-1.875.1-.543.2-1.135.3-1.678a6.685 6.685 0 0 1 .543-2.468v-.1h.1c.1.888.148 1.727.247 2.616 0 .79.1 1.53.148 2.27v.592A23.111 23.111 0 0 1 36.621 31a.815.815 0 0 0 1.184.247c1.332-.79 1.135-5.675 1.974-7.205.049-.049.1-.3.2-.2.049.049.1.839.148.987.3 2.27-.049 5.034 1.135 6.86.148.2.444.049.592.049 1.53-.395 1.678-3.06 1.826-4.392l.3-1.481c0-.148.1-.148.1 0a11.751 11.751 0 0 1 .247 1.283 11.486 11.486 0 0 0 .395 1.875c.148.494.395.938.543 1.382a2.755 2.755 0 0 0 .247.395 1.636 1.636 0 0 0 2.566.987c.1-.049.049 0 .2 0 0 1.086 1.727 3.257 2.912 3.307a2.93 2.93 0 0 0 1.91-.984c0-.148-.049-.1.1-.1 0 .543 1.135 2.171 1.826 2.122.3 0 .444-.444.691-.543 0-.395-.79-1.283-.938-1.727a12.891 12.891 0 0 1-.395-2.468" class="cls-1" data-name="Path 343"/>
        <path id="Path_344" d="M134.217 47.665a1.484 1.484 0 0 1-1.184-.74c-1.135-2.023.494-4.146 1.382-5.725a3.405 3.405 0 0 0 .79.888c.247.148.592.148.74.444.888 1.53.592 5.133-1.727 5.133m20.629-1.036h-.1v.1c-.494.148-.987.345-1.481.494-.395.049-.79.049-1.184.1v-.1c.148 0 .148-.1.2-.2h-.987c-4.738 0-4.195-6.662-6.12-9.426v-.1c-.1 0-.3.049-.3.1-.049 0-.049.1-.2.1 0-.2-.345-.247-.493-.3-.494.642-1.036 1.332-1.53 1.974a3.92 3.92 0 0 0-.691.888c-.2.2-.2.1-.2 0a8.673 8.673 0 0 0 0-1.135.812.812 0 0 0-.592-.395c-1.283-.395-1.925.395-2.912.987-.494.247-.987.444-1.53.691-.3-.049-.592-.049-.888-.1-.247-.049-.592-.395-.938-.2a.609.609 0 0 1-.2.395v.1c-.642 0-1.086-.543-1.875-.1-.494.3-.691.987-.938 1.481-.691 1.332-1.777 4.836-.049 5.873.247 0 .247.494.3.691.2-.049.395-.049.592-.1v.3c0 .148-.049.1.1.1 0 .2.1.049.2 0a2.124 2.124 0 0 1 .79 0 2.624 2.624 0 0 0 2.32-.888 3.978 3.978 0 0 0 .888-1.283c.049-.3.049-.543.1-.839.049-.2.148-.395.2-.592l-.148-.592c-.1-.494-.543-2.023-.345-2.369.148-.345.79-.494 1.135-.642a6.292 6.292 0 0 1 1.329-.542 6.642 6.642 0 0 0-.1 1.974c-.148 0-.1.049-.148.2a27.546 27.546 0 0 0-.049 3.5l.691.592c.3 0 .444.2.691.1 0 .2.2.2.395.2.148 0 .1-.049.1.1.2 0 .395-.642.395-.888a4.2 4.2 0 0 1-.2-1.086c.148-.444.247-.938.395-1.382a13.2 13.2 0 0 1 2.122-4.442v-.1c.444 0 .494.691.543.987.79 2.961 1.629 5.527 4.491 7.156 0 .148 1.283.148 1.481.395h.2c0-.2.148 0 .2.1a5.967 5.967 0 0 0 .888-.247 7.165 7.165 0 0 0 3.9-1.382.8.8 0 0 1-.444-.247" class="cls-1" data-name="Path 344" transform="translate(-65.912 -18.639)"/>
        <path id="Path_345" d="M143.6 54.791h.1c0-.3.1-.444 0-.691a3.333 3.333 0 0 1-.1.691" class="cls-1" data-name="Path 345" transform="translate(-72.334 -27.097)"/>
        <path id="Path_346" d="M114.844 51.96v.1c-.148 0-.3-.148-.395-.2a.839.839 0 0 1-.3.494v.1c-1.431 0-.74-3.652-1.283-4.442.148 0 .1-1.283 0-1.481.2 0 .148-.1.247-.247-.3.1-.2-.148-.247-.148 0-.148.148-.148.3-.2a.513.513 0 0 0-.2-.395.609.609 0 0 1 .2-.395c.148 0-.1-.247-.1-.395 0-.3.148-.444 0-.691v-.49c.148 0 .247-.148.3-.247.148-.345 0-.592 0-.938.1-1.332.543-4.54-1.086-4.886-.2.049-.543 1.086-.642 1.678 0 .74-.049 1.431-.1 2.171-.3 3.06-.642 6.712.049 9.673a3.11 3.11 0 0 0 .494 1.481.593.593 0 0 0 .1.395h.1c0 .148-.049.1-.2.1v.049h.1c0 .1.3.247.395.3a1.973 1.973 0 0 0 1.283.494c.444-.1 1.481-1.777 1.234-2.171 0 .1-.148.2-.247.3" class="cls-1" data-name="Path 346" transform="translate(-55.916 -18.689)"/>
        <path id="Path_347" d="M126.2 69.8h-.2c.1.1.1 0 .2 0" class="cls-1" data-name="Path 347" transform="translate(-63.42 -35.049)"/>
        <path id="Path_348" d="M123.2 72.4l-.1.2c0 .2.1-.1.1-.2" class="cls-1" data-name="Path 348" transform="translate(-61.951 -36.366)"/>
    </g>
</svg>
