<svg xmlns="http://www.w3.org/2000/svg" width="60.082" height="53.06" viewBox="0 0 60.082 53.06">
    <defs>
        <style>
            .cls-1{fill:#eaeaea}.cls-2{fill:url(#linear-gradient)}.cls-3{fill:#fff}
        </style>
        <linearGradient id="linear-gradient" x1=".5" x2=".5" y2="1" gradientUnits="objectBoundingBox">
            <stop offset="0" stop-color="#5f56d8"/>
            <stop offset="1" stop-color="#7c98f5"/>
        </linearGradient>
    </defs>
    <g id="search" transform="translate(-313 -1538.467)">
        <g id="Group_300" data-name="Group 300" transform="translate(313 1538.467)">
            <rect id="Rectangle_1151" width="60.082" height="53.06" class="cls-1" data-name="Rectangle 1151" rx="10"/>
            <path id="Rectangle_1140" d="M10 0h40.082a10 10 0 0 1 10 10v9.734H0V10A10 10 0 0 1 10 0z" class="cls-2" data-name="Rectangle 1140"/>
            <path id="search-2" d="M10.946 9.544L8.452 6.95a4.229 4.229 0 1 0-3.238 1.511A4.185 4.185 0 0 0 7.638 7.7l2.513 2.613a.552.552 0 1 0 .8-.765zM5.214 1.1a3.127 3.127 0 1 1-3.126 3.13A3.13 3.13 0 0 1 5.214 1.1z" class="cls-3" data-name="search" transform="translate(43.102 6.242)"/>
            <rect id="Rectangle_1144" width="24.884" height="5.925" class="cls-3" data-name="Rectangle 1144" rx="2" transform="translate(5.072 24.189)"/>
            <rect id="Rectangle_1145" width="13.627" height="5.925" class="cls-3" data-name="Rectangle 1145" rx="2" transform="translate(5.072 33.56)"/>
            <rect id="Rectangle_1146" width="13.627" height="5.925" class="cls-3" data-name="Rectangle 1146" rx="2" transform="translate(21.069 33.56)"/>
            <rect id="Rectangle_1147" width="6.814" height="5.925" class="cls-3" data-name="Rectangle 1147" rx="2" transform="translate(5.072 42.932)"/>
            <rect id="Rectangle_1148" width="18.959" height="5.925" class="cls-3" data-name="Rectangle 1148" rx="2" transform="translate(13.663 42.932)"/>
        </g>
    </g>
</svg>
