<svg xmlns="http://www.w3.org/2000/svg" width="82.116" height="114.369" viewBox="0 0 82.116 114.369">
    <defs>
        <style>
            .cls-1{fill:url(#linear-gradient)}.cls-2,.cls-6{fill:#fff}.cls-3{fill:#4542c6}.cls-4{fill:#eee}.cls-5{fill:#5f56d8}.cls-6{font-size:4px;font-family:SFCompactDisplay-Semibold,SF Compact Display;font-weight:600}.cls-7{fill:#d6d6d6}.cls-8{fill:#615bda}
        </style>
        <linearGradient id="linear-gradient" x1=".5" x2=".5" y2="1" gradientUnits="objectBoundingBox">
            <stop offset="0" stop-color="#5f56d8"/>
            <stop offset="1" stop-color="#7c98f5"/>
        </linearGradient>
    </defs>
    <g id="sign-up" transform="translate(-823.393 -1436.47)">
        <g id="Group_446" data-name="Group 446" transform="translate(823.393 1436.47)">
            <g id="Group_446-2" data-name="Group 446" transform="translate(12.486 11.442)">
                <rect id="Rectangle_1267" width="42.667" height="79.557" class="cls-1" data-name="Rectangle 1267" rx="8"/>
                <path id="Rectangle_1268" d="M0 0h36.617v66.412H0z" class="cls-2" data-name="Rectangle 1268" transform="translate(3.203 6.572)"/>
                <path id="Path_571" d="M241.566 87.125h-6.835a.774.774 0 0 0 0 1.548h6.835a.774.774 0 1 0 0-1.548z" class="cls-3" data-name="Path 571" transform="translate(-216.815 -84.639)"/>
                <path id="Path_572" d="M274.467 87.9a.774.774 0 1 1-.774-.774.774.774 0 0 1 .774.774z" class="cls-3" data-name="Path 572" transform="translate(-245.912 -84.639)"/>
                <path id="Path_573" d="M221.987 87.9a.774.774 0 1 1 .774.774.774.774 0 0 1-.774-.774z" class="cls-3" data-name="Path 573" transform="translate(-207.876 -84.639)"/>
                <path id="Rectangle_1269" d="M0 0h36.617v3.478H0z" class="cls-4" data-name="Rectangle 1269" transform="translate(3.025 6.572)"/>
                <path id="Rectangle_1272" d="M0 0h4.849v31.442H0z" class="cls-4" data-name="Rectangle 1272" transform="rotate(90 6.192 30.862)"/>
                <path id="Rectangle_1273" d="M0 0h4.679v31.442H0z" class="cls-4" data-name="Rectangle 1273" transform="rotate(90 10.987 26.067)"/>
                <g id="Group_455" data-name="Group 455" transform="translate(-1 -5)">
                    <rect id="Rectangle_1271" width="8.181" height="31.442" class="cls-5" data-name="Rectangle 1271" rx="4.091" transform="rotate(90 -.975 38.619)"/>
                    <text id="SIGN_UP" class="cls-6" data-name="SIGN UP" transform="translate(14.203 45.087)">
                        <tspan x="0" y="0">SIGN UP</tspan>
                    </text>
                </g>
            </g>
            <g id="Group_449" data-name="Group 449" transform="translate(0 40.586)">
                <path id="Path_580" d="M132.043 206.834a.659.659 0 1 1-.659-.659.659.659 0 0 1 .659.659z" class="cls-2" data-name="Path 580" transform="translate(-127.238 -202.688)"/>
                <g id="Group_448" data-name="Group 448">
                    <path id="Path_581" d="M131.384 192.4a.659.659 0 0 0-.659.659v.81a.659.659 0 1 0 1.318 0v-.81a.659.659 0 0 0-.659-.659z" class="cls-2" data-name="Path 581" transform="translate(-127.238 -192.403)"/>
                    <path id="Path_582" d="M139.328 198.135l.573-.573a.659.659 0 0 0 0-.932.659.659 0 0 0-.932 0l-.573.573a.659.659 0 0 0 .932.932z" class="cls-2" data-name="Path 582" transform="translate(-132.822 -195.416)"/>
                    <path id="Path_583" d="M142.769 206.175h-.81a.659.659 0 1 0 0 1.318h.81a.659.659 0 1 0 0-1.318z" class="cls-2" data-name="Path 583" transform="translate(-135.135 -202.688)"/>
                    <path id="Path_584" d="M139.328 213.846a.659.659 0 0 0-.932.932l.573.573a.659.659 0 0 0 .932-.932z" class="cls-2" data-name="Path 584" transform="translate(-132.822 -208.272)"/>
                    <path id="Path_585" d="M131.384 216.75a.659.659 0 0 0-.659.659v.81a.659.659 0 0 0 1.318 0v-.81a.659.659 0 0 0-.659-.659z" class="cls-2" data-name="Path 585" transform="translate(-127.238 -210.585)"/>
                    <path id="Path_586" d="M121.752 213.846l-.572.573a.659.659 0 0 0 .932.932l.572-.573a.659.659 0 1 0-.932-.932z" class="cls-2" data-name="Path 586" transform="translate(-119.965 -208.272)"/>
                    <path id="Path_587" d="M119.081 206.834a.659.659 0 0 0-.659-.659h-.81a.659.659 0 0 0 0 1.318h.81a.659.659 0 0 0 .659-.659z" class="cls-2" data-name="Path 587" transform="translate(-116.953 -202.688)"/>
                    <path id="Path_588" d="M122.112 196.63a.659.659 0 0 0-.932 0 .659.659 0 0 0 0 .932l.572.573a.659.659 0 1 0 .932-.932z" class="cls-2" data-name="Path 588" transform="translate(-119.965 -195.416)"/>
                </g>
            </g>
            <g id="Group_451" data-name="Group 451" transform="translate(59.087 17.346)">
                <path id="Path_589" d="M365.387 115.055a.659.659 0 1 1-.659-.659.659.659 0 0 1 .659.659z" class="cls-2" data-name="Path 589" transform="translate(-360.582 -110.908)"/>
                <g id="Group_450" data-name="Group 450">
                    <path id="Path_590" d="M364.728 100.623a.659.659 0 0 0-.659.659v.81a.659.659 0 1 0 1.318 0v-.81a.659.659 0 0 0-.659-.659z" class="cls-2" data-name="Path 590" transform="translate(-360.582 -100.623)"/>
                    <path id="Path_591" d="M372.672 106.355l.572-.573a.659.659 0 0 0 0-.932.659.659 0 0 0-.932 0l-.573.573a.659.659 0 0 0 .932.932z" class="cls-2" data-name="Path 591" transform="translate(-366.166 -103.636)"/>
                    <path id="Path_592" d="M376.113 114.4h-.81a.659.659 0 1 0 0 1.318h.81a.659.659 0 1 0 0-1.318z" class="cls-2" data-name="Path 592" transform="translate(-368.479 -110.908)"/>
                    <path id="Path_593" d="M372.672 122.066a.659.659 0 0 0-.932.932l.573.573a.659.659 0 0 0 .932-.932z" class="cls-2" data-name="Path 593" transform="translate(-366.166 -116.492)"/>
                    <path id="Path_594" d="M364.728 124.971a.659.659 0 0 0-.659.659v.81a.659.659 0 1 0 1.318 0v-.81a.659.659 0 0 0-.659-.659z" class="cls-2" data-name="Path 594" transform="translate(-360.582 -118.806)"/>
                    <path id="Path_595" d="M355.1 122.066l-.573.572a.659.659 0 0 0 .932.932l.573-.573a.659.659 0 1 0-.932-.932z" class="cls-2" data-name="Path 595" transform="translate(-353.31 -116.492)"/>
                    <path id="Path_596" d="M352.425 115.055a.659.659 0 0 0-.659-.659h-.81a.659.659 0 1 0 0 1.318h.81a.659.659 0 0 0 .659-.659z" class="cls-2" data-name="Path 596" transform="translate(-350.297 -110.908)"/>
                    <path id="Path_597" d="M355.456 104.85a.659.659 0 0 0-.932 0 .659.659 0 0 0 0 .932l.573.573a.659.659 0 1 0 .932-.932z" class="cls-2" data-name="Path 597" transform="translate(-353.31 -103.636)"/>
                </g>
            </g>
            <g id="Group_453" data-name="Group 453" transform="translate(34.758)">
                <path id="Path_598" d="M266.054 43.445a.517.517 0 1 1-.517-.517.517.517 0 0 1 .517.517z" class="cls-2" data-name="Path 598" transform="translate(-262.284 -40.192)"/>
                <g id="Group_452" data-name="Group 452">
                    <path id="Path_599" d="M265.537 32.123a.517.517 0 0 0-.517.517v.635a.517.517 0 1 0 1.034 0v-.635a.517.517 0 0 0-.517-.517z" class="cls-2" data-name="Path 599" transform="translate(-262.284 -32.123)"/>
                    <path id="Path_600" d="M271.77 36.619l.449-.449a.517.517 0 0 0 0-.731.517.517 0 0 0-.731 0l-.449.449a.517.517 0 0 0 .731.731z" class="cls-2" data-name="Path 600" transform="translate(-266.666 -34.486)"/>
                    <path id="Path_601" d="M274.469 42.928h-.635a.517.517 0 1 0 0 1.034h.635a.517.517 0 1 0 0-1.034z" class="cls-2" data-name="Path 601" transform="translate(-268.48 -40.192)"/>
                    <path id="Path_602" d="M271.77 48.946a.517.517 0 1 0-.731.731l.449.449a.517.517 0 1 0 .731-.731z" class="cls-2" data-name="Path 602" transform="translate(-266.666 -44.573)"/>
                    <path id="Path_603" d="M265.537 51.224a.517.517 0 0 0-.517.517v.635a.517.517 0 1 0 1.034 0v-.635a.517.517 0 0 0-.517-.517z" class="cls-2" data-name="Path 603" transform="translate(-262.284 -46.387)"/>
                    <path id="Path_604" d="M257.981 48.946l-.449.449a.517.517 0 1 0 .731.731l.449-.449a.517.517 0 1 0-.731-.731z" class="cls-2" data-name="Path 604" transform="translate(-256.579 -44.573)"/>
                    <path id="Path_605" d="M255.885 43.445a.517.517 0 0 0-.517-.517h-.635a.517.517 0 0 0 0 1.034h.635a.517.517 0 0 0 .517-.517z" class="cls-2" data-name="Path 605" transform="translate(-254.216 -40.192)"/>
                    <path id="Path_606" d="M258.263 35.439a.517.517 0 0 0-.731 0 .517.517 0 0 0 0 .731l.449.449a.517.517 0 1 0 .731-.731z" class="cls-2" data-name="Path 606" transform="translate(-256.579 -34.486)"/>
                </g>
            </g>
            <path id="Path_607" d="M348.511 149.514a.916.916 0 1 1-.916-.916.916.916 0 0 1 .916.916z" class="cls-2" data-name="Path 607" transform="translate(-288.507 -119.104)"/>
            <path id="Path_608" d="M151.536 162.357a.916.916 0 1 1-.916-.916.917.917 0 0 1 .916.916z" class="cls-2" data-name="Path 608" transform="translate(-141.41 -128.695)"/>
            <path id="Path_609" d="M127.188 126.637a.917.917 0 1 1-.916-.916.916.916 0 0 1 .916.916z" class="cls-2" data-name="Path 609" transform="translate(-123.227 -102.02)"/>
            <path id="Path_610" d="M310.807 57.128a.916.916 0 1 1-.916-.917.916.916 0 0 1 .916.917z" class="cls-2" data-name="Path 610" transform="translate(-260.35 -50.111)"/>
            <path id="Path_611" d="M182.994 46.091a.917.917 0 1 1-.916-.916.916.916 0 0 1 .916.916z" class="cls-2" data-name="Path 611" transform="translate(-164.902 -41.87)"/>
            <path id="Path_612" d="M349.093 77.357a.916.916 0 1 1-.916-.916.916.916 0 0 1 .916.916z" class="cls-2" data-name="Path 612" transform="translate(-288.942 -65.219)"/>
            <path id="Path_613" d="M356.278 46.091a.916.916 0 1 1-.916-.916.916.916 0 0 1 .916.916z" class="cls-2" data-name="Path 613" transform="translate(-294.307 -41.87)"/>
        </g>
        <g id="Group_447" data-name="Group 447" transform="translate(855.071 1488.399)">
            <path id="Path_624" d="M438.873 190.373L434.4 180.02l-15.106-7.82-6.506-9.037-3.066-7.678s2.345-2.171 3.962-.694 4.133 6.393 4.133 6.393l2.977 3.035L408 135.529a2.233 2.233 0 0 1 1.141-3.383c2.291-.968 2.867.871 3.869 2.558.133.225 11 19.624 11 19.624l8.462 10.12 11.626 23.673z" class="cls-7" data-name="Path 624" transform="translate(-407.602 -131.877)"/>
            <path id="Path_625" d="M436.279 158.263a3.007 3.007 0 0 1-1.57 3.951 3.007 3.007 0 0 1-3.95-1.569l-5.178-12a3.007 3.007 0 0 1 1.569-3.95 3.006 3.006 0 0 1 3.952 1.569z" class="cls-7" data-name="Path 625" transform="translate(-414.901 -137.051)"/>
            <path id="Path_626" d="M445.918 157.72a2.569 2.569 0 0 1-1.34 3.377 2.569 2.569 0 0 1-3.376-1.342l-4.425-10.255a2.568 2.568 0 0 1 1.341-3.376 2.568 2.568 0 0 1 3.375 1.342z" class="cls-7" data-name="Path 626" transform="translate(-419.524 -137.654)"/>
            <path id="Path_627" d="M456.5 160.217a2.567 2.567 0 0 1-1.34 3.376 2.568 2.568 0 0 1-3.376-1.341L447.363 152a2.57 2.57 0 0 1 1.341-3.377 2.568 2.568 0 0 1 3.376 1.342z" class="cls-7" data-name="Path 627" transform="translate(-423.881 -138.682)"/>
            <path id="Path_628" d="M449.919 162.706l7 16.214 7.432 17.225-12.124 5.23-12.807-29.684-5.043-.893s-.98-3.186.524-4.407a55.491 55.491 0 0 1 6.446-4.115c.735-.317 5.616-1.09 5.616-1.09z" class="cls-7" data-name="Path 628" transform="translate(-418.492 -143.942)"/>
            <rect id="Rectangle_1274" width="21.766" height="13.745" class="cls-8" data-name="Rectangle 1274" rx="6.872" transform="rotate(-30 106.663 -20.85)"/>
        </g>
    </g>
</svg>
