<svg xmlns="http://www.w3.org/2000/svg" width="73.256" height="95.327" viewBox="0 0 73.256 95.327">
    <defs>
        <style>
            .cls-1{fill:#fff}.cls-2{opacity:.744}.cls-3{clip-path:url(#clip-path)}.cls-4{fill:#e1dcef}
        </style>
        <clipPath id="clip-path">
            <path id="Path_200" d="M29.5 69.752V28.05C30.534 9.708 39.15 0 56.382 0H78.4c3.638 0 24.029 5.84 24.029 30.444S83.092 56.292 80.795 56.292C67.2 55.526 63.084 64.334 58.68 73.237h-2.393l9.669-28.05c11.795-.249 19.319-7.046 20.181-24.029 0 0-25.083.191-30.061.191-3.887 0-2.929-3.006-2.929-5.591s-.326-3.791-1.379-3.791-6.989 4.6-6.989 14.264v17.233C44.779 45 29.5 69.752 29.5 69.752z" class="cls-1" data-name="Path 200" transform="translate(-29.5)"/>
        </clipPath>
    </defs>
    <g id="Group_466" data-name="Group 466" transform="translate(-137.225 -5568.212)">
        <g id="Group_188" data-name="Group 188" transform="translate(137.55 5568.212)">
            <g id="Group_1" data-name="Group 1" transform="translate(32.818 25.217)">
                <ellipse id="Ellipse_6" cx="2.106" cy="2.106" class="cls-1" data-name="Ellipse 6" rx="2.106" ry="2.106"/>
            </g>
            <g id="Group_2" class="cls-2" data-name="Group 2" transform="translate(49.667 19.855)">
                <path id="Path_198" d="M288.9 105.059c.134 4.442 2.432 6.606 6.051 7.429l3.14-5.782-2.355-3.006z" class="cls-1" data-name="Path 198" transform="translate(-288.9 -103.7)"/>
            </g>
            <g id="Group_137" data-name="Group 137">
                <g id="Group_136" data-name="Group 136">
                    <path id="Path_199" d="M29.5 69.752V28.05C30.534 9.708 39.15 0 56.382 0H78.4c3.638 0 24.029 5.84 24.029 30.444S83.092 56.292 80.795 56.292C67.2 55.526 63.084 64.334 58.68 73.237h-2.393l9.669-28.05c11.795-.249 19.319-7.046 20.181-24.029 0 0-25.083.191-30.061.191-3.887 0-2.929-3.006-2.929-5.591s-.326-3.791-1.379-3.791-6.989 4.6-6.989 14.264v17.233C44.779 45 29.5 69.752 29.5 69.752z" class="cls-1" data-name="Path 199" transform="translate(-29.5)"/>
                    <g id="Group_4" class="cls-3" data-name="Group 4">
                        <path id="Rectangle_451" d="M0 0h72.912v.555H0z" class="cls-1" data-name="Rectangle 451"/>
                    </g>
                    <g id="Group_5" class="cls-3" data-name="Group 5">
                        <path id="Rectangle_452" d="M0 0h72.912v.555H0z" class="cls-1" data-name="Rectangle 452" transform="translate(0 .555)"/>
                    </g>
                    <g id="Group_6" class="cls-3" data-name="Group 6">
                        <path id="Rectangle_453" d="M0 0h72.912v.555H0z" class="cls-1" data-name="Rectangle 453" transform="translate(0 1.111)"/>
                    </g>
                    <g id="Group_7" class="cls-3" data-name="Group 7">
                        <path id="Rectangle_454" d="M0 0h72.912v.555H0z" class="cls-1" data-name="Rectangle 454" transform="translate(0 1.685)"/>
                    </g>
                    <g id="Group_8" class="cls-3" data-name="Group 8">
                        <path id="Rectangle_455" d="M0 0h72.912v.555H0z" class="cls-1" data-name="Rectangle 455" transform="translate(0 2.24)"/>
                    </g>
                    <g id="Group_9" class="cls-3" data-name="Group 9">
                        <path id="Rectangle_456" d="M0 0h72.912v.555H0z" class="cls-1" data-name="Rectangle 456" transform="translate(0 2.795)"/>
                    </g>
                    <g id="Group_10" class="cls-3" data-name="Group 10">
                        <path id="Rectangle_457" d="M0 0h72.912v.555H0z" class="cls-1" data-name="Rectangle 457" transform="translate(0 3.351)"/>
                    </g>
                    <g id="Group_11" class="cls-3" data-name="Group 11">
                        <path id="Rectangle_458" d="M0 0h72.912v.555H0z" class="cls-1" data-name="Rectangle 458" transform="translate(0 3.906)"/>
                    </g>
                    <g id="Group_12" class="cls-3" data-name="Group 12">
                        <path id="Rectangle_459" d="M0 0h72.912v.555H0z" class="cls-1" data-name="Rectangle 459" transform="translate(0 4.48)"/>
                    </g>
                    <g id="Group_13" class="cls-3" data-name="Group 13">
                        <path id="Rectangle_460" d="M0 0h72.912v.555H0z" class="cls-1" data-name="Rectangle 460" transform="translate(0 5.036)"/>
                    </g>
                    <g id="Group_14" class="cls-3" data-name="Group 14">
                        <path id="Rectangle_461" d="M0 0h72.912v.555H0z" class="cls-1" data-name="Rectangle 461" transform="translate(0 5.591)"/>
                    </g>
                    <g id="Group_15" class="cls-3" data-name="Group 15">
                        <path id="Rectangle_462" d="M0 0h72.912v.555H0z" class="cls-1" data-name="Rectangle 462" transform="translate(0 6.146)"/>
                    </g>
                    <g id="Group_16" class="cls-3" data-name="Group 16">
                        <path id="Rectangle_463" d="M0 0h72.912v.555H0z" class="cls-1" data-name="Rectangle 463" transform="translate(0 6.701)"/>
                    </g>
                    <g id="Group_17" class="cls-3" data-name="Group 17">
                        <path id="Rectangle_464" d="M0 0h72.912v.555H0z" class="cls-1" data-name="Rectangle 464" transform="translate(0 7.276)"/>
                    </g>
                    <g id="Group_18" class="cls-3" data-name="Group 18">
                        <path id="Rectangle_465" d="M0 0h72.912v.555H0z" class="cls-1" data-name="Rectangle 465" transform="translate(0 7.831)"/>
                    </g>
                    <g id="Group_19" class="cls-3" data-name="Group 19">
                        <path id="Rectangle_466" d="M0 0h72.912v.555H0z" class="cls-1" data-name="Rectangle 466" transform="translate(0 8.386)"/>
                    </g>
                    <g id="Group_20" class="cls-3" data-name="Group 20">
                        <path id="Rectangle_467" d="M0 0h72.912v.555H0z" class="cls-1" data-name="Rectangle 467" transform="translate(0 8.942)"/>
                    </g>
                    <g id="Group_21" class="cls-3" data-name="Group 21">
                        <path id="Rectangle_468" d="M0 0h72.912v.555H0z" class="cls-1" data-name="Rectangle 468" transform="translate(0 9.497)"/>
                    </g>
                    <g id="Group_22" class="cls-3" data-name="Group 22">
                        <path id="Rectangle_469" d="M0 0h72.912v.555H0z" class="cls-1" data-name="Rectangle 469" transform="translate(0 10.071)"/>
                    </g>
                    <g id="Group_23" class="cls-3" data-name="Group 23">
                        <path id="Rectangle_470" d="M0 0h72.912v.555H0z" class="cls-1" data-name="Rectangle 470" transform="translate(0 10.627)"/>
                    </g>
                    <g id="Group_24" class="cls-3" data-name="Group 24">
                        <path id="Rectangle_471" d="M0 0h72.912v.555H0z" class="cls-1" data-name="Rectangle 471" transform="translate(0 11.182)"/>
                    </g>
                    <g id="Group_25" class="cls-3" data-name="Group 25">
                        <path id="Rectangle_472" d="M0 0h72.912v.555H0z" class="cls-1" data-name="Rectangle 472" transform="translate(0 11.737)"/>
                    </g>
                    <g id="Group_26" class="cls-3" data-name="Group 26">
                        <path id="Rectangle_473" d="M0 0h72.912v.555H0z" class="cls-1" data-name="Rectangle 473" transform="translate(0 12.292)"/>
                    </g>
                    <g id="Group_27" class="cls-3" data-name="Group 27">
                        <path id="Rectangle_474" d="M0 0h72.912v.555H0z" class="cls-1" data-name="Rectangle 474" transform="translate(0 12.867)"/>
                    </g>
                    <g id="Group_28" class="cls-3" data-name="Group 28">
                        <path id="Rectangle_475" d="M0 0h72.912v.555H0z" class="cls-1" data-name="Rectangle 475" transform="translate(0 13.422)"/>
                    </g>
                    <g id="Group_29" class="cls-3" data-name="Group 29">
                        <path id="Rectangle_476" d="M0 0h72.912v.555H0z" class="cls-1" data-name="Rectangle 476" transform="translate(0 13.977)"/>
                    </g>
                    <g id="Group_30" class="cls-3" data-name="Group 30">
                        <path id="Rectangle_477" d="M0 0h72.912v.555H0z" class="cls-1" data-name="Rectangle 477" transform="translate(0 14.533)"/>
                    </g>
                    <g id="Group_31" class="cls-3" data-name="Group 31">
                        <path id="Rectangle_478" d="M0 0h72.912v.555H0z" class="cls-1" data-name="Rectangle 478" transform="translate(0 15.088)"/>
                    </g>
                    <g id="Group_32" class="cls-3" data-name="Group 32">
                        <path id="Rectangle_479" d="M0 0h72.912v.555H0z" class="cls-1" data-name="Rectangle 479" transform="translate(0 15.662)"/>
                    </g>
                    <g id="Group_33" class="cls-3" data-name="Group 33">
                        <path id="Rectangle_480" d="M0 0h72.912v.555H0z" class="cls-1" data-name="Rectangle 480" transform="translate(0 16.217)"/>
                    </g>
                    <g id="Group_34" class="cls-3" data-name="Group 34">
                        <path id="Rectangle_481" d="M0 0h72.912v.555H0z" class="cls-1" data-name="Rectangle 481" transform="translate(0 16.773)"/>
                    </g>
                    <g id="Group_35" class="cls-3" data-name="Group 35">
                        <path id="Rectangle_482" d="M0 0h72.912v.555H0z" class="cls-1" data-name="Rectangle 482" transform="translate(0 17.328)"/>
                    </g>
                    <g id="Group_36" class="cls-3" data-name="Group 36">
                        <path id="Rectangle_483" d="M0 0h72.912v.555H0z" class="cls-1" data-name="Rectangle 483" transform="translate(0 17.883)"/>
                    </g>
                    <g id="Group_37" class="cls-3" data-name="Group 37">
                        <path id="Rectangle_484" d="M0 0h72.912v.555H0z" class="cls-1" data-name="Rectangle 484" transform="translate(0 18.458)"/>
                    </g>
                    <g id="Group_38" class="cls-3" data-name="Group 38">
                        <path id="Rectangle_485" d="M0 0h72.912v.555H0z" class="cls-1" data-name="Rectangle 485" transform="translate(0 19.013)"/>
                    </g>
                    <g id="Group_39" class="cls-3" data-name="Group 39">
                        <path id="Rectangle_486" d="M0 0h72.912v.555H0z" class="cls-1" data-name="Rectangle 486" transform="translate(0 19.568)"/>
                    </g>
                    <g id="Group_40" class="cls-3" data-name="Group 40">
                        <path id="Rectangle_487" d="M0 0h72.912v.555H0z" class="cls-1" data-name="Rectangle 487" transform="translate(0 20.123)"/>
                    </g>
                    <g id="Group_41" class="cls-3" data-name="Group 41">
                        <path id="Rectangle_488" d="M0 0h72.912v.555H0z" class="cls-1" data-name="Rectangle 488" transform="translate(0 20.679)"/>
                    </g>
                    <g id="Group_42" class="cls-3" data-name="Group 42">
                        <path id="Rectangle_489" d="M0 0h72.912v.555H0z" class="cls-1" data-name="Rectangle 489" transform="translate(0 21.253)"/>
                    </g>
                    <g id="Group_43" class="cls-3" data-name="Group 43">
                        <path id="Rectangle_490" d="M0 0h72.912v.555H0z" class="cls-1" data-name="Rectangle 490" transform="translate(0 21.808)"/>
                    </g>
                    <g id="Group_44" class="cls-3" data-name="Group 44">
                        <path id="Rectangle_491" d="M0 0h72.912v.555H0z" class="cls-1" data-name="Rectangle 491" transform="translate(0 22.364)"/>
                    </g>
                    <g id="Group_45" class="cls-3" data-name="Group 45">
                        <path id="Rectangle_492" d="M0 0h72.912v.555H0z" class="cls-1" data-name="Rectangle 492" transform="translate(0 22.919)"/>
                    </g>
                    <g id="Group_46" class="cls-3" data-name="Group 46">
                        <path id="Rectangle_493" d="M0 0h72.912v.555H0z" class="cls-1" data-name="Rectangle 493" transform="translate(0 23.474)"/>
                    </g>
                    <g id="Group_47" class="cls-3" data-name="Group 47">
                        <path id="Rectangle_494" d="M0 0h72.912v.555H0z" class="cls-1" data-name="Rectangle 494" transform="translate(0 24.049)"/>
                    </g>
                    <g id="Group_48" class="cls-3" data-name="Group 48">
                        <path id="Rectangle_495" d="M0 0h72.912v.555H0z" class="cls-1" data-name="Rectangle 495" transform="translate(0 24.604)"/>
                    </g>
                    <g id="Group_49" class="cls-3" data-name="Group 49">
                        <path id="Rectangle_496" d="M0 0h72.912v.555H0z" class="cls-1" data-name="Rectangle 496" transform="translate(0 25.159)"/>
                    </g>
                    <g id="Group_50" class="cls-3" data-name="Group 50">
                        <path id="Rectangle_497" d="M0 0h72.912v.555H0z" class="cls-1" data-name="Rectangle 497" transform="translate(0 25.714)"/>
                    </g>
                    <g id="Group_51" class="cls-3" data-name="Group 51">
                        <path id="Rectangle_498" d="M0 0h72.912v.555H0z" class="cls-1" data-name="Rectangle 498" transform="translate(0 26.27)"/>
                    </g>
                    <g id="Group_52" class="cls-3" data-name="Group 52">
                        <path id="Rectangle_499" d="M0 0h72.912v.555H0z" class="cls-1" data-name="Rectangle 499" transform="translate(0 26.844)"/>
                    </g>
                    <g id="Group_53" class="cls-3" data-name="Group 53">
                        <path id="Rectangle_500" d="M0 0h72.912v.555H0z" class="cls-1" data-name="Rectangle 500" transform="translate(0 27.399)"/>
                    </g>
                    <g id="Group_54" class="cls-3" data-name="Group 54">
                        <path id="Rectangle_501" d="M0 0h72.912v.555H0z" class="cls-1" data-name="Rectangle 501" transform="translate(0 27.955)"/>
                    </g>
                    <g id="Group_55" class="cls-3" data-name="Group 55">
                        <path id="Rectangle_502" d="M0 0h72.912v.555H0z" class="cls-1" data-name="Rectangle 502" transform="translate(0 28.51)"/>
                    </g>
                    <g id="Group_56" class="cls-3" data-name="Group 56">
                        <path id="Rectangle_503" d="M0 0h72.912v.555H0z" class="cls-1" data-name="Rectangle 503" transform="translate(0 29.065)"/>
                    </g>
                    <g id="Group_57" class="cls-3" data-name="Group 57">
                        <path id="Rectangle_504" d="M0 0h72.912v.555H0z" class="cls-1" data-name="Rectangle 504" transform="translate(0 29.64)"/>
                    </g>
                    <g id="Group_58" class="cls-3" data-name="Group 58">
                        <path id="Rectangle_505" d="M0 0h72.912v.555H0z" class="cls-1" data-name="Rectangle 505" transform="translate(0 30.195)"/>
                    </g>
                    <g id="Group_59" class="cls-3" data-name="Group 59">
                        <path id="Rectangle_506" d="M0 0h72.912v.555H0z" class="cls-1" data-name="Rectangle 506" transform="translate(0 30.75)"/>
                    </g>
                    <g id="Group_60" class="cls-3" data-name="Group 60">
                        <path id="Rectangle_507" d="M0 0h72.912v.555H0z" class="cls-1" data-name="Rectangle 507" transform="translate(0 31.305)"/>
                    </g>
                    <g id="Group_61" class="cls-3" data-name="Group 61">
                        <path id="Rectangle_508" d="M0 0h72.912v.555H0z" class="cls-1" data-name="Rectangle 508" transform="translate(0 31.861)"/>
                    </g>
                    <g id="Group_62" class="cls-3" data-name="Group 62">
                        <path id="Rectangle_509" d="M0 0h72.912v.555H0z" class="cls-1" data-name="Rectangle 509" transform="translate(0 32.435)"/>
                    </g>
                    <g id="Group_63" class="cls-3" data-name="Group 63">
                        <path id="Rectangle_510" d="M0 0h72.912v.555H0z" class="cls-1" data-name="Rectangle 510" transform="translate(0 32.99)"/>
                    </g>
                    <g id="Group_64" class="cls-3" data-name="Group 64">
                        <path id="Rectangle_511" d="M0 0h72.912v.555H0z" class="cls-1" data-name="Rectangle 511" transform="translate(0 33.545)"/>
                    </g>
                    <g id="Group_65" class="cls-3" data-name="Group 65">
                        <path id="Rectangle_512" d="M0 0h72.912v.555H0z" class="cls-1" data-name="Rectangle 512" transform="translate(0 34.101)"/>
                    </g>
                    <g id="Group_66" class="cls-3" data-name="Group 66">
                        <path id="Rectangle_513" d="M0 0h72.912v.555H0z" class="cls-1" data-name="Rectangle 513" transform="translate(0 34.656)"/>
                    </g>
                    <g id="Group_67" class="cls-3" data-name="Group 67">
                        <path id="Rectangle_514" d="M0 0h72.912v.555H0z" class="cls-1" data-name="Rectangle 514" transform="translate(0 35.23)"/>
                    </g>
                    <g id="Group_68" class="cls-3" data-name="Group 68">
                        <path id="Rectangle_515" d="M0 0h72.912v.555H0z" class="cls-1" data-name="Rectangle 515" transform="translate(0 35.786)"/>
                    </g>
                    <g id="Group_69" class="cls-3" data-name="Group 69">
                        <path id="Rectangle_516" d="M0 0h72.912v.555H0z" class="cls-1" data-name="Rectangle 516" transform="translate(0 36.341)"/>
                    </g>
                    <g id="Group_70" class="cls-3" data-name="Group 70">
                        <path id="Rectangle_517" d="M0 0h72.912v.555H0z" class="cls-1" data-name="Rectangle 517" transform="translate(0 36.896)"/>
                    </g>
                    <g id="Group_71" class="cls-3" data-name="Group 71">
                        <path id="Rectangle_518" d="M0 0h72.912v.555H0z" class="cls-1" data-name="Rectangle 518" transform="translate(0 37.451)"/>
                    </g>
                    <g id="Group_72" class="cls-3" data-name="Group 72">
                        <path id="Rectangle_519" d="M0 0h72.912v.555H0z" class="cls-1" data-name="Rectangle 519" transform="translate(0 38.007)"/>
                    </g>
                    <g id="Group_73" class="cls-3" data-name="Group 73">
                        <path id="Rectangle_520" d="M0 0h72.912v.555H0z" class="cls-1" data-name="Rectangle 520" transform="translate(0 38.581)"/>
                    </g>
                    <g id="Group_74" class="cls-3" data-name="Group 74">
                        <path id="Rectangle_521" d="M0 0h72.912v.555H0z" class="cls-1" data-name="Rectangle 521" transform="translate(0 39.136)"/>
                    </g>
                    <g id="Group_75" class="cls-3" data-name="Group 75">
                        <path id="Rectangle_522" d="M0 0h72.912v.555H0z" class="cls-1" data-name="Rectangle 522" transform="translate(0 39.692)"/>
                    </g>
                    <g id="Group_76" class="cls-3" data-name="Group 76">
                        <path id="Rectangle_523" d="M0 0h72.912v.555H0z" class="cls-1" data-name="Rectangle 523" transform="translate(0 40.247)"/>
                    </g>
                    <g id="Group_77" class="cls-3" data-name="Group 77">
                        <path id="Rectangle_524" d="M0 0h72.912v.555H0z" class="cls-1" data-name="Rectangle 524" transform="translate(0 40.802)"/>
                    </g>
                    <g id="Group_78" class="cls-3" data-name="Group 78">
                        <path id="Rectangle_525" d="M0 0h72.912v.555H0z" class="cls-1" data-name="Rectangle 525" transform="translate(0 41.377)"/>
                    </g>
                    <g id="Group_79" class="cls-3" data-name="Group 79">
                        <path id="Rectangle_526" d="M0 0h72.912v.555H0z" class="cls-1" data-name="Rectangle 526" transform="translate(0 41.932)"/>
                    </g>
                    <g id="Group_80" class="cls-3" data-name="Group 80">
                        <path id="Rectangle_527" d="M0 0h72.912v.555H0z" class="cls-1" data-name="Rectangle 527" transform="translate(0 42.487)"/>
                    </g>
                    <g id="Group_81" class="cls-3" data-name="Group 81">
                        <path id="Rectangle_528" d="M0 0h72.912v.555H0z" class="cls-1" data-name="Rectangle 528" transform="translate(0 43.042)"/>
                    </g>
                    <g id="Group_82" class="cls-3" data-name="Group 82">
                        <path id="Rectangle_529" d="M0 0h72.912v.555H0z" class="cls-1" data-name="Rectangle 529" transform="translate(0 43.598)"/>
                    </g>
                    <g id="Group_83" class="cls-3" data-name="Group 83">
                        <path id="Rectangle_530" d="M0 0h72.912v.555H0z" class="cls-1" data-name="Rectangle 530" transform="translate(0 44.172)"/>
                    </g>
                    <g id="Group_84" class="cls-3" data-name="Group 84">
                        <path id="Rectangle_531" d="M0 0h72.912v.555H0z" class="cls-1" data-name="Rectangle 531" transform="translate(0 44.727)"/>
                    </g>
                    <g id="Group_85" class="cls-3" data-name="Group 85">
                        <path id="Rectangle_532" d="M0 0h72.912v.555H0z" class="cls-1" data-name="Rectangle 532" transform="translate(0 45.283)"/>
                    </g>
                    <g id="Group_86" class="cls-3" data-name="Group 86">
                        <path id="Rectangle_533" d="M0 0h72.912v.555H0z" class="cls-1" data-name="Rectangle 533" transform="translate(0 45.838)"/>
                    </g>
                    <g id="Group_87" class="cls-3" data-name="Group 87">
                        <path id="Rectangle_534" d="M0 0h72.912v.555H0z" class="cls-1" data-name="Rectangle 534" transform="translate(0 46.393)"/>
                    </g>
                    <g id="Group_88" class="cls-3" data-name="Group 88">
                        <path id="Rectangle_535" d="M0 0h72.912v.555H0z" class="cls-1" data-name="Rectangle 535" transform="translate(0 46.968)"/>
                    </g>
                    <g id="Group_89" class="cls-3" data-name="Group 89">
                        <path id="Rectangle_536" d="M0 0h72.912v.555H0z" class="cls-1" data-name="Rectangle 536" transform="translate(0 47.523)"/>
                    </g>
                    <g id="Group_90" class="cls-3" data-name="Group 90">
                        <path id="Rectangle_537" d="M0 0h72.912v.555H0z" class="cls-1" data-name="Rectangle 537" transform="translate(0 48.078)"/>
                    </g>
                    <g id="Group_91" class="cls-3" data-name="Group 91">
                        <path id="Rectangle_538" d="M0 0h72.912v.555H0z" class="cls-1" data-name="Rectangle 538" transform="translate(0 48.633)"/>
                    </g>
                    <g id="Group_92" class="cls-3" data-name="Group 92">
                        <path id="Rectangle_539" d="M0 0h72.912v.555H0z" class="cls-1" data-name="Rectangle 539" transform="translate(0 49.189)"/>
                    </g>
                    <g id="Group_93" class="cls-3" data-name="Group 93">
                        <path id="Rectangle_540" d="M0 0h72.912v.555H0z" class="cls-1" data-name="Rectangle 540" transform="translate(0 49.763)"/>
                    </g>
                    <g id="Group_94" class="cls-3" data-name="Group 94">
                        <path id="Rectangle_541" d="M0 0h72.912v.555H0z" class="cls-1" data-name="Rectangle 541" transform="translate(0 50.318)"/>
                    </g>
                    <g id="Group_95" class="cls-3" data-name="Group 95">
                        <path id="Rectangle_542" d="M0 0h72.912v.555H0z" class="cls-1" data-name="Rectangle 542" transform="translate(0 50.874)"/>
                    </g>
                    <g id="Group_96" class="cls-3" data-name="Group 96">
                        <path id="Rectangle_543" d="M0 0h72.912v.555H0z" class="cls-1" data-name="Rectangle 543" transform="translate(0 51.429)"/>
                    </g>
                    <g id="Group_97" class="cls-3" data-name="Group 97">
                        <path id="Rectangle_544" d="M0 0h72.912v.555H0z" class="cls-1" data-name="Rectangle 544" transform="translate(0 51.984)"/>
                    </g>
                    <g id="Group_98" class="cls-3" data-name="Group 98">
                        <path id="Rectangle_545" d="M0 0h72.912v.555H0z" class="cls-1" data-name="Rectangle 545" transform="translate(0 52.558)"/>
                    </g>
                    <g id="Group_99" class="cls-3" data-name="Group 99">
                        <path id="Rectangle_546" d="M0 0h72.912v.555H0z" class="cls-1" data-name="Rectangle 546" transform="translate(0 53.114)"/>
                    </g>
                    <g id="Group_100" class="cls-3" data-name="Group 100">
                        <path id="Rectangle_547" d="M0 0h72.912v.555H0z" class="cls-1" data-name="Rectangle 547" transform="translate(0 53.669)"/>
                    </g>
                    <g id="Group_101" class="cls-3" data-name="Group 101">
                        <path id="Rectangle_548" d="M0 0h72.912v.555H0z" class="cls-1" data-name="Rectangle 548" transform="translate(0 54.224)"/>
                    </g>
                    <g id="Group_102" class="cls-3" data-name="Group 102">
                        <path id="Rectangle_549" d="M0 0h72.912v.555H0z" class="cls-1" data-name="Rectangle 549" transform="translate(0 54.779)"/>
                    </g>
                    <g id="Group_103" class="cls-3" data-name="Group 103">
                        <path id="Rectangle_550" d="M0 0h72.912v.555H0z" class="cls-1" data-name="Rectangle 550" transform="translate(0 55.354)"/>
                    </g>
                    <g id="Group_104" class="cls-3" data-name="Group 104">
                        <path id="Rectangle_551" d="M0 0h72.912v.555H0z" class="cls-1" data-name="Rectangle 551" transform="translate(0 55.909)"/>
                    </g>
                    <g id="Group_105" class="cls-3" data-name="Group 105">
                        <path id="Rectangle_552" d="M0 0h72.912v.555H0z" class="cls-1" data-name="Rectangle 552" transform="translate(0 56.464)"/>
                    </g>
                    <g id="Group_106" class="cls-3" data-name="Group 106">
                        <path id="Rectangle_553" d="M0 0h72.912v.555H0z" class="cls-1" data-name="Rectangle 553" transform="translate(0 57.02)"/>
                    </g>
                    <g id="Group_107" class="cls-3" data-name="Group 107">
                        <path id="Rectangle_554" d="M0 0h72.912v.555H0z" class="cls-1" data-name="Rectangle 554" transform="translate(0 57.575)"/>
                    </g>
                    <g id="Group_108" class="cls-3" data-name="Group 108">
                        <path id="Rectangle_555" d="M0 0h72.912v.555H0z" class="cls-1" data-name="Rectangle 555" transform="translate(0 58.149)"/>
                    </g>
                    <g id="Group_109" class="cls-3" data-name="Group 109">
                        <path id="Rectangle_556" d="M0 0h72.912v.555H0z" class="cls-1" data-name="Rectangle 556" transform="translate(0 58.705)"/>
                    </g>
                    <g id="Group_110" class="cls-3" data-name="Group 110">
                        <path id="Rectangle_557" d="M0 0h72.912v.555H0z" class="cls-1" data-name="Rectangle 557" transform="translate(0 59.26)"/>
                    </g>
                    <g id="Group_111" class="cls-3" data-name="Group 111">
                        <path id="Rectangle_558" d="M0 0h72.912v.555H0z" class="cls-1" data-name="Rectangle 558" transform="translate(0 59.815)"/>
                    </g>
                    <g id="Group_112" class="cls-3" data-name="Group 112">
                        <path id="Rectangle_559" d="M0 0h72.912v.555H0z" class="cls-1" data-name="Rectangle 559" transform="translate(0 60.37)"/>
                    </g>
                    <g id="Group_113" class="cls-3" data-name="Group 113">
                        <path id="Rectangle_560" d="M0 0h72.912v.555H0z" class="cls-1" data-name="Rectangle 560" transform="translate(0 60.945)"/>
                    </g>
                    <g id="Group_114" class="cls-3" data-name="Group 114">
                        <path id="Rectangle_561" d="M0 0h72.912v.555H0z" class="cls-1" data-name="Rectangle 561" transform="translate(0 61.5)"/>
                    </g>
                    <g id="Group_115" class="cls-3" data-name="Group 115">
                        <path id="Rectangle_562" d="M0 0h72.912v.555H0z" class="cls-1" data-name="Rectangle 562" transform="translate(0 62.055)"/>
                    </g>
                    <g id="Group_116" class="cls-3" data-name="Group 116">
                        <path id="Rectangle_563" d="M0 0h72.912v.555H0z" class="cls-1" data-name="Rectangle 563" transform="translate(0 62.611)"/>
                    </g>
                    <g id="Group_117" class="cls-3" data-name="Group 117">
                        <path id="Rectangle_564" d="M0 0h72.912v.555H0z" class="cls-1" data-name="Rectangle 564" transform="translate(0 63.166)"/>
                    </g>
                    <g id="Group_118" class="cls-3" data-name="Group 118">
                        <path id="Rectangle_565" d="M0 0h72.912v.555H0z" class="cls-1" data-name="Rectangle 565" transform="translate(0 63.74)"/>
                    </g>
                    <g id="Group_119" class="cls-3" data-name="Group 119">
                        <path id="Rectangle_566" d="M0 0h72.912v.555H0z" class="cls-1" data-name="Rectangle 566" transform="translate(0 64.296)"/>
                    </g>
                    <g id="Group_120" class="cls-3" data-name="Group 120">
                        <path id="Rectangle_567" d="M0 0h72.912v.555H0z" class="cls-1" data-name="Rectangle 567" transform="translate(0 64.851)"/>
                    </g>
                    <g id="Group_121" class="cls-3" data-name="Group 121">
                        <path id="Rectangle_568" d="M0 0h72.912v.555H0z" class="cls-1" data-name="Rectangle 568" transform="translate(0 65.406)"/>
                    </g>
                    <g id="Group_122" class="cls-3" data-name="Group 122">
                        <path id="Rectangle_569" d="M0 0h72.912v.555H0z" class="cls-1" data-name="Rectangle 569" transform="translate(0 65.961)"/>
                    </g>
                    <g id="Group_123" class="cls-3" data-name="Group 123">
                        <path id="Rectangle_570" d="M0 0h72.912v.555H0z" class="cls-1" data-name="Rectangle 570" transform="translate(0 66.536)"/>
                    </g>
                    <g id="Group_124" class="cls-3" data-name="Group 124">
                        <path id="Rectangle_571" d="M0 0h72.912v.555H0z" class="cls-1" data-name="Rectangle 571" transform="translate(0 67.091)"/>
                    </g>
                    <g id="Group_125" class="cls-3" data-name="Group 125">
                        <path id="Rectangle_572" d="M0 0h72.912v.555H0z" class="cls-1" data-name="Rectangle 572" transform="translate(0 67.646)"/>
                    </g>
                    <g id="Group_126" class="cls-3" data-name="Group 126">
                        <path id="Rectangle_573" d="M0 0h72.912v.555H0z" class="cls-1" data-name="Rectangle 573" transform="translate(0 68.201)"/>
                    </g>
                    <g id="Group_127" class="cls-3" data-name="Group 127">
                        <path id="Rectangle_574" d="M0 0h72.912v.555H0z" class="cls-1" data-name="Rectangle 574" transform="translate(0 68.757)"/>
                    </g>
                    <g id="Group_128" class="cls-3" data-name="Group 128">
                        <path id="Rectangle_575" d="M0 0h72.912v.555H0z" class="cls-1" data-name="Rectangle 575" transform="translate(0 69.331)"/>
                    </g>
                    <g id="Group_129" class="cls-3" data-name="Group 129">
                        <path id="Rectangle_576" d="M0 0h72.912v.555H0z" class="cls-1" data-name="Rectangle 576" transform="translate(0 69.886)"/>
                    </g>
                    <g id="Group_130" class="cls-3" data-name="Group 130">
                        <path id="Rectangle_577" d="M0 0h72.912v.555H0z" class="cls-1" data-name="Rectangle 577" transform="translate(0 70.442)"/>
                    </g>
                    <g id="Group_131" class="cls-3" data-name="Group 131">
                        <path id="Rectangle_578" d="M0 0h72.912v.555H0z" class="cls-1" data-name="Rectangle 578" transform="translate(0 70.997)"/>
                    </g>
                    <g id="Group_132" class="cls-3" data-name="Group 132">
                        <path id="Rectangle_579" d="M0 0h72.912v.555H0z" class="cls-1" data-name="Rectangle 579" transform="translate(0 71.552)"/>
                    </g>
                    <g id="Group_133" class="cls-3" data-name="Group 133">
                        <path id="Rectangle_580" d="M0 0h72.912v.555H0z" class="cls-1" data-name="Rectangle 580" transform="translate(0 72.127)"/>
                    </g>
                    <g id="Group_134" class="cls-3" data-name="Group 134">
                        <path id="Rectangle_581" d="M0 0h72.912v.555H0z" class="cls-1" data-name="Rectangle 581" transform="translate(0 72.682)"/>
                    </g>
                </g>
            </g>
        </g>
        <g id="Group_351" data-name="Group 351" transform="translate(137.225 5655.614)">
            <path id="Path_492" d="M6.627 3.567c0 1.708-1.281 2.767-3.331 2.767H1.759v2.118H0V.8h3.313c2.05 0 3.314 1.059 3.314 2.767zm-1.793 0c0-.837-.547-1.332-1.623-1.332H1.776V4.9h1.435c1.089 0 1.623-.5 1.623-1.333z" class="cls-4" data-name="Path 492" transform="translate(0 -.663)"/>
            <path id="Path_493" d="M46.2.8h1.776V7H51.8v1.435h-5.6z" class="cls-4" data-name="Path 493" transform="translate(-38.309 -.663)"/>
            <path id="Path_494" d="M85.429 6.812h-3.535l-.683 1.64H79.4L82.816.8h1.742l3.416 7.652h-1.862zm-.547-1.349L83.67 2.525l-1.213 2.938z" class="cls-4" data-name="Path 494" transform="translate(-65.839 -.663)"/>
            <path id="Path_495" d="M141.4.8v7.652h-1.452l-3.809-4.646v4.646H134.4V.8h1.469l3.775 4.646V.8z" class="cls-4" data-name="Path 495" transform="translate(-111.445 -.663)"/>
            <path id="Path_496" d="M192.627 3.567c0 1.708-1.281 2.767-3.331 2.767h-1.537v2.118H186V.8h3.313c2.033 0 3.314 1.059 3.314 2.767zm-1.793 0c0-.837-.547-1.332-1.623-1.332h-1.435V4.9h1.435c1.076 0 1.623-.5 1.623-1.333z" class="cls-4" data-name="Path 496" transform="translate(-154.231 -.663)"/>
            <path id="Path_497" d="M230 3.963a4.191 4.191 0 1 1 4.185 3.963A3.968 3.968 0 0 1 230 3.963zm6.576 0a2.392 2.392 0 1 0-4.782 0 2.392 2.392 0 1 0 4.782 0z" class="cls-4" data-name="Path 497" transform="translate(-190.716)"/>
            <path id="Path_498" d="M284 3.963a4.191 4.191 0 1 1 4.185 3.963A3.968 3.968 0 0 1 284 3.963zm6.593 0a2.392 2.392 0 1 0-4.782 0 2.392 2.392 0 1 0 4.782 0z" class="cls-4" data-name="Path 498" transform="translate(-235.493)"/>
            <path id="Path_499" d="M338 3.963a4.223 4.223 0 0 1 7.31-2.613l-1.144 1.042a2.436 2.436 0 0 0-1.93-.888 2.341 2.341 0 0 0-2.442 2.442 2.35 2.35 0 0 0 2.442 2.442 2.452 2.452 0 0 0 1.93-.905l1.144 1.042A4.213 4.213 0 0 1 338 3.963z" class="cls-4" data-name="Path 499" transform="translate(-280.27)"/>
            <path id="Path_500" d="M394.737.8v7.652h-1.776V5.309h-3.484v3.143H387.7V.8h1.776v3.023h3.484V.8z" class="cls-4" data-name="Path 500" transform="translate(-321.481 -.663)"/>
        </g>
    </g>
</svg>
