<svg xmlns="http://www.w3.org/2000/svg" width="128.693" height="278.203" viewBox="0 0 128.693 278.203">
    <defs>
        <style>
            .cls-1{opacity:.38}.cls-2{fill:#82a8d4}.cls-3{fill:url(#linear-gradient)}.cls-4,.cls-8{fill:#fff}.cls-5{opacity:.546}.cls-6{fill:#3fbec5;opacity:.313}.cls-7{fill:#98dcdf}.cls-8{stroke:#fff;stroke-linejoin:round}.cls-9{stroke:none}.cls-10{fill:none}
        </style>
        <linearGradient id="linear-gradient" x1=".5" x2=".5" y2="1" gradientUnits="objectBoundingBox">
            <stop offset="0" stop-color="#99aff7"/>
            <stop offset="1" stop-color="#7c98f5"/>
        </linearGradient>
    </defs>
    <g id="map_bg-left" data-name="map bg-left" transform="translate(-23.427 -451.241)">
        <g id="Group_354" class="cls-1" data-name="Group 354" transform="translate(-1315 1)">
            <g id="Group_397" data-name="Group 397" transform="translate(-10.705 19.134)">
                <ellipse id="Ellipse_13" cx="7.148" cy="3.574" class="cls-2" data-name="Ellipse 13" rx="7.148" ry="3.574" transform="translate(1377.536 509.584)"/>
                <path id="Rectangle_1130" d="M25.132 0h.224a25.132 25.132 0 0 1 25.131 25.132 25.132 25.132 0 0 1-25.132 25.131H0V25.132A25.132 25.132 0 0 1 25.132 0z" class="cls-3" data-name="Rectangle 1130" transform="rotate(-45 1238.051 -1395.142)"/>
                <g id="pawprint" transform="translate(1373.211 457.024)">
                    <path id="Path_553" d="M76.926 184.524a5.592 5.592 0 0 0-9.416 0l-2.49 3.885a3.54 3.54 0 0 0 4.4 5.151l.047-.021a6.958 6.958 0 0 1 5.541.021 3.52 3.52 0 0 0 1.42.3 3.564 3.564 0 0 0 .792-.09 3.54 3.54 0 0 0 2.192-5.361zm0 0" class="cls-4" data-name="Path 553" transform="translate(-61.568 -173.788)"/>
                    <path id="Path_554" d="M4.122 105.19a2.715 2.715 0 0 0 1.585-1.681 3.507 3.507 0 0 0-.062-2.419 3.51 3.51 0 0 0-1.576-1.836 2.715 2.715 0 0 0-2.3-.185 3.109 3.109 0 0 0-1.522 4.1 3.279 3.279 0 0 0 2.949 2.193 2.571 2.571 0 0 0 .926-.172zm0 0" class="cls-4" data-name="Path 554" transform="translate(0 -94.459)"/>
                    <path id="Path_555" d="M127.787 7.688a3.636 3.636 0 0 0 3.373-3.843 3.4 3.4 0 1 0-6.747 0 3.636 3.636 0 0 0 3.374 3.843zm0 0" class="cls-4" data-name="Path 555" transform="translate(-118.833)"/>
                    <path id="Path_556" d="M286.227 47.079a2.749 2.749 0 0 0 .869.14 3.5 3.5 0 0 0 3.183-2.5 3.77 3.77 0 0 0-.054-2.6 2.852 2.852 0 0 0-4.225-1.41 3.77 3.77 0 0 0-1.6 2.051 3.335 3.335 0 0 0 1.827 4.319zm0 0" class="cls-4" data-name="Path 556" transform="translate(-271.447 -38.447)"/>
                    <path id="Path_557" d="M381.72 171.564a3.306 3.306 0 0 0-3.9 5.272 2.638 2.638 0 0 0 1.584.511 3.411 3.411 0 0 0 2.694-1.427 3.11 3.11 0 0 0-.378-4.356zm0 0" class="cls-4" data-name="Path 557" transform="translate(-359.836 -163.381)"/>
                </g>
            </g>
        </g>
        <g id="Group_359" class="cls-5" data-name="Group 359" transform="translate(-1285.835 473.555)">
            <ellipse id="Ellipse_21" cx="6.895" cy="3.447" class="cls-6" data-name="Ellipse 21" rx="6.895" ry="3.447" transform="translate(1403.087 248.995)"/>
            <path id="Rectangle_1128" d="M20.1 0h.216a20.1 20.1 0 0 1 20.1 20.1 20.1 20.1 0 0 1-20.1 20.1H0V20.1A20.1 20.1 0 0 1 20.1 0z" class="cls-7" data-name="Rectangle 1128" transform="rotate(-45 950.893 -1559.07)"/>
            <g id="Group_414" data-name="Group 414" transform="translate(1400.904 203.864)">
                <g id="Group_413" data-name="Group 413">
                    <g id="tree_1_" data-name="tree (1)">
                        <path id="Path_550" d="M5.321 17.24c2.91 0 5.278-2.707 5.278-5.981a6.5 6.5 0 0 0-1.548-4.211 7.441 7.441 0 0 0 .229-1.727C9.28 2.411 7.5 0 5.321 0s-4 2.411-4 5.321a7.449 7.449 0 0 0 .228 1.727A6.359 6.359 0 0 0 0 11.259c0 3.274 2.411 5.981 5.321 5.981zm0 0" class="cls-4" data-name="Path 550"/>
                        <path id="Path_551" d="M11.407 368.185v-4.82a3.63 3.63 0 0 1-1.319.253 3.531 3.531 0 0 1-1.319-.271v4.838H4.81v-4.82a3.566 3.566 0 0 1-2.639 0v4.82z" class="cls-4" data-name="Path 551" transform="translate(1.831 -346.987)"/>
                        <path id="Path_552" d="M215.612 6.734a7.784 7.784 0 0 1 1.451 4.524 7.672 7.672 0 0 1-2.191 5.429 4.747 4.747 0 0 0 2.191.552c2.91 0 5.278-2.707 5.278-5.981a6.36 6.36 0 0 0-1.548-4.211 7.452 7.452 0 0 0 .228-1.727c0-2.91-1.775-5.321-3.958-5.321a3.394 3.394 0 0 0-2.481 1.2 7.825 7.825 0 0 1 1.03 5.535zm0 0" class="cls-4" data-name="Path 552" transform="translate(-205.145)"/>
                    </g>
                    <g id="Rectangle_1262" class="cls-8" data-name="Rectangle 1262">
                        <path d="M0 0h12.901v1.843H0z" class="cls-9" transform="translate(2.149 20.674)"/>
                        <path d="M.5.5h11.901v.843H.5z" class="cls-10" transform="translate(2.149 20.674)"/>
                    </g>
                </g>
            </g>
        </g>
    </g>
</svg>
