<svg xmlns="http://www.w3.org/2000/svg" viewBox="0 0 122.26 27.689">
    <defs>
        <style>
            .cls-1{fill:#e3e3e3}.cls-2{fill:#bababa}
        </style>
    </defs>
    <g id="ocado" transform="translate(-630.544 -815)">
        <path id="Path_2899" d="M855.011 350.274c0 4.068 0 8.137.008 12.205 0 .349-.074.455-.443.454q-12-.018-24-.01a3.01 3.01 0 0 1-3.181-3.193v-21.278a3.009 3.009 0 0 1 3.179-3.192c7.106 0 14.212.02 21.318-.016a3.091 3.091 0 0 1 3.138 3.15c-.056 3.96-.019 7.92-.019 11.88zm-9.473-7.39a.927.927 0 0 0-.523-.136 3.624 3.624 0 0 0-3.666 4.28 3.708 3.708 0 0 0 3.456 3.09 4.628 4.628 0 0 0 5.083-5.105 5.358 5.358 0 0 0-2.219-3.785 9.8 9.8 0 0 0-7.689-1.859 9.607 9.607 0 1 0 10.924 8.913 5.521 5.521 0 0 0-.35-1.764c-.045.31-.054.616-.108.921a6.105 6.105 0 0 1-6.658 4.97 5.915 5.915 0 0 1-5.181-6.538 5.691 5.691 0 0 1 6.228-5.146 4.8 4.8 0 0 1 3.277 1.525 2.654 2.654 0 0 1 .684 2.556 2.057 2.057 0 0 1-2.069 1.563 1.985 1.985 0 0 1-1.189-3.486z" class="cls-1" data-name="Path 2899" transform="translate(-196.846 479.755)"/>
        <g id="Group_3870" data-name="Group 3870" transform="translate(-64.273 195.14)">
            <path id="Path_2900" d="M1019.251 631.35v-1.744c0-2.355.016-4.711-.012-7.066-.006-.531.139-.715.675-.675a13 13 0 0 0 1.822 0c.488-.032.585.16.584.611q-.019 11.131 0 22.262c0 .449-.1.642-.585.61a14.892 14.892 0 0 0-1.9 0c-.475.03-.64-.133-.593-.6.033-.324.007-.655.007-1.157a7.757 7.757 0 0 1-6.561 2.275 8.249 8.249 0 0 1-5.968-3.508 8.633 8.633 0 0 1 .755-10.724 8.364 8.364 0 0 1 5.809-2.612 7.6 7.6 0 0 1 5.967 2.328zm-5.377 11.735a5.558 5.558 0 0 0-.026-11.114 5.557 5.557 0 0 0 .026 11.114z" class="cls-2" data-name="Path 2900" transform="translate(-224.995)"/>
            <path id="Path_2901" d="M917.653 673.691a8.3 8.3 0 0 1-11.549-.276 8.661 8.661 0 0 1-.676-11.147 8.284 8.284 0 0 1 5.895-3.226 8.122 8.122 0 0 1 6.426 2.132c.025-.229.046-.345.049-.461.043-1.308.043-1.308 1.4-1.308 1.614 0 1.614 0 1.614 1.614 0 4.485-.021 8.97.02 13.455.007.765-.226 1-.933.881a1.974 1.974 0 0 0-.3 0c-.557-.007-1.211.166-1.646-.068-.518-.277-.042-1.025-.3-1.596zm.144-6.22a5.488 5.488 0 0 0-5.4-5.6 5.557 5.557 0 0 0-.065 11.114 5.465 5.465 0 0 0 5.468-5.514z" class="cls-2" data-name="Path 2901" transform="translate(-143.252 -29.905)"/>
            <path id="Path_2902" d="M742.927 667.468a8.54 8.54 0 1 1-8.56-8.513 8.384 8.384 0 0 1 8.56 8.513zm-8.509 5.493a5.558 5.558 0 1 0-5.509-5.507 5.483 5.483 0 0 0 5.509 5.507z" class="cls-2" data-name="Path 2902" transform="translate(0 -29.876)"/>
            <path id="Path_2903" d="M1124.2 667.489a8.288 8.288 0 0 1-8.492 8.421 8.478 8.478 0 1 1 8.492-8.421zm-3.014-.051a5.473 5.473 0 1 0-5.469 5.522 5.494 5.494 0 0 0 5.47-5.522z" class="cls-2" data-name="Path 2903" transform="translate(-307.123 -29.876)"/>
            <path id="Path_2904" d="M837.762 670.755c.446.789.845 1.521 1.272 2.236a.39.39 0 0 1-.135.623 8.672 8.672 0 0 1-8.3 1.073 7.826 7.826 0 0 1-5.233-6.285 7.971 7.971 0 0 1 3.594-8.63 8.575 8.575 0 0 1 9.614-.009c.533.315.7.6.314 1.179-.43.645-.745 1.367-1.118 2.07a5.543 5.543 0 0 0-8.062.111 5.673 5.673 0 0 0 .047 7.55 5.529 5.529 0 0 0 8.007.082z" class="cls-2" data-name="Path 2904" transform="translate(-80.017 -29.343)"/>
        </g>
    </g>
</svg>
