<svg xmlns="http://www.w3.org/2000/svg" width="155.365" height="46.906" viewBox="0 0 155.365 46.906">
    <defs>
        <style>
            .cls-1{fill:#55bed1}.cls-2{fill:#b9b6d0}.cls-3{fill:url(#linear-gradient)}.cls-4{fill:#937ad8}
        </style>
        <linearGradient id="linear-gradient" x1=".114" x2=".927" y1=".862" y2=".077" gradientUnits="objectBoundingBox">
            <stop offset="0" stop-color="#cb9ef6"/>
            <stop offset="1" stop-color="#0bd1ba"/>
        </linearGradient>
    </defs>
    <g id="Group_529" data-name="Group 529" transform="translate(-208.855 -15.54)">
        <g id="Group_197" data-name="Group 197" transform="translate(208.855 15.54)">
            <g id="Group_194" data-name="Group 194" transform="translate(21.464 12.647)">
                <g id="Group_185" data-name="Group 185">
                    <g id="Group_185-2" data-name="Group 185" transform="translate(0 3.448)">
                        <circle id="Ellipse_11" cx="1.355" cy="1.355" r="1.355" class="cls-1" data-name="Ellipse 11"/>
                    </g>
                    <g id="Group_186" data-name="Group 186" transform="translate(10.837)">
                        <path id="Path_385" d="M262.3 103.574a4.541 4.541 0 0 0 3.891 4.778l2.02-3.719-1.511-1.933z" class="cls-2" data-name="Path 385" transform="translate(-262.3 -102.7)"/>
                    </g>
                </g>
            </g>
            <path id="Path_397" d="M46.894 19.42v-.357a3.343 3.343 0 0 0-.012-.357c0-.123-.012-.246-.012-.357s-.012-.246-.012-.357-.012-.246-.025-.357-.012-.246-.025-.357-.025-.246-.037-.357l-.037-.357a3.122 3.122 0 0 0-.049-.357c-.012-.123-.037-.246-.049-.357s-.037-.246-.049-.357-.037-.234-.062-.357-.049-.246-.062-.357-.049-.246-.074-.357a3.03 3.03 0 0 0-.086-.357c-.025-.123-.062-.246-.086-.357a3.021 3.021 0 0 0-.1-.357c-.037-.123-.062-.246-.1-.357s-.074-.246-.111-.357-.074-.246-.111-.357a3.039 3.039 0 0 0-.123-.357 3.063 3.063 0 0 0-.135-.357c-.049-.123-.086-.246-.135-.357s-.1-.246-.148-.357a3.14 3.14 0 0 0-.16-.357 3.191 3.191 0 0 0-.172-.357c-.062-.123-.111-.246-.172-.357s-.123-.246-.185-.357-.135-.246-.2-.357-.135-.246-.209-.357-.148-.246-.222-.357a3.567 3.567 0 0 0-.234-.357 3.666 3.666 0 0 0-.246-.357c-.086-.123-.172-.246-.259-.357s-.185-.246-.271-.357-.185-.246-.283-.357-.2-.246-.3-.357a4.415 4.415 0 0 0-.32-.357 10.648 10.648 0 0 0-.332-.357 4.886 4.886 0 0 0-.357-.357c-.123-.123-.246-.246-.369-.357s-.259-.246-.394-.357-.283-.246-.419-.357-.3-.246-.443-.357-.32-.246-.48-.357-.345-.246-.5-.357c-.185-.123-.369-.246-.554-.357s-.394-.246-.591-.357c-.222-.123-.431-.246-.64-.357-.234-.123-.48-.246-.714-.357-.271-.135-.53-.246-.788-.357-.32-.135-.616-.259-.911-.357a11.255 11.255 0 0 0-1.107-.363A5.336 5.336 0 0 0 31.439 0H17.277a24.768 24.768 0 0 0-4.3.357c-.554.1-1.084.222-1.6.357a16.317 16.317 0 0 0-2.082.714c-.271.111-.53.234-.788.357a11.71 11.71 0 0 0-.677.357c-.2.111-.406.234-.591.357s-.357.234-.53.357-.32.234-.48.357-.3.234-.443.357-.271.234-.406.357-.259.234-.369.357-.234.234-.345.357L4.347 5c-.1.123-.2.234-.3.357s-.185.234-.283.357-.172.234-.259.357-.16.234-.246.357-.16.234-.234.357-.148.234-.209.357-.135.234-.2.357-.123.234-.185.357-.123.234-.185.357-.111.234-.172.357-.111.234-.16.357-.1.234-.148.357-.1.234-.135.357-.079.235-.131.359-.086.234-.123.357-.074.234-.123.357-.074.234-.111.357-.074.234-.111.357-.062.234-.1.357-.062.234-.086.357-.062.234-.086.357-.049.234-.086.357-.049.234-.074.357l-.074.357a3.609 3.609 0 0 0-.062.357c-.025.123-.037.234-.062.357s-.037.234-.062.357-.032.235-.04.359-.037.234-.049.357a3.553 3.553 0 0 1-.049.357l-.037.357-.037.357-.037.357a3.479 3.479 0 0 0-.025.357c-.012.123-.012.234-.025.357-.012.234-.025.357-.037.48V44.69s.062-.1.172-.283c.062-.1.135-.222.222-.357a4.075 4.075 0 0 1 .222-.357c.074-.111.148-.234.222-.357s.148-.234.222-.357.148-.234.222-.357.148-.234.222-.357.148-.234.222-.357.148-.234.222-.357.148-.234.222-.357.148-.234.222-.357.148-.234.222-.357.148-.234.222-.357.148-.234.222-.357.148-.234.222-.357.148-.234.222-.357.148-.234.222-.357.148-.234.222-.357.148-.234.222-.357.148-.234.222-.357.148-.234.222-.357.148-.234.222-.357.148-.234.209-.357.148-.234.209-.357.148-.234.209-.357.148-.234.209-.357.148-.234.209-.357.148-.234.209-.357.148-.246.209-.357.148-.246.209-.357.135-.246.209-.357.135-.246.209-.357.135-.246.209-.357.135-.246.209-.357.135-.246.209-.357.135-.246.209-.357.135-.246.209-.357.135-.246.209-.357.135-.246.209-.357.135-.246.2-.357.135-.246.2-.357.135-.246.2-.357.135-.246.2-.357.135-.246.185-.357.123-.246.185-.357c.062-.135.123-.259.172-.357a2.383 2.383 0 0 0 .135-.357.277.277 0 0 0 .012-.086V16.883a3 3 0 0 1 .012-.332 3.343 3.343 0 0 1 .012-.357 3.253 3.253 0 0 1 .025-.357l.037-.357.037-.357c.012-.111.037-.246.049-.357s.037-.246.062-.357.049-.246.074-.357.049-.246.074-.357a3.022 3.022 0 0 1 .1-.357c.037-.123.074-.246.111-.357a3.04 3.04 0 0 1 .123-.357 3.064 3.064 0 0 1 .135-.357c.049-.123.1-.246.148-.357a3.14 3.14 0 0 1 .16-.357c.062-.123.111-.246.172-.357s.123-.246.185-.357.135-.246.209-.357a3.566 3.566 0 0 1 .234-.357c.086-.123.16-.246.246-.357s.185-.246.271-.357.209-.246.308-.357c.123-.135.234-.246.345-.357a4.927 4.927 0 0 1 .394-.357 4.357 4.357 0 0 1 .493-.357 1.1 1.1 0 0 1 .517-.209.67.67 0 0 1 .493.209 1.084 1.084 0 0 1 .2.357 2.483 2.483 0 0 1 .1.357 3.122 3.122 0 0 1 .049.357 3.253 3.253 0 0 1 .025.357 3.343 3.343 0 0 1 .012.357v.714c0 .123-.012.234-.012.357s-.012.246-.025.357-.012.246-.012.357a3.452 3.452 0 0 0 0 .357 3.253 3.253 0 0 0 .025.357 3.078 3.078 0 0 0 .062.357 1.78 1.78 0 0 0 .135.357 1.3 1.3 0 0 0 .271.357 1.7 1.7 0 0 0 .764.357 4.063 4.063 0 0 0 .714.062c1.7 0 7.044-.037 11.674-.062 4.1-.025 7.66-.062 7.66-.062v.062c-.012.123-.012.246-.025.357s-.012.246-.025.357-.012.246-.025.357-.025.246-.025.357-.025.246-.037.357l-.037.357a3.122 3.122 0 0 1-.049.357c-.012.123-.037.246-.049.357s-.037.246-.049.357-.037.246-.062.357-.037.246-.062.357-.049.246-.062.357-.049.246-.074.357-.049.246-.074.357-.062.246-.086.357-.062.246-.086.357-.062.246-.1.357-.074.246-.111.357-.074.246-.111.357-.086.246-.123.357a3.064 3.064 0 0 1-.135.357c-.049.123-.086.246-.135.357s-.1.246-.148.357-.111.246-.16.357-.111.246-.172.357-.123.246-.185.357-.135.246-.2.357-.135.246-.209.357a3.568 3.568 0 0 1-.234.357c-.086.123-.16.246-.246.357s-.185.246-.271.357-.2.246-.3.357-.209.246-.32.357a4.885 4.885 0 0 1-.357.357c-.123.123-.259.246-.394.357s-.283.246-.431.357-.32.246-.493.357-.369.246-.554.357a11.015 11.015 0 0 1-1.441.714 8.692 8.692 0 0 1-1 .357 12.743 12.743 0 0 1-1.428.357 17.985 17.985 0 0 1-2.894.3l-.025.062-.123.357-.123.357-.123.357-.123.357-.123.357-.123.357-.123.357-.123.357-.123.357-.123.357-.123.357-.123.357-.123.357-.123.357-.123.357-.123.357-.123.357-.123.357-.123.357-.123.357-.123.357-.123.357-.123.357-.123.357-.123.357-.123.357-.123.357-.123.357-.123.357-.123.357-.123.357-.123.357-.123.357-.123.357-.123.357-.123.357-.123.357-.123.357-.123.357-.123.357-.123.357-.123.357-.123.357-.123.357-.123.357-.123.357-.123.357-.123.357-.123.357-.123.357h1.539c.062-.123.123-.234.172-.357s.123-.234.172-.357.123-.234.172-.357.123-.234.185-.357.123-.234.185-.357.123-.234.185-.357.123-.234.185-.357.123-.246.185-.357a3.317 3.317 0 0 1 .2-.357c.062-.123.135-.246.2-.357a3.394 3.394 0 0 1 .209-.357c.074-.123.135-.246.209-.357s.148-.246.222-.357.148-.246.222-.357.16-.246.234-.357.16-.246.246-.357.172-.246.259-.357.185-.246.271-.357.2-.246.3-.357.209-.246.308-.357.222-.246.332-.357.234-.246.357-.357.259-.246.394-.357.283-.246.431-.357.32-.246.493-.357.369-.246.554-.357c.209-.123.431-.246.653-.357.259-.123.517-.246.788-.357a9.3 9.3 0 0 1 1.034-.357 11.5 11.5 0 0 1 1.7-.357 16.149 16.149 0 0 1 3.14-.111 12.5 12.5 0 0 0 2.217-.246c.443-.086.936-.209 1.465-.357.345-.1.7-.222 1.059-.357.283-.111.566-.222.862-.357.246-.111.493-.234.739-.357.209-.111.431-.234.64-.357.185-.111.382-.234.566-.357s.345-.234.517-.357.308-.234.468-.357.283-.234.431-.357.259-.234.394-.357a4.884 4.884 0 0 0 .357-.357c.111-.111.222-.234.332-.357s.209-.234.308-.357.2-.234.283-.357.185-.234.271-.357.172-.234.246-.357.16-.234.234-.357.148-.234.222-.357.135-.234.2-.357.123-.234.185-.357.123-.234.172-.357.111-.234.16-.357.1-.234.148-.357.1-.234.148-.357.086-.234.135-.357.086-.234.123-.357.074-.234.111-.357.074-.234.111-.357.062-.234.1-.357.062-.234.086-.357.062-.234.086-.357.049-.234.074-.357l.074-.357a3.61 3.61 0 0 0 .062-.357c.025-.123.037-.234.062-.357s.037-.234.049-.357l.037-.357.037-.357.037-.357a3.478 3.478 0 0 0 .025-.357c.012-.123.012-.234.025-.357s.012-.234.025-.357.012-.234.012-.357.012-.234.012-.357v-.554c-.143-.041-.143-.103-.143-.152z" class="cls-3" data-name="Path 397"/>
        </g>
        <g id="Group_468" data-name="Group 468" transform="translate(271.019 34.192)">
            <path id="Path_492" d="M8.431 4.32c0 2.173-1.63 3.52-4.237 3.52H2.238v2.695H0V.8h4.216c2.607 0 4.215 1.347 4.215 3.52zm-2.282 0c0-1.065-.7-1.695-2.064-1.695H2.26v3.39h1.825c1.391 0 2.065-.63 2.065-1.695z" class="cls-4" data-name="Path 492" transform="translate(0 -.626)"/>
            <path id="Path_493" d="M46.2.8h2.26v7.888h4.868v1.825H46.2z" class="cls-4" data-name="Path 493" transform="translate(-36.161 -.626)"/>
            <path id="Path_494" d="M87.071 8.449h-4.5l-.871 2.086h-2.3L83.746.8h2.216l4.346 9.735H87.94zm-.7-1.717l-1.539-3.737-1.542 3.737z" class="cls-4" data-name="Path 494" transform="translate(-62.146 -.626)"/>
            <path id="Path_495" d="M143.309.8v9.735h-1.847l-4.846-5.911v5.911H134.4V.8h1.869l4.8 5.911V.8z" class="cls-4" data-name="Path 495" transform="translate(-105.195 -.626)"/>
            <path id="Path_496" d="M194.431 4.32c0 2.173-1.63 3.52-4.237 3.52h-1.956v2.695H186V.8h4.216c2.584 0 4.215 1.347 4.215 3.52zm-2.282 0c0-1.065-.7-1.695-2.064-1.695h-1.825v3.39h1.825c1.369 0 2.065-.63 2.065-1.695z" class="cls-4" data-name="Path 496" transform="translate(-145.582 -.626)"/>
            <path id="Path_497" d="M230 5.041a5.332 5.332 0 1 1 5.324 5.041A5.048 5.048 0 0 1 230 5.041zm8.366 0a3.043 3.043 0 1 0-6.084 0 3.043 3.043 0 1 0 6.084 0z" class="cls-4" data-name="Path 497" transform="translate(-180.021)"/>
            <path id="Path_498" d="M284 5.041a5.332 5.332 0 1 1 5.324 5.041A5.048 5.048 0 0 1 284 5.041zm8.388 0a3.043 3.043 0 1 0-6.084 0 3.043 3.043 0 1 0 6.084 0z" class="cls-4" data-name="Path 498" transform="translate(-222.287)"/>
            <path id="Path_499" d="M338 5.041a5.373 5.373 0 0 1 9.3-3.325l-1.456 1.326a3.1 3.1 0 0 0-2.455-1.13 2.978 2.978 0 0 0-3.107 3.107 2.99 2.99 0 0 0 3.107 3.107 3.12 3.12 0 0 0 2.455-1.152L347.3 8.3a5.361 5.361 0 0 1-9.3-3.259z" class="cls-4" data-name="Path 499" transform="translate(-264.553)"/>
            <path id="Path_500" d="M396.653.8v9.735h-2.26v-4h-4.433v4h-2.26V.8h2.26v3.846h4.433V.8z" class="cls-4" data-name="Path 500" transform="translate(-303.453 -.626)"/>
        </g>
    </g>
</svg>
