<svg xmlns="http://www.w3.org/2000/svg" width="41.201" height="59.807" viewBox="0 0 41.201 59.807">
    <defs>
        <style>
            .cls-1{fill:url(#linear-gradient)}
        </style>
        <linearGradient id="linear-gradient" x1=".5" x2=".5" y2="1" gradientUnits="objectBoundingBox">
            <stop offset="0" stop-color="#5f56d8"/>
            <stop offset="1" stop-color="#7c98f5"/>
        </linearGradient>
    </defs>
    <g id="location" transform="translate(-66.905)">
        <path id="Facebook_Places" d="M107.133 14.885a18.632 18.632 0 0 0-.965-2.392 20.49 20.49 0 0 0-39.268 6.06v2.552c0 .107.037 1.063.089 1.542.745 5.954 5.443 12.281 8.951 18.235 3.775 6.379 7.691 12.653 11.572 18.926 2.393-4.093 4.777-8.24 7.115-12.227.637-1.17 1.377-2.34 2.015-3.456.425-.744 1.238-1.487 1.609-2.179 3.775-6.911 9.85-13.875 9.85-20.733v-2.819a21.221 21.221 0 0 0-.968-3.509zM87.393 27.7a7.312 7.312 0 0 1-7-5 6.932 6.932 0 0 1-.2-1.862v-1.647c0-4.677 3.971-6.8 7.426-6.8a7.529 7.529 0 0 1 7.543 7.656 7.723 7.723 0 0 1-7.769 7.653z" class="cls-1"/>
    </g>
</svg>
