<svg xmlns="http://www.w3.org/2000/svg" width="18.397" height="14.921" viewBox="0 0 18.397 14.921">
    <defs>
        <style>
            .cls-1{fill:#fff;fill-rule:evenodd}
        </style>
    </defs>
    <path id="Path_39" d="M43.826 16.922A10.636 10.636 0 0 0 54.557 6.19v-.511A8.308 8.308 0 0 0 56.4 3.737a8.484 8.484 0 0 1-2.146.613 3.976 3.976 0 0 0 1.635-2.044 9.374 9.374 0 0 1-2.351.92A3.65 3.65 0 0 0 50.775 2a3.84 3.84 0 0 0-3.782 3.782 1.993 1.993 0 0 0 .1.818 10.567 10.567 0 0 1-7.767-3.986 3.914 3.914 0 0 0-.511 1.942 4.061 4.061 0 0 0 1.635 3.168 3.445 3.445 0 0 1-1.737-.511 3.735 3.735 0 0 0 3.066 3.679 3.151 3.151 0 0 1-1.022.1 1.739 1.739 0 0 1-.715-.1 3.872 3.872 0 0 0 3.577 2.657 7.716 7.716 0 0 1-4.7 1.635 2.83 2.83 0 0 1-.92-.1 9.647 9.647 0 0 0 5.826 1.84" class="cls-1" data-name="Path 39" transform="translate(-38 -2)"/>
</svg>
